<svg width="40" height="40" viewBox="0 0 40 40" fill="none" xmlns="http://www.w3.org/2000/svg">
<path d="M10.8333 18.3335L20 3.3335L29.1667 18.3335H10.8333ZM29.1667 36.6668C27.0833 36.6668 25.3125 35.9377 23.8542 34.4793C22.3958 33.021 21.6667 31.2502 21.6667 29.1668C21.6667 27.0835 22.3958 25.3127 23.8542 23.8543C25.3125 22.396 27.0833 21.6668 29.1667 21.6668C31.25 21.6668 33.0208 22.396 34.4792 23.8543C35.9375 25.3127 36.6667 27.0835 36.6667 29.1668C36.6667 31.2502 35.9375 33.021 34.4792 34.4793C33.0208 35.9377 31.25 36.6668 29.1667 36.6668ZM5 35.8335V22.5002H18.3333V35.8335H5ZM29.1667 33.3335C30.3333 33.3335 31.3194 32.9307 32.125 32.1252C32.9306 31.3196 33.3333 30.3335 33.3333 29.1668C33.3333 28.0002 32.9306 27.014 32.125 26.2085C31.3194 25.4029 30.3333 25.0002 29.1667 25.0002C28 25.0002 27.0139 25.4029 26.2083 26.2085C25.4028 27.014 25 28.0002 25 29.1668C25 30.3335 25.4028 31.3196 26.2083 32.1252C27.0139 32.9307 28 33.3335 29.1667 33.3335ZM8.33333 32.5002H15V25.8335H8.33333V32.5002ZM16.75 15.0002H23.25L20 9.75016L16.75 15.0002Z" fill="black"/>
</svg>
