<svg width="118" height="282" viewBox="0 0 118 282" fill="none" xmlns="http://www.w3.org/2000/svg">
<path d="M29.78 79.798C31.78 75.381 26.89 62.0208 24.7 56.5404C24.5727 56.2234 24.3618 55.9396 24.0858 55.7139C23.8097 55.4882 23.477 55.3275 23.1167 55.2458C22.7564 55.1642 22.3796 55.1641 22.0193 55.2457C21.659 55.3272 21.3261 55.4878 21.05 55.7134C19.05 57.322 16.66 60.4485 16.26 66.247C16.26 66.247 1 90.6679 1 101.81C1 112.253 23.72 134.002 23.72 134.002C26.2817 133.279 28.447 131.701 29.78 129.585C29.78 129.585 21.29 110.499 14.7 102.319C14.69 102.328 27.53 84.6876 29.78 79.798Z" fill="#263238"/>
<mask id="mask0_343_751" style="mask-type:luminance" maskUnits="userSpaceOnUse" x="1" y="55" width="30" height="80">
<path d="M29.78 79.798C31.78 75.381 26.89 62.0208 24.7 56.5404C24.5727 56.2234 24.3618 55.9396 24.0858 55.7139C23.8097 55.4882 23.477 55.3275 23.1167 55.2458C22.7564 55.1642 22.3796 55.1641 22.0193 55.2457C21.659 55.3272 21.3261 55.4878 21.05 55.7134C19.05 57.322 16.66 60.4485 16.26 66.247C16.26 66.247 1 90.6679 1 101.81C1 112.253 23.72 134.002 23.72 134.002C26.2817 133.279 28.447 131.701 29.78 129.585C29.78 129.585 21.29 110.499 14.7 102.319C14.69 102.328 27.53 84.6876 29.78 79.798Z" fill="white"/>
</mask>
<g mask="url(#mask0_343_751)">
<path opacity="0.2" d="M27.2302 86.9419C27.2302 86.9419 19.9602 72.8638 17.2302 74.1271C14.5002 75.3904 7.42016 99.1297 10.1302 102.911C12.8402 106.691 27.6202 133.384 31.3202 132.848C35.0202 132.312 27.2302 86.9419 27.2302 86.9419Z" fill="black"/>
</g>
<path d="M29.78 79.798C31.78 75.381 26.89 62.0208 24.7 56.5404C24.5727 56.2234 24.3618 55.9396 24.0858 55.7139C23.8097 55.4882 23.477 55.3275 23.1167 55.2458C22.7564 55.1642 22.3796 55.1641 22.0193 55.2457C21.659 55.3272 21.3261 55.4878 21.05 55.7134C19.05 57.322 16.66 60.4485 16.26 66.247C16.26 66.247 1 90.6679 1 101.81C1 112.253 23.72 134.002 23.72 134.002C26.2817 133.279 28.447 131.701 29.78 129.585C29.78 129.585 21.29 110.499 14.7 102.319C14.69 102.328 27.53 84.6876 29.78 79.798Z" stroke="#263238" stroke-linecap="round" stroke-linejoin="round"/>
<path d="M27.8498 127.86L31.2798 132.85C31.2798 132.85 41.9598 135.886 43.0698 139.094C44.1798 142.302 38.7098 146.774 35.4598 145.874C32.2098 144.974 26.9098 136.067 26.9098 136.067L22.5898 131.523L27.8498 127.86Z" fill="white" stroke="#263238" stroke-linecap="round" stroke-linejoin="round"/>
<path d="M21.1201 132.736L23.4301 135.154C26.6786 134.328 29.4556 132.403 31.1901 129.774L29.7901 126.747C29.7901 126.747 27.8201 130.946 21.1201 132.736Z" fill="#727C72" stroke="#263238" stroke-linecap="round" stroke-linejoin="round"/>
<path d="M34.8102 266.506L31.8102 277.821C31.7105 278.2 31.7066 278.595 31.7988 278.976C31.891 279.356 32.0768 279.713 32.3424 280.019C32.6079 280.325 32.9464 280.573 33.3322 280.743C33.718 280.913 34.1413 281.002 34.5702 281.002H52.0902C52.5051 281.002 52.9151 280.92 53.2914 280.761C53.6678 280.602 54.0014 280.371 54.269 280.082C54.5366 279.794 54.7318 279.456 54.8408 279.092C54.9498 278.728 54.9701 278.347 54.9002 277.976C54.7646 277.125 54.4348 276.31 53.932 275.582C53.4291 274.854 52.7643 274.23 51.9802 273.749C47.9802 271.386 46.0802 263.988 46.0802 263.988L34.8102 266.506Z" fill="#263238" stroke="#263238" stroke-linecap="round" stroke-linejoin="round"/>
<path d="M77.98 268.394C77.98 268.394 75.15 272.093 74.69 278.691C74.6751 278.99 74.727 279.288 74.8424 279.567C74.9579 279.847 75.1345 280.102 75.3616 280.318C75.5888 280.534 75.8617 280.706 76.1639 280.823C76.4662 280.94 76.7914 281 77.12 281H108.19C108.796 281.003 109.389 280.834 109.885 280.517C110.381 280.2 110.756 279.751 110.959 279.231C111.161 278.712 111.18 278.148 111.014 277.618C110.847 277.088 110.503 276.618 110.03 276.274C108.708 275.38 107.141 274.833 105.5 274.692C97.88 273.784 91.13 270.603 89.91 266.513L77.98 268.394Z" fill="#263238" stroke="#263238" stroke-linecap="round" stroke-linejoin="round"/>
<path d="M29.7798 129.584C29.7798 129.584 26.2598 142.817 27.6498 171.391L28.5498 203.746C28.5498 203.746 23.4898 226.468 33.1998 267.603C33.1998 267.603 36.1998 273.692 48.2898 266.076L49.6898 203.319L62.3398 134.001L29.7798 129.584Z" fill="#999999"/>
<mask id="mask1_343_751" style="mask-type:luminance" maskUnits="userSpaceOnUse" x="27" y="129" width="36" height="141">
<path d="M29.7798 129.584C29.7798 129.584 26.2598 142.817 27.6498 171.391L28.5498 203.746C28.5498 203.746 23.4898 226.468 33.1998 267.603C33.1998 267.603 36.1998 273.692 48.2898 266.076L49.6898 203.319L62.3398 134.001L29.7798 129.584Z" fill="white"/>
</mask>
<g mask="url(#mask1_343_751)">
<path opacity="0.2" d="M54.94 158.788C54.94 158.788 49.78 177.483 47.7 188.408C45.62 199.332 33.25 198.496 31.76 205.676C30.27 212.856 44.76 204.413 43.35 230.215C41.94 256.017 36.87 270.123 44.83 269.914C52.79 269.705 53.02 249.374 53.02 249.374L57.87 187.408V178.792L59.03 162.433L54.94 158.788Z" fill="black"/>
</g>
<path d="M29.7798 129.584C29.7798 129.584 26.2598 142.817 27.6498 171.391L28.5498 203.746C28.5498 203.746 23.4898 226.468 33.1998 267.603C33.1998 267.603 36.1998 273.692 48.2898 266.076L49.6898 203.319L62.3398 134.001L29.7798 129.584Z" stroke="#263238" stroke-linecap="round" stroke-linejoin="round"/>
<path d="M31.76 210.766C31.2221 211.412 30.7247 212.086 30.27 212.783" stroke="#263238" stroke-linecap="round" stroke-linejoin="round"/>
<path d="M32.3901 203.637C32.3901 203.637 43.9901 201.12 44.7801 203.637C45.4601 205.828 39.1901 203.256 33.0001 209.4" stroke="#263238" stroke-linecap="round" stroke-linejoin="round"/>
<path d="M52.4999 163.329C61.4999 176.535 74.1699 202.519 74.1699 202.519C74.1699 202.519 72.2599 205.527 74.1699 210.571C74.1699 210.571 69.1699 228.121 76.4199 270.083C76.4199 270.083 82.6599 273.719 91.6799 267.357C91.6799 267.357 96.1799 204.282 94.4499 195.775C92.7199 187.268 76.4499 131.083 76.4499 131.083H40.6899" fill="#999999"/>
<mask id="mask2_343_751" style="mask-type:luminance" maskUnits="userSpaceOnUse" x="40" y="131" width="55" height="141">
<path d="M52.4999 163.329C61.4999 176.535 74.1699 202.519 74.1699 202.519C74.1699 202.519 72.2599 205.527 74.1699 210.571C74.1699 210.571 69.1699 228.121 76.4199 270.083C76.4199 270.083 82.6599 273.719 91.6799 267.357C91.6799 267.357 96.1799 204.282 94.4499 195.775C92.7199 187.268 76.4499 131.083 76.4499 131.083H40.6899" fill="white"/>
</mask>
<g mask="url(#mask2_343_751)">
<path opacity="0.2" d="M50.4697 164.247C50.4697 164.247 55.9197 166.765 66.3697 164.247C76.8197 161.73 68.1597 172.427 71.6197 184.096C75.0797 195.766 84.7997 201.119 83.2397 206.154C81.6797 211.189 77.0597 212.462 76.0697 226.013C75.0797 239.564 88.1597 264.594 83.0097 269.72C77.8597 274.846 65.3797 262.721 65.3797 262.721L54.9397 198.474L50.4697 164.247Z" fill="black"/>
</g>
<path d="M52.4999 163.329C61.4999 176.535 74.1699 202.519 74.1699 202.519C74.1699 202.519 72.2599 205.527 74.1699 210.571C74.1699 210.571 69.1699 228.121 76.4199 270.083C76.4199 270.083 82.6599 273.719 91.6799 267.357C91.6799 267.357 96.1799 204.282 94.4499 195.775C92.7199 187.268 76.4499 131.083 76.4499 131.083H40.6899" stroke="#263238" stroke-linecap="round" stroke-linejoin="round"/>
<path d="M80.7901 204.749C84.9001 204.185 90.1501 203.84 89.9401 205.53C89.6001 208.366 82.2701 205.485 77.8101 210.256" stroke="#263238" stroke-linecap="round" stroke-linejoin="round"/>
<path d="M76.0698 205.531C76.0698 205.531 76.7898 205.385 77.8998 205.194" stroke="#263238" stroke-linecap="round" stroke-linejoin="round"/>
<path d="M104.69 41.8969L105.34 35.8984C105.34 35.8984 104.04 29.6546 104.69 27.537C105.34 25.4193 111.04 11.9955 112.85 12.5863C114.66 13.1771 110.13 20.4752 110.26 22.5837C110.26 22.5837 112.67 22.7018 113.26 24.1106C113.26 24.1106 115.55 24.465 115.68 26.3464C116.239 26.6706 116.691 27.1269 116.986 27.6664C117.282 28.2058 117.411 28.8082 117.36 29.4092C117.11 31.4087 112.7 36.8254 112.7 36.8254L112.96 44.5962L104.69 41.8969Z" fill="white" stroke="#263238" stroke-linecap="round" stroke-linejoin="round"/>
<path d="M66.3501 31.7652C66.3501 31.7652 63.8001 27.2209 63.4301 25.5123C63.1601 24.3217 63.7001 21.8769 63.4301 20.6772C62.8101 17.9052 58.5401 10.2799 58.5401 10.2799C58.3688 9.95211 58.107 9.6703 57.7801 9.46191L55.2801 12.2612H48.5001L38.1401 24.6943L43.2401 35.8551L41.7501 37.4637C42.6601 38.2817 43.2401 38.7543 43.2401 38.7543L41.7501 46.8522L56.3501 48.1973L56.6901 43.0623H61.1301C61.7295 43.0623 62.3044 42.8459 62.7282 42.4607C63.152 42.0754 63.3901 41.553 63.3901 41.0083V33.9737L65.3901 33.4466C65.5832 33.4059 65.7642 33.3277 65.9207 33.2173C66.0772 33.1069 66.2055 32.9669 66.2968 32.8071C66.3881 32.6473 66.4401 32.4714 66.4493 32.2915C66.4585 32.1116 66.4247 31.9321 66.3501 31.7652Z" fill="white" stroke="#263238" stroke-linecap="round" stroke-linejoin="round"/>
<path d="M31.0399 27.7203C36.9199 35.591 43.2399 38.7538 43.2399 38.7538L45.7299 33.128C45.7299 33.128 40.7299 32.6463 41.4799 28.2293C42.6499 21.7128 48.4799 27.5749 48.4799 27.5749L49.7399 22.5398C49.7399 22.5398 52.8499 19.5043 52.6299 18.4409C52.4634 17.6686 52.2429 16.9066 51.9699 16.1597C51.9699 16.1597 63.2199 6.42586 62.0299 1C62.0299 1 52.6599 2.72682 41.4799 4.63542C27.8699 6.8712 24.3999 18.8499 31.0399 27.7203Z" fill="#263238" stroke="#263238" stroke-linecap="round" stroke-linejoin="round"/>
<path d="M61.1699 43.0617C61.1699 43.0617 53.3399 41.853 50.3499 38.5175C47.3599 35.182 49.7399 38.7538 51.1399 40.7987C54.1399 45.1703 56.6899 43.0617 61.1699 43.0617Z" fill="#263238"/>
<path d="M56.3501 32.8262C56.8902 33.3819 57.5716 33.8091 58.3351 34.0705C59.0986 34.3319 59.9208 34.4196 60.7301 34.3258" stroke="#263238" stroke-width="0.75" stroke-linecap="round" stroke-linejoin="round"/>
<path d="M62.0499 24.1325C62.0499 24.7687 61.7899 25.2776 61.4599 25.2776C61.1299 25.2776 60.8799 24.7687 60.8799 24.1325C60.8799 23.4963 61.1399 22.9873 61.4599 22.9873C61.7799 22.9873 62.0499 23.5053 62.0499 24.1325Z" fill="#263238"/>
<path d="M61.9399 20.7858C61.1301 20.6244 60.2836 20.7294 59.551 21.0823C58.8185 21.4351 58.2476 22.0129 57.9399 22.7126" stroke="#263238" stroke-width="0.75" stroke-linecap="round" stroke-linejoin="round"/>
<path d="M34.1201 50.3878C34.1201 50.3878 34.1201 44.1712 45.9101 45.1346C60.2401 46.3161 66.0201 52.9871 66.0201 52.9871L34.1201 50.3878Z" fill="#727C72" stroke="#263238" stroke-linecap="round" stroke-linejoin="round"/>
<path d="M57.2399 49.2678C66.1699 50.1766 81.7399 52.1307 80.8099 73.9523C79.8799 95.7739 76.4199 131.065 76.4199 131.065C76.4199 131.065 31.7599 148.406 26.6899 132.319C26.6899 132.319 29.0099 114.142 21.6099 85.8492C14.2099 57.5565 17.5599 45.3324 57.2399 49.2678Z" fill="#263238"/>
<mask id="mask3_343_751" style="mask-type:luminance" maskUnits="userSpaceOnUse" x="18" y="48" width="63" height="92">
<path d="M57.2399 49.2678C66.1699 50.1766 81.7399 52.1307 80.8099 73.9523C79.8799 95.7739 76.4199 131.065 76.4199 131.065C76.4199 131.065 31.7599 148.406 26.6899 132.319C26.6899 132.319 29.0099 114.142 21.6099 85.8492C14.2099 57.5565 17.5599 45.3324 57.2399 49.2678Z" fill="white"/>
</mask>
<g mask="url(#mask3_343_751)">
<path opacity="0.2" d="M83.0701 110.472C83.0701 110.472 77.2401 111.745 59.3801 102.911C31.3801 89.0326 28.2401 68.6651 20.3801 72.0097C12.5201 75.3543 28.1501 141.037 28.1501 141.037L57.1501 142.691H84.0301L83.0701 110.472Z" fill="black"/>
</g>
<path d="M57.2399 49.2678C66.1699 50.1766 81.7399 52.1307 80.8099 73.9523C79.8799 95.7739 76.4199 131.065 76.4199 131.065C76.4199 131.065 31.7599 148.406 26.6899 132.319C26.6899 132.319 29.0099 114.142 21.6099 85.8492C14.2099 57.5565 17.5599 45.3324 57.2399 49.2678Z" stroke="#263238" stroke-linecap="round" stroke-linejoin="round"/>
<path d="M5.69009 101.41C5.19009 101.519 4.6601 101.656 4.1001 101.819" stroke="#7F7F7F" stroke-width="0.75" stroke-linecap="round" stroke-linejoin="round"/>
<path d="M13.0698 101.818C13.0698 101.818 11.1898 100.6 7.06982 101.164" stroke="#7F7F7F" stroke-width="0.75" stroke-linecap="round" stroke-linejoin="round"/>
<path d="M60.6899 49.6711C60.6899 49.6711 76.1599 49.7619 83.0899 53.5428C83.0899 53.5428 95.3399 51.6524 100.2 53.5428L104.59 38.6285C104.59 38.6285 110.37 36.1019 113.14 39.8827C113.14 39.8827 115.22 62.6041 111.76 64.4672C108.3 66.3304 80.8199 72.0289 80.8199 72.0289C80.8199 72.0289 63.2699 67.2301 60.6899 49.6711Z" fill="#263238"/>
<mask id="mask4_343_751" style="mask-type:luminance" maskUnits="userSpaceOnUse" x="60" y="37" width="54" height="36">
<path d="M60.6899 49.6711C60.6899 49.6711 76.1599 49.7619 83.0899 53.5428C83.0899 53.5428 95.3399 51.6524 100.2 53.5428L104.59 38.6285C104.59 38.6285 110.37 36.1019 113.14 39.8827C113.14 39.8827 115.22 62.6041 111.76 64.4672C108.3 66.3304 80.8199 72.0289 80.8199 72.0289C80.8199 72.0289 63.2699 67.2301 60.6899 49.6711Z" fill="white"/>
</mask>
<g mask="url(#mask4_343_751)">
<path opacity="0.2" d="M80.69 68.1753C80.69 68.1753 79.88 62.3314 91.69 63.0857C103.5 63.8401 112.69 64.0491 113.86 59.005C115.03 53.9608 127.98 45.2358 123.86 61.568L119.69 77.9273L94.85 79.4178L80.69 68.1753Z" fill="black"/>
</g>
<path d="M60.6899 49.6711C60.6899 49.6711 76.1599 49.7619 83.0899 53.5428C83.0899 53.5428 95.3399 51.6524 100.2 53.5428L104.59 38.6285C104.59 38.6285 110.37 36.1019 113.14 39.8827C113.14 39.8827 115.22 62.6041 111.76 64.4672C108.3 66.3304 80.8199 72.0289 80.8199 72.0289C80.8199 72.0289 63.2699 67.2301 60.6899 49.6711Z" stroke="#263238" stroke-linecap="round" stroke-linejoin="round"/>
<path d="M103.07 54.6572C104.405 55.6474 105.554 56.8293 106.47 58.1563" stroke="#7F7F7F" stroke-width="0.75" stroke-linecap="round" stroke-linejoin="round"/>
<path d="M100.57 53.6856C100.946 53.6842 101.319 53.7587 101.66 53.9037" stroke="#7F7F7F" stroke-width="0.75" stroke-linecap="round" stroke-linejoin="round"/>
<path d="M21.28 79.4134C20.74 74.7055 19.28 66.0623 19.85 60.082" stroke="#7F7F7F" stroke-width="0.75" stroke-linecap="round" stroke-linejoin="round"/>
<path d="M17.1899 68.1729C17.1899 68.1729 19.8899 82.7145 21.1899 82.7145" stroke="#7F7F7F" stroke-width="0.75" stroke-linecap="round" stroke-linejoin="round"/>
<path d="M26.8999 122.177V130.338" stroke="#7F7F7F" stroke-width="0.75" stroke-linecap="round" stroke-linejoin="round"/>
<path d="M42.1401 142.709C42.1401 142.709 43.5901 151.934 48.0501 157.632L42.1401 142.709Z" fill="#999999"/>
<path d="M42.1401 142.709C42.1401 142.709 43.5901 151.934 48.0501 157.632" stroke="#263238" stroke-linecap="round" stroke-linejoin="round"/>
<path d="M103.33 36.9106L102.33 40.2915C102.33 40.2915 109.09 38.8373 115.07 41.7548L114.46 37.8013C114.46 37.8013 110.59 35.1747 103.33 36.9106Z" fill="#727C72" stroke="#263238" stroke-linecap="round" stroke-linejoin="round"/>
<path d="M66.3999 124.066C61.5299 126.03 51.8699 127.756 32.8999 126.057" stroke="#7F7F7F" stroke-width="0.75" stroke-linecap="round" stroke-linejoin="round"/>
<path d="M71.2799 120.453C70.8651 121.288 70.1997 122 69.3599 122.507" stroke="#7F7F7F" stroke-width="0.75" stroke-linecap="round" stroke-linejoin="round"/>
<path d="M84.6899 53.9688L92.5799 58.404" stroke="#7F7F7F" stroke-width="0.75" stroke-linecap="round" stroke-linejoin="round"/>
<path d="M72.3701 91.2969C77.4135 85.9022 80.55 79.2507 81.3701 72.2109" stroke="#7F7F7F" stroke-width="0.75" stroke-linecap="round" stroke-linejoin="round"/>
<path d="M67.7701 89.9746C61.3588 96.7043 53.3511 102.024 44.3501 105.534" stroke="#7F7F7F" stroke-width="0.75" stroke-linecap="round" stroke-linejoin="round"/>
<path d="M71.6898 85.3604C70.9398 86.3419 70.1498 87.2962 69.3198 88.2323" stroke="#7F7F7F" stroke-width="0.75" stroke-linecap="round" stroke-linejoin="round"/>
<path d="M74.0999 82.0693C73.7199 82.651 73.3199 83.2145 72.9199 83.778" stroke="#7F7F7F" stroke-width="0.75" stroke-linecap="round" stroke-linejoin="round"/>
<path d="M30.8701 116.679C40.9906 120.882 52.2492 122.282 63.2401 120.705" stroke="#7F7F7F" stroke-width="0.75" stroke-linecap="round" stroke-linejoin="round"/>
<path d="M57.9399 3.81797C58.9729 3.40918 59.9579 2.90677 60.8799 2.31836" stroke="#7F7F7F" stroke-width="0.75" stroke-linecap="round" stroke-linejoin="round"/>
<path d="M33.5799 25.2753C33.5799 25.2753 28.0299 16.0232 34.4399 10.979C39.3299 7.14367 48.0499 6.78013 55.0299 4.79883" stroke="#7F7F7F" stroke-width="0.75" stroke-linecap="round" stroke-linejoin="round"/>
<path d="M38.2502 18.7063C37.9384 17.8653 37.8873 16.9625 38.1025 16.0968C38.3177 15.2311 38.7909 14.436 39.4702 13.7985C43.2802 10.5084 54.4002 10.1631 59.9402 5.15527" stroke="#7F7F7F" stroke-width="0.75" stroke-linecap="round" stroke-linejoin="round"/>
<path d="M40.51 22.9837C40.0507 22.4083 39.6427 21.8005 39.29 21.166" stroke="#7F7F7F" stroke-width="0.75" stroke-linecap="round" stroke-linejoin="round"/>
</svg>
