<svg width="40" height="40" viewBox="0 0 40 40" fill="none" xmlns="http://www.w3.org/2000/svg">
<g clip-path="url(#clip0_321_273)">
<path d="M15 27.0835C14.4167 27.0835 13.9236 26.8821 13.5208 26.4793C13.1181 26.0766 12.9167 25.5835 12.9167 25.0002C12.9167 24.4168 13.1181 23.9238 13.5208 23.521C13.9236 23.1182 14.4167 22.9168 15 22.9168C15.5833 22.9168 16.0764 23.1182 16.4792 23.521C16.8819 23.9238 17.0833 24.4168 17.0833 25.0002C17.0833 25.5835 16.8819 26.0766 16.4792 26.4793C16.0764 26.8821 15.5833 27.0835 15 27.0835ZM25 27.0835C24.4167 27.0835 23.9236 26.8821 23.5208 26.4793C23.1181 26.0766 22.9167 25.5835 22.9167 25.0002C22.9167 24.4168 23.1181 23.9238 23.5208 23.521C23.9236 23.1182 24.4167 22.9168 25 22.9168C25.5833 22.9168 26.0764 23.1182 26.4792 23.521C26.8819 23.9238 27.0833 24.4168 27.0833 25.0002C27.0833 25.5835 26.8819 26.0766 26.4792 26.4793C26.0764 26.8821 25.5833 27.0835 25 27.0835ZM20 36.6668C23.7222 36.6668 26.875 35.3752 29.4583 32.7918C32.0417 30.2085 33.3333 27.0557 33.3333 23.3335C33.3333 22.6668 33.2917 22.021 33.2083 21.396C33.125 20.771 32.9722 20.1668 32.75 19.5835C32.1667 19.7224 31.5833 19.8266 31 19.896C30.4167 19.9654 29.8056 20.0002 29.1667 20.0002C26.6389 20.0002 24.25 19.4585 22 18.3752C19.75 17.2918 17.8333 15.7779 16.25 13.8335C15.3611 16.0002 14.0903 17.8821 12.4375 19.4793C10.7847 21.0766 8.86111 22.2779 6.66667 23.0835V23.3335C6.66667 27.0557 7.95833 30.2085 10.5417 32.7918C13.125 35.3752 16.2778 36.6668 20 36.6668ZM17.75 10.2085C18.9167 12.1529 20.5 13.7154 22.5 14.896C24.5 16.0766 26.7222 16.6668 29.1667 16.6668C29.5556 16.6668 29.9306 16.646 30.2917 16.6043C30.6528 16.5627 31.0278 16.5141 31.4167 16.4585C30.25 14.5141 28.6667 12.9516 26.6667 11.771C24.6667 10.5904 22.4444 10.0002 20 10.0002C19.6111 10.0002 19.2361 10.021 18.875 10.0627C18.5139 10.1043 18.1389 10.1529 17.75 10.2085ZM7.375 19.1252C8.79167 18.3196 10.0278 17.2779 11.0833 16.0002C12.1389 14.7224 12.9306 13.2918 13.4583 11.7085C12.0417 12.5141 10.8056 13.5557 9.75 14.8335C8.69444 16.1113 7.90278 17.5418 7.375 19.1252ZM5.29167 15.5418C6.06944 14.0696 7.04861 12.7432 8.22917 11.5627C9.40972 10.3821 10.7361 9.40294 12.2083 8.62516C11.7361 8.04183 11.1667 7.56961 10.5 7.2085C9.83333 6.84739 9.09722 6.66683 8.29167 6.66683C6.90278 6.66683 5.72917 7.146 4.77083 8.10433C3.8125 9.06266 3.33333 10.2363 3.33333 11.6252C3.33333 12.4307 3.51389 13.1668 3.875 13.8335C4.23611 14.5002 4.70833 15.0696 5.29167 15.5418ZM20 40.0002C17.6944 40.0002 15.5278 39.5627 13.5 38.6877C11.4722 37.8127 9.70833 36.6252 8.20833 35.1252C6.70833 33.6252 5.52083 31.8613 4.64583 29.8335C3.77083 27.8057 3.33333 25.6391 3.33333 23.3335C3.33333 22.5279 3.38889 21.7293 3.5 20.9377C3.61111 20.146 3.77778 19.3891 4 18.6668C2.80556 17.9446 1.84028 16.9654 1.10417 15.7293C0.368056 14.4932 0 13.1252 0 11.6252C0 9.31961 0.805556 7.36127 2.41667 5.75016C4.02778 4.13905 5.98611 3.3335 8.29167 3.3335C9.76389 3.3335 11.1181 3.68766 12.3542 4.396C13.5903 5.10433 14.5833 6.0835 15.3333 7.3335C16.0556 7.11127 16.8125 6.94461 17.6042 6.8335C18.3958 6.72239 19.1944 6.66683 20 6.66683C22.3056 6.66683 24.4722 7.10433 26.5 7.97933C28.5278 8.85433 30.2917 10.0418 31.7917 11.5418C33.2917 13.0418 34.4792 14.8057 35.3542 16.8335C36.2292 18.8613 36.6667 21.0279 36.6667 23.3335C36.6667 25.6391 36.2292 27.8057 35.3542 29.8335C34.4792 31.8613 33.2917 33.6252 31.7917 35.1252C30.2917 36.6252 28.5278 37.8127 26.5 38.6877C24.4722 39.5627 22.3056 40.0002 20 40.0002Z" fill="#0C0B0B"/>
</g>
<defs>
<clipPath id="clip0_321_273">
<rect width="40" height="40" fill="white"/>
</clipPath>
</defs>
</svg>
