<svg width="152" height="129" viewBox="0 0 152 129" fill="none" xmlns="http://www.w3.org/2000/svg">
<g clip-path="url(#clip0_343_916)">
<path d="M121.553 86.1274C134.306 62.1133 125.176 32.3081 101.162 19.5557C77.1479 6.80325 47.3427 15.9327 34.5903 39.9468C21.8379 63.9609 30.9673 93.7661 54.9814 106.519C78.9956 119.271 108.801 110.142 121.553 86.1274Z" fill="white" stroke="#263238" stroke-linecap="round" stroke-linejoin="round"/>
<path d="M78.0701 112.25C88.8296 112.272 99.296 108.744 107.846 102.212C96.3068 97.929 84.1053 95.704 71.7968 95.6387C62.9802 95.7064 54.2409 97.2905 45.9614 100.322C54.8842 108.025 66.2819 112.259 78.0701 112.25Z" fill="#727C72" stroke="#263238" stroke-linecap="round" stroke-linejoin="round"/>
<path d="M64.8167 84.983C64.8167 84.983 64.3926 68.9375 59.8865 57.2038C55.3803 45.4701 52.818 28.1346 70.0121 25.7314C87.2062 23.3281 94.0096 26.1731 103.853 25.3956C122.761 23.9289 101.926 45.6468 101.926 45.6468L76.6035 55.5604C76.6035 55.5604 67.8208 85.7605 64.8167 84.983Z" fill="#263238" stroke="#263238" stroke-linecap="round" stroke-linejoin="round"/>
<mask id="mask0_343_916" style="mask-type:luminance" maskUnits="userSpaceOnUse" x="51" y="71" width="44" height="38">
<path d="M63.6682 89.6476L68.139 71.4639L80.5089 75.2102L84.2375 90.0187C84.586 91.4357 85.2415 92.7589 86.1575 93.8948C87.0735 95.0307 88.2279 95.9515 89.5389 96.5924C91.4042 97.4587 93.1799 98.5064 94.8402 99.7202C94.8402 99.7202 80.1024 118.611 51.8108 99.7202C53.6829 98.3571 55.7119 97.2239 57.8544 96.345C59.2837 95.7675 60.5558 94.8594 61.5664 93.6952C62.577 92.531 63.2973 91.1439 63.6682 89.6476Z" fill="white"/>
</mask>
<g mask="url(#mask0_343_916)">
<path d="M102.315 46.2118L103.941 57.0443C104.104 58.1879 104.007 59.3535 103.658 60.4548L102.722 63.4059L103.269 70.4744C103.296 70.8391 103.296 71.2053 103.269 71.57C103.022 75.1043 101.273 92.4574 90.8995 93.2526C81.6575 93.9595 72.4331 84.417 69.1639 79.8932C68.3468 78.7653 67.7474 77.4948 67.3968 76.1469L66.0008 70.6511C64.6841 70.6422 63.4039 70.2168 62.3437 69.436C61.2835 68.6551 60.4976 67.5588 60.0985 66.304C58.7025 61.8685 56.3876 59.0058 60.8761 56.7969C65.3646 54.588 66.9196 60.8613 66.9196 60.8613C66.9196 60.8613 68.0859 53.563 69.3229 51.4778C70.5599 49.3926 74.3769 47.4134 75.5432 45.6286C76.2025 44.2119 76.7347 42.7394 77.1336 41.2285C77.1336 41.2285 90.7935 43.8615 101.166 41.7587L102.315 46.2118Z" fill="#263238" stroke="#263238" stroke-linecap="round" stroke-linejoin="round"/>
</g>
<path d="M63.6682 89.6476L68.139 71.4639L80.5089 75.2102L84.2375 90.0187C84.586 91.4357 85.2415 92.7589 86.1575 93.8948C87.0735 95.0307 88.2279 95.9515 89.5389 96.5924C91.4042 97.4587 93.1799 98.5064 94.8402 99.7202C94.8402 99.7202 80.1024 118.611 51.8108 99.7202C53.6829 98.3571 55.7119 97.2239 57.8544 96.345C59.2837 95.7675 60.5558 94.8594 61.5664 93.6952C62.577 92.531 63.2973 91.1439 63.6682 89.6476Z" stroke="#263238" stroke-linecap="round" stroke-linejoin="round"/>
<path d="M102.314 44.2856L103.94 55.1181C104.102 56.2618 104.005 57.4272 103.657 58.5286L102.721 61.4797L103.269 68.5482C103.295 68.9189 103.295 69.2909 103.269 69.6615C103.021 73.1958 101.272 90.5489 90.8987 91.3441C81.6567 92.051 72.4323 82.5085 69.1631 77.9847C68.3495 76.8547 67.7505 75.5849 67.396 74.2384L66 68.7426C64.6772 68.7411 63.3892 68.3192 62.3219 67.5378C61.2546 66.7564 60.4634 65.656 60.0624 64.3955C58.6664 59.96 56.3514 57.0973 60.8399 54.8884C65.3284 52.6795 66.9188 58.9174 66.9188 58.9174C66.9188 58.9174 68.0851 51.6192 69.3221 49.534C70.5591 47.4488 74.3761 45.4696 75.5424 43.6848C76.2017 42.268 76.7339 40.7956 77.1328 39.2847C77.1328 39.2847 90.7927 41.9177 101.166 39.8148L102.314 44.2856Z" fill="white" stroke="#263238" stroke-linecap="round" stroke-linejoin="round"/>
<path d="M94.9812 62.3638L98.374 70.5632C98.4976 70.8301 98.5526 71.1236 98.5341 71.4172C98.5155 71.7107 98.424 71.9949 98.2678 72.2442C98.1116 72.4934 97.8957 72.6997 97.6396 72.8443C97.3835 72.989 97.0954 73.0674 96.8013 73.0725L92.5779 73.3553" stroke="#263238" stroke-width="0.75" stroke-linecap="round" stroke-linejoin="round"/>
<path d="M84.467 76.4116C84.8063 77.1099 85.2948 77.7251 85.8979 78.2139C86.5011 78.7026 87.2043 79.0529 87.9577 79.24C88.7112 79.4271 89.4966 79.4464 90.2583 79.2966C91.02 79.1468 91.7396 78.8316 92.3661 78.3731" stroke="#263238" stroke-width="0.75" stroke-linecap="round" stroke-linejoin="round"/>
<path d="M84.3782 31.3509C66.0708 29.2657 62.6956 36.4932 62.6956 36.4932" stroke="#7F7F7F" stroke-width="0.75" stroke-linecap="round" stroke-linejoin="round"/>
<path d="M104.471 29.3535C99.2156 30.6674 93.8245 31.3613 88.4077 31.421" stroke="#7F7F7F" stroke-width="0.75" stroke-linecap="round" stroke-linejoin="round"/>
<path d="M87.9126 36.6159C93.1256 36.6159 103.658 35.644 107.863 30.8374" stroke="#7F7F7F" stroke-width="0.75" stroke-linecap="round" stroke-linejoin="round"/>
<path d="M80.208 35.7324C81.5593 36.0414 82.9285 36.2657 84.3077 36.4039" stroke="#7F7F7F" stroke-width="0.75" stroke-linecap="round" stroke-linejoin="round"/>
<path d="M87.6296 61.1789C87.6296 62.5926 87.0641 63.7236 86.3573 63.7236C85.6504 63.7236 85.085 62.5926 85.085 61.1789C85.085 59.7652 85.6681 58.6343 86.3573 58.6343C87.0465 58.6343 87.6296 59.7829 87.6296 61.1789Z" fill="#263238"/>
<path d="M99.611 60.8612C99.611 62.0806 99.1162 63.0702 98.5154 63.0702C97.9146 63.0702 97.4021 62.0806 97.4021 60.8612C97.4021 59.6419 97.8969 58.6523 98.5154 58.6523C99.1339 58.6523 99.611 59.6243 99.611 60.8612Z" fill="#263238"/>
<path d="M82.2048 57.433C82.2048 57.433 83.7245 52.8915 86.3576 53.0152C87.1701 53.0921 87.9493 53.3763 88.6207 53.8403C89.292 54.3044 89.8331 54.933 90.1922 55.6659" stroke="#263238" stroke-width="0.75" stroke-linecap="round" stroke-linejoin="round"/>
<path d="M100.442 55.5599C99.9472 54.3406 99.1874 52.9622 98.1801 53.0329C96.413 53.1389 95.5471 55.6836 95.5471 55.6836" stroke="#263238" stroke-width="0.75" stroke-linecap="round" stroke-linejoin="round"/>
</g>
<defs>
<clipPath id="clip0_343_916">
<rect width="150.205" height="129" fill="white" transform="translate(0.897217)"/>
</clipPath>
</defs>
</svg>
