<svg width="400" height="400" viewBox="0 0 400 400" fill="none" xmlns="http://www.w3.org/2000/svg">
<path d="M80.552 307.472C146.344 341.872 253.016 341.872 318.808 307.472C384.6 273.072 384.6 217.376 318.808 183.008C253.016 148.64 146.344 148.608 80.552 183.008C14.76 217.408 14.76 273.096 80.552 307.472Z" fill="#F5F5F5"/>
<path d="M116.896 149.368L132.752 140.216L116.896 131.064L100.896 140.216L116.896 149.368Z" stroke="#EBEBEB" stroke-width="1.08419" stroke-linecap="round" stroke-linejoin="round"/>
<path d="M104.584 140.224L116.904 104.616V147.336L104.584 140.224Z" fill="#E0E0E0"/>
<path d="M116.904 147.336L129.216 140.224L116.904 104.616V147.336Z" fill="#E6E6E6"/>
<path d="M97.52 160.536L113.376 151.384L97.52 142.232L81.52 151.384L97.52 160.536Z" stroke="#EBEBEB" stroke-width="1.08419" stroke-linecap="round" stroke-linejoin="round"/>
<path d="M85.208 151.392L97.52 98.512V158.504L85.208 151.392Z" fill="#E0E0E0"/>
<path d="M97.52 158.504L109.832 151.392L97.52 98.512V158.504Z" fill="#E6E6E6"/>
<path d="M78.144 171.704L94 162.552L78.144 153.4L62.136 162.552L78.144 171.704Z" stroke="#EBEBEB" stroke-width="1.08419" stroke-linecap="round" stroke-linejoin="round"/>
<path d="M65.832 162.56L78.144 131.064V169.672L65.832 162.56Z" fill="#E0E0E0"/>
<path d="M78.144 169.672L90.456 162.56L78.144 131.064V169.672Z" fill="#E6E6E6"/>
<path d="M58.768 182.872L74.624 173.72L58.768 164.568L42.76 173.72L58.768 182.872Z" stroke="#EBEBEB" stroke-width="1.08419" stroke-linecap="round" stroke-linejoin="round"/>
<path d="M46.448 173.728L58.768 120.256V180.84L46.448 173.728Z" fill="#E0E0E0"/>
<path d="M58.7681 180.84L71.0801 173.728L58.7681 120.256V180.84Z" fill="#E6E6E6"/>
<path d="M270.088 137.2L354.648 186.016" stroke="#EBEBEB" stroke-width="1.08419" stroke-miterlimit="10" stroke-linecap="round"/>
<path d="M354.648 180.84C354.546 174.712 354.116 168.594 353.36 162.512C352.56 155.904 350.96 144.752 344.6 141.072C338.24 137.392 335.84 144.048 334.92 147.32C333.72 151.568 327.488 148.88 326.624 141.88C325.76 134.88 325.192 112.576 317.72 108.28C310.248 103.984 307.84 114.344 306.992 117.24C305.32 122.928 300.416 121.36 298.816 117.592C297.216 113.824 292.848 112.904 291.2 118.208C289.552 123.512 288.536 129.6 283.2 126.472C278.512 123.728 280.664 118.728 276.096 116.352C272.48 114.48 270.8 123.408 270.8 132.44L354.648 180.84Z" fill="#E0E0E0"/>
<path d="M348.504 134.288C348.504 135.264 347.624 135.544 346.552 134.928L340.152 131.216C339.626 130.918 339.176 130.502 338.837 130.001C338.499 129.5 338.281 128.927 338.2 128.328C338.2 127.36 339.08 127.072 340.152 127.696L346.552 131.408C347.078 131.704 347.528 132.119 347.867 132.618C348.205 133.118 348.423 133.69 348.504 134.288Z" fill="#E6E6E6"/>
<path d="M322.232 102.904C322.232 103.88 321.36 104.16 320.28 103.544L313.88 99.8321C313.353 99.5353 312.902 99.1199 312.563 98.6186C312.224 98.1173 312.007 97.544 311.928 96.9441C311.928 95.9761 312.8 95.6881 313.88 96.3121L320.28 100.024C320.807 100.32 321.257 100.734 321.596 101.234C321.935 101.733 322.153 102.305 322.232 102.904Z" fill="#E6E6E6"/>
<path d="M301.424 108.68C301.424 109.656 300.552 109.936 299.48 109.32L293.08 105.608C292.553 105.311 292.102 104.896 291.763 104.394C291.424 103.893 291.207 103.32 291.128 102.72C291.128 101.752 292 101.464 293.08 102.088L299.48 105.8C300.005 106.097 300.453 106.512 300.791 107.011C301.128 107.511 301.345 108.082 301.424 108.68Z" fill="#E6E6E6"/>
<path d="M281.696 110.592C281.696 111.568 280.824 111.848 279.744 111.224L273.344 107.52C272.819 107.221 272.37 106.805 272.033 106.304C271.696 105.803 271.479 105.231 271.4 104.632C271.4 103.664 272.272 103.376 273.344 104L279.744 107.704C280.27 108.002 280.721 108.418 281.059 108.919C281.398 109.42 281.616 109.993 281.696 110.592Z" fill="#E6E6E6"/>
<path d="M266.568 129.992V77.104" stroke="#EBEBEB" stroke-width="1.08419" stroke-miterlimit="10" stroke-linecap="round"/>
<path d="M61.5999 246.976C61.5999 246.976 62.9119 235.232 59.2719 224.048C55.8479 213.472 48.9679 207.864 44.7999 206.184C36.9199 203.04 36.2159 211.72 42.1199 217.728C46.4479 222.144 56.8639 231.248 58.6559 246.688L61.5999 246.976Z" fill="#524D4D"/>
<path opacity="0.7" d="M61.5999 246.976C61.5999 246.976 62.9119 235.232 59.2719 224.048C55.8479 213.472 48.9679 207.864 44.7999 206.184C36.9199 203.04 36.2159 211.72 42.1199 217.728C46.4479 222.144 56.8639 231.248 58.6559 246.688L61.5999 246.976Z" fill="white"/>
<path d="M42.6719 208.608C47.4319 211.808 60.2239 221.048 60.6879 246.888" stroke="#FAFAFA" stroke-width="1.08419" stroke-miterlimit="10" stroke-linecap="round"/>
<path d="M58.2479 255C55.7999 243.16 50.7999 238.864 41.8639 234.288C38.0399 232.336 33.5599 230.16 31.9439 227.672C30.3279 225.184 31.1439 221.84 36.6479 221.912C46.7039 222.048 58.1599 234.168 59.6879 247.448L58.2479 255Z" fill="#524D4D"/>
<path opacity="0.8" d="M58.2479 255C55.7999 243.16 50.7999 238.864 41.8639 234.288C38.0399 232.336 33.5599 230.16 31.9439 227.672C30.3279 225.184 31.1439 221.84 36.6479 221.912C46.7039 222.048 58.1599 234.168 59.6879 247.448L58.2479 255Z" fill="white"/>
<path d="M35.7998 224.488C43.3918 225.52 55.3838 234.368 59.1918 250.088" stroke="#FAFAFA" stroke-width="1.08419" stroke-miterlimit="10" stroke-linecap="round"/>
<path d="M338.72 241.432C341.8 235.512 344.192 218.904 340.232 211.224C336.272 203.544 330.384 204.16 329.472 206.648C328.672 208.944 330.648 213.048 333.208 217.936C335.768 222.824 337.928 233.296 335.504 238.176L338.72 241.432Z" fill="#524D4D"/>
<path opacity="0.7" d="M338.72 241.432C341.8 235.512 344.192 218.904 340.232 211.224C336.272 203.544 330.384 204.16 329.472 206.648C328.672 208.944 330.648 213.048 333.208 217.936C335.768 222.824 337.928 233.296 335.504 238.176L338.72 241.432Z" fill="white"/>
<path d="M333.36 207.048C335.88 209.072 343.096 221.448 338.048 238.432" stroke="#FAFAFA" stroke-width="1.08419" stroke-miterlimit="10" stroke-linecap="round"/>
<path d="M337.744 247.704C335.888 243.992 331.824 237.848 334.592 233.632C337.36 229.416 340.256 233.144 342.48 230.392C344.704 227.64 342.16 223.192 344.08 220.792C347.792 216.072 350.48 221.552 353.392 220.832C355.496 220.312 357.84 215.648 363.896 216.216C369.952 216.784 369.648 221.584 366.952 223.84C364.256 226.096 361.056 228.344 363.136 231.728C364.976 234.728 365.928 240.272 359.632 242.424C353.616 244.48 356.592 247.088 355.632 250.032C354.672 252.976 348.992 255.768 342.952 253.496L337.744 247.704Z" fill="#524D4D"/>
<path opacity="0.8" d="M337.744 247.704C335.888 243.992 331.824 237.848 334.592 233.632C337.36 229.416 340.256 233.144 342.48 230.392C344.704 227.64 342.16 223.192 344.08 220.792C347.792 216.072 350.48 221.552 353.392 220.832C355.496 220.312 357.84 215.648 363.896 216.216C369.952 216.784 369.648 221.584 366.952 223.84C364.256 226.096 361.056 228.344 363.136 231.728C364.976 234.728 365.928 240.272 359.632 242.424C353.616 244.48 356.592 247.088 355.632 250.032C354.672 252.976 348.992 255.768 342.952 253.496L337.744 247.704Z" fill="white"/>
<path d="M364.728 218.936C358.168 220.696 342.456 233.464 341.128 249.488" stroke="#FAFAFA" stroke-width="1.08419" stroke-miterlimit="10" stroke-linecap="round"/>
<path d="M360 235.76C356.76 235.024 348.528 234.92 345.448 236.416" stroke="#FAFAFA" stroke-width="1.08419" stroke-miterlimit="10" stroke-linecap="round"/>
<path d="M347.28 222.2C347.28 222.2 349.68 226.848 349.336 230.76" stroke="#FAFAFA" stroke-width="1.08419" stroke-miterlimit="10" stroke-linecap="round"/>
<path d="M257.792 176.8C256.72 173.087 254.803 169.673 252.192 166.824C249.106 163.459 245.497 160.614 241.504 158.4C236.868 155.774 231.937 153.703 226.816 152.232C221.174 150.604 215.387 149.532 209.536 149.032C203.493 148.48 197.411 148.48 191.368 149.032C185.52 149.532 179.735 150.604 174.096 152.232C168.971 153.702 164.039 155.772 159.4 158.4C155.407 160.633 151.8 163.497 148.72 166.88C146.111 169.731 144.195 173.144 143.12 176.856C142.164 180.289 142.164 183.919 143.12 187.352C144.186 191.065 146.104 194.478 148.72 197.32C151.803 200.706 155.412 203.572 159.408 205.808C164.041 208.434 168.969 210.501 174.088 211.968C179.729 213.604 185.517 214.686 191.368 215.2C197.412 215.744 203.492 215.744 209.536 215.2C215.39 214.684 221.18 213.599 226.824 211.96C231.943 210.493 236.871 208.426 241.504 205.8C245.502 203.566 249.111 200.7 252.192 197.312C254.804 194.467 256.721 191.055 257.792 187.344C258.749 183.894 258.749 180.249 257.792 176.8Z" fill="#37474F"/>
<path d="M142.4 176.816H258.504V182.736L142.4 182.408V176.816Z" fill="#37474F"/>
<path d="M191.368 143.728L200.44 176.8L174.096 146.96C179.734 145.321 185.519 144.238 191.368 143.728Z" fill="#455A64"/>
<path d="M209.536 143.728L200.464 176.8L191.392 143.712C197.428 143.167 203.501 143.172 209.536 143.728Z" fill="#455A64"/>
<path d="M226.816 146.96L200.464 176.8L209.536 143.712C215.388 144.227 221.176 145.315 226.816 146.96Z" fill="#455A64"/>
<path d="M252.184 161.6C254.793 164.453 256.71 167.87 257.784 171.584L200.472 176.8L252.184 161.6Z" fill="#455A64"/>
<path d="M257.792 171.592C258.74 175.024 258.74 178.648 257.792 182.08L200.472 176.8L257.792 171.592Z" fill="#455A64"/>
<path d="M257.792 182.08C256.72 185.793 254.803 189.207 252.192 192.056L200.472 176.856L257.792 182.08Z" fill="#455A64"/>
<path d="M252.192 192.056C249.11 195.441 245.501 198.305 241.504 200.536L200.456 176.8L252.192 192.056Z" fill="#455A64"/>
<path d="M200.464 176.84L226.824 206.704C221.18 208.333 215.389 209.405 209.536 209.904L200.456 176.816L200.464 176.84Z" fill="#455A64"/>
<path d="M200.456 176.848L209.536 209.936C203.493 210.488 197.411 210.488 191.368 209.936L200.456 176.848Z" fill="#455A64"/>
<path d="M200.44 176.84L191.352 209.928C185.499 209.429 179.708 208.357 174.064 206.728L200.44 176.84Z" fill="#455A64"/>
<path d="M200.44 176.84L174.04 206.704C168.922 205.231 163.994 203.161 159.36 200.536L200.44 176.84Z" fill="#455A64"/>
<path d="M200.432 176.8L148.712 192C146.097 189.154 144.18 185.739 143.112 182.024L200.432 176.8Z" fill="#455A64"/>
<path d="M200.432 176.8L143.12 182.08C142.164 178.649 142.164 175.023 143.12 171.592L200.432 176.8Z" fill="#455A64"/>
<path d="M200.432 176.8L143.12 171.56C144.197 167.847 146.113 164.431 148.72 161.576L200.432 176.8Z" fill="#455A64"/>
<path d="M159.4 153.136L200.432 176.8L148.72 161.6C151.801 158.223 155.408 155.364 159.4 153.136Z" fill="#455A64"/>
<path d="M241.504 153.136L200.464 176.8L226.816 146.944C231.94 148.419 236.87 150.498 241.504 153.136Z" fill="#455A64"/>
<path d="M241.504 153.136C245.497 155.362 249.104 158.221 252.184 161.6L200.472 176.8L241.504 153.136Z" fill="#455A64"/>
<path d="M200.44 176.8L159.384 200.504C155.388 198.271 151.779 195.407 148.696 192.024L200.416 176.824L200.44 176.8Z" fill="#455A64"/>
<path d="M174.096 146.96L200.44 176.8L159.4 153.104C164.038 150.481 168.971 148.419 174.096 146.96Z" fill="#455A64"/>
<path d="M200.464 176.84L241.504 200.536C236.87 203.161 231.943 205.231 226.824 206.704L200.464 176.84Z" fill="#455A64"/>
<path d="M165.344 143.424L197.944 162.24L196.344 135.64C184.352 136.152 174.168 138.712 165.344 143.424Z" fill="#524D4D"/>
<path opacity="0.2" d="M165.344 143.424L197.944 162.24L196.344 135.64C184.352 136.152 174.168 138.712 165.344 143.424Z" fill="white"/>
<path d="M197.944 162.24V172.512L165.344 153.688V143.424L197.944 162.24Z" fill="#524D4D"/>
<path opacity="0.1" d="M197.944 162.24V172.512L165.344 153.688V143.424L197.944 162.24Z" fill="black"/>
<path d="M240.208 146.064L202.792 162.944V173.208L240.208 156.328V146.064Z" fill="#524D4D"/>
<path opacity="0.3" d="M240.208 146.064L202.792 162.944V173.208L240.208 156.328V146.064Z" fill="black"/>
<path d="M240.208 146.064C230.136 139.208 216.704 135.592 201.136 135.544L202.136 152.176L202.792 162.944L240.208 146.064Z" fill="#524D4D"/>
<path opacity="0.1" d="M240.208 146.064C230.136 139.208 216.704 135.592 201.136 135.544L202.136 152.176L202.792 162.944L240.208 146.064Z" fill="black"/>
<path d="M201.128 135.544V145.808L202.792 173.208V162.944L201.128 135.544Z" fill="#263238"/>
<path d="M210.4 182.712L229.528 201.112C230.6 200.704 231.592 200.312 232.728 199.768C245.904 193.832 252.792 184.936 252.784 175.96V165.8C251.336 161.936 247.352 161.944 243.184 158.544L204.12 176.144L203.728 176.32L210.4 182.712Z" fill="#524D4D"/>
<path opacity="0.6" d="M210.4 182.712L229.528 201.112C230.6 200.704 231.592 200.312 232.728 199.768C245.904 193.832 252.792 184.936 252.784 175.96V165.8C251.336 161.936 247.352 161.944 243.184 158.544L204.12 176.144L203.728 176.32L210.4 182.712Z" fill="white"/>
<path d="M210.4 172.448L229.528 190.848C230.6 190.44 231.592 190.048 232.728 189.496C254.784 179.536 259.2 161.296 243.2 148.248L204.136 165.848L203.744 166.024L210.4 172.448Z" fill="#524D4D"/>
<path opacity="0.8" d="M210.4 172.448L229.528 190.848C230.6 190.44 231.592 190.048 232.728 189.496C254.784 179.536 259.2 161.296 243.2 148.248L204.136 165.848L203.744 166.024L210.4 172.448Z" fill="white"/>
<path d="M229.496 201.096V190.824L203.704 166.048V176.312L229.496 201.096Z" fill="#524D4D"/>
<path opacity="0.6" d="M229.496 201.096V190.824L203.704 166.048V176.312L229.496 201.096Z" fill="white"/>
<path d="M161.952 155.648C156.456 159.112 150.352 161.296 148.128 165.504V175.776C148.128 181.128 150.616 186.552 155.776 191.512C162.976 198.416 174.376 203.296 187.92 205.24C200.454 207.09 213.242 206.159 225.376 202.512V192.248L208.536 186.328L198.648 176.8L161.952 155.648Z" fill="#524D4D"/>
<path opacity="0.6" d="M161.952 155.648C156.456 159.112 150.352 161.296 148.128 165.504V175.776C148.128 181.128 150.616 186.552 155.776 191.512C162.976 198.416 174.376 203.296 187.92 205.24C200.454 207.09 213.242 206.159 225.376 202.512V192.248L208.536 186.328L198.648 176.8L161.952 155.648Z" fill="black"/>
<path d="M161.952 145.384C146.16 155.32 143.616 169.56 155.776 181.24C162.976 188.152 174.376 193.024 187.92 194.976C200.454 196.822 213.241 195.891 225.376 192.248L208.536 176.064L198.648 166.568L161.952 145.384Z" fill="#524D4D"/>
<path opacity="0.3" d="M161.952 145.384C146.16 155.32 143.616 169.56 155.776 181.24C162.976 188.152 174.376 193.024 187.92 194.976C200.454 196.822 213.241 195.891 225.376 192.248L208.536 176.064L198.648 166.568L161.952 145.384Z" fill="black"/>
<path d="M345.192 257.32C344.12 253.607 342.203 250.193 339.592 247.344C336.513 243.96 332.906 241.096 328.912 238.864C324.275 236.238 319.345 234.167 314.224 232.696C308.582 231.068 302.795 229.996 296.944 229.496C290.9 228.944 284.819 228.944 278.776 229.496C272.928 229.997 267.143 231.068 261.504 232.696C256.382 234.167 251.452 236.238 246.816 238.864C242.819 241.095 239.209 243.959 236.128 247.344C233.519 250.195 231.603 253.608 230.528 257.32C229.572 260.753 229.572 264.383 230.528 267.816C231.594 271.529 233.512 274.942 236.128 277.784C239.211 281.17 242.82 284.036 246.816 286.272C251.45 288.895 256.378 290.962 261.496 292.432C267.141 294.057 272.931 295.128 278.784 295.632C284.828 296.176 290.908 296.176 296.952 295.632C302.805 295.129 308.595 294.057 314.24 292.432C319.361 290.966 324.289 288.896 328.92 286.264C332.92 284.034 336.532 281.17 339.616 277.784C342.226 274.938 344.143 271.526 345.216 267.816C346.16 264.38 346.152 260.752 345.192 257.32Z" fill="#37474F"/>
<path d="M229.8 257.312H345.904V263.232L229.8 262.904V257.312Z" fill="#37474F"/>
<path d="M278.768 224.224L287.848 257.312L261.496 227.456C267.134 225.817 272.919 224.735 278.768 224.224Z" fill="#455A64"/>
<path d="M296.936 224.224L287.864 257.312L278.784 224.224C284.822 223.673 290.898 223.673 296.936 224.224Z" fill="#455A64"/>
<path d="M314.216 227.456L287.864 257.312L296.936 224.224C302.788 224.734 308.575 225.817 314.216 227.456Z" fill="#455A64"/>
<path d="M339.584 242.104C342.195 244.956 344.112 248.373 345.184 252.088L287.872 257.328L339.584 242.104Z" fill="#455A64"/>
<path d="M345.192 252.088C346.144 255.519 346.144 259.145 345.192 262.576L287.88 257.328L345.192 252.088Z" fill="#455A64"/>
<path d="M345.192 262.576C344.118 266.288 342.201 269.702 339.592 272.552L287.872 257.352L345.192 262.576Z" fill="#455A64"/>
<path d="M339.6 272.552C336.512 275.933 332.9 278.796 328.904 281.032L287.856 257.328L339.6 272.552Z" fill="#455A64"/>
<path d="M287.864 257.336L314.224 287.2C308.579 288.825 302.789 289.897 296.936 290.4L287.856 257.312L287.864 257.336Z" fill="#455A64"/>
<path d="M287.856 257.344L296.936 290.4C290.892 290.948 284.812 290.948 278.768 290.4L287.856 257.344Z" fill="#455A64"/>
<path d="M287.848 257.336L278.768 290.4C272.915 289.896 267.125 288.824 261.48 287.2L287.848 257.336Z" fill="#455A64"/>
<path d="M287.848 257.336L261.448 287.2C256.331 285.724 251.404 283.654 246.768 281.032L287.848 257.336Z" fill="#455A64"/>
<path d="M287.832 257.328L236.112 272.528C233.497 269.682 231.58 266.266 230.512 262.552L287.832 257.328Z" fill="#455A64"/>
<path d="M287.832 257.328L230.52 262.576C229.564 259.145 229.564 255.519 230.52 252.088L287.832 257.328Z" fill="#455A64"/>
<path d="M287.832 257.32L230.52 252.08C231.595 248.366 233.511 244.949 236.12 242.096L287.832 257.32Z" fill="#455A64"/>
<path d="M246.808 233.6L287.832 257.288L236.12 242.088C239.201 238.7 242.81 235.833 246.808 233.6Z" fill="#455A64"/>
<path d="M328.904 233.6L287.864 257.288L314.216 227.432C319.339 228.9 324.269 230.97 328.904 233.6Z" fill="#455A64"/>
<path d="M328.904 233.6C332.898 235.829 336.505 238.69 339.584 242.072L287.88 257.272L328.904 233.6Z" fill="#455A64"/>
<path d="M287.848 257.32L246.8 281.032C242.806 278.796 239.197 275.933 236.112 272.552L287.832 257.352L287.848 257.32Z" fill="#455A64"/>
<path d="M261.496 227.456L287.848 257.312L246.808 233.6C251.444 230.979 256.375 228.916 261.496 227.456Z" fill="#455A64"/>
<path d="M287.864 257.336L328.904 281.032C324.27 283.657 319.342 285.727 314.224 287.2L287.864 257.336Z" fill="#455A64"/>
<path d="M236.712 244.328V260.952C236.291 259.433 236.076 257.864 236.072 256.288V244.328H236.712Z" fill="#524D4D"/>
<path opacity="0.3" d="M236.712 244.328V260.952C236.291 259.433 236.076 257.864 236.072 256.288V244.328H236.712Z" fill="black"/>
<path d="M287.832 244.344L236.712 249.016C235.864 245.956 235.864 242.724 236.712 239.664L287.832 244.344Z" fill="#524D4D"/>
<path d="M287.832 244.328L236.712 239.648C237.673 236.335 239.384 233.289 241.712 230.744L287.832 244.328Z" fill="#524D4D"/>
<path d="M251.24 223.2L287.832 244.328L241.712 230.728C244.463 227.723 247.68 225.181 251.24 223.2Z" fill="#524D4D"/>
<path d="M264.344 217.696L287.848 244.32L251.24 223.2C255.375 220.854 259.774 219.007 264.344 217.696Z" fill="#524D4D"/>
<path d="M279.752 214.816L287.848 244.32L264.344 217.696C269.373 216.233 274.534 215.268 279.752 214.816Z" fill="#524D4D"/>
<path d="M296 214.816L287.864 244.32L279.768 214.816C285.167 214.318 290.601 214.318 296 214.816Z" fill="#524D4D"/>
<path d="M311.368 217.696L287.864 244.32L296 214.816C301.205 215.271 306.352 216.236 311.368 217.696Z" fill="#524D4D"/>
<g opacity="0.2">
<path d="M287.832 244.344L236.712 249.016C235.864 245.956 235.864 242.724 236.712 239.664L287.832 244.344Z" fill="white"/>
<path d="M287.832 244.328L236.712 239.648C237.673 236.335 239.384 233.289 241.712 230.744L287.832 244.328Z" fill="white"/>
<path d="M251.24 223.2L287.832 244.328L241.712 230.728C244.463 227.723 247.68 225.181 251.24 223.2Z" fill="white"/>
<path d="M264.344 217.696L287.848 244.32L251.24 223.2C255.375 220.854 259.774 219.007 264.344 217.696Z" fill="white"/>
<path d="M279.752 214.816L287.848 244.32L264.344 217.696C269.373 216.233 274.534 215.268 279.752 214.816Z" fill="white"/>
<path d="M296 214.816L287.864 244.32L279.768 214.816C285.167 214.318 290.601 214.318 296 214.816Z" fill="white"/>
<path d="M311.368 217.696L287.864 244.32L296 214.816C301.205 215.271 306.352 216.236 311.368 217.696Z" fill="white"/>
</g>
<path d="M331.2 252.312L323.528 259.512L317.696 265.024L312.136 270.256L311.392 270.952V282.896C315.961 281.586 320.36 279.742 324.496 277.4C328.06 275.402 331.28 272.844 334.032 269.824C336.36 267.287 338.066 264.245 339.016 260.936C339.44 259.417 339.658 257.849 339.664 256.272V244.336L331.2 252.312Z" fill="#524D4D"/>
<path opacity="0.3" d="M331.2 252.312L323.528 259.512L317.696 265.024L312.136 270.256L311.392 270.952V282.896C315.961 281.586 320.36 279.742 324.496 277.4C328.06 275.402 331.28 272.844 334.032 269.824C336.36 267.287 338.066 264.245 339.016 260.936C339.44 259.417 339.658 257.849 339.664 256.272V244.336L331.2 252.312Z" fill="black"/>
<path d="M334 230.76C336.325 233.307 338.036 236.353 339 239.664L287.872 244.344L334 230.76Z" fill="#524D4D"/>
<path d="M339.64 244.352C339.634 245.931 339.416 247.503 338.992 249.024L323.504 247.6L287.872 244.336L331.176 240.336L338.992 239.624C339.42 241.164 339.638 242.754 339.64 244.352Z" fill="#524D4D"/>
<path d="M338.992 249.024C338.04 252.332 336.334 255.374 334.008 257.912L317.672 253.112L287.872 244.312L323.504 247.576L338.992 249.024Z" fill="#524D4D"/>
<path d="M334.008 257.912C331.255 260.932 328.036 263.49 324.472 265.488L312.112 258.336L287.88 244.352L317.68 253.152L334.008 257.912Z" fill="#524D4D"/>
<path d="M324.472 223.2L287.864 244.336L311.368 217.712C315.936 219.02 320.335 220.862 324.472 223.2Z" fill="#524D4D"/>
<path d="M324.472 223.2C328.033 225.193 331.25 227.746 334 230.76L287.872 244.36L324.472 223.2Z" fill="#524D4D"/>
<path d="M324.472 265.488C320.335 267.827 315.937 269.669 311.368 270.976L287.88 244.352L312.112 258.336L324.472 265.488Z" fill="#524D4D"/>
<g opacity="0.2">
<path d="M334 230.76C336.325 233.307 338.036 236.353 339 239.664L287.872 244.344L334 230.76Z" fill="white"/>
<path d="M339.64 244.352C339.634 245.931 339.416 247.502 338.992 249.024L323.504 247.6L287.872 244.336L331.176 240.336L338.992 239.624C339.42 241.163 339.638 242.754 339.64 244.352Z" fill="white"/>
<path d="M338.992 249.024C338.04 252.332 336.334 255.374 334.008 257.912L317.672 253.112L287.872 244.312L323.504 247.576L338.992 249.024Z" fill="white"/>
<path d="M334.008 257.912C331.256 260.931 328.036 263.489 324.472 265.488L312.112 258.336L287.88 244.352L317.68 253.152L334.008 257.912Z" fill="white"/>
<path d="M324.472 223.2L287.864 244.336L311.368 217.712C315.936 219.02 320.335 220.862 324.472 223.2Z" fill="white"/>
<path d="M324.472 223.2C328.033 225.193 331.25 227.746 334 230.76L287.872 244.36L324.472 223.2Z" fill="white"/>
<path d="M324.472 265.488C320.336 267.827 315.937 269.669 311.368 270.976L287.88 244.352L312.112 258.336L324.472 265.488Z" fill="white"/>
</g>
<path d="M311.376 270.984V282.928L287.848 256.272V244.32L311.376 270.984Z" fill="#263238"/>
<path d="M287.848 256.272L236.712 260.968V249.016L287.848 244.32V256.272Z" fill="#524D4D"/>
<path opacity="0.1" d="M287.848 256.272L236.712 260.968V249.016L287.848 244.32V256.272Z" fill="black"/>
<path d="M170.4 257.32C169.328 253.607 167.411 250.193 164.8 247.344C161.719 243.961 158.113 241.098 154.12 238.864C149.481 236.236 144.548 234.166 139.424 232.696C133.785 231.068 128 229.996 122.152 229.496C116.109 228.944 110.027 228.944 103.984 229.496C98.1333 229.997 92.3458 231.068 86.7039 232.696C81.5769 234.166 76.6414 236.237 71.9999 238.864C68.0057 241.096 64.3991 243.96 61.3199 247.344C58.7089 250.193 56.7923 253.607 55.7199 257.32C54.7717 260.754 54.7717 264.382 55.7199 267.816C56.7905 271.527 58.7074 274.939 61.3199 277.784C64.3984 281.171 68.0051 284.038 71.9999 286.272C76.6329 288.898 81.5606 290.965 86.6799 292.432C92.3251 294.057 98.1151 295.129 103.968 295.632C110.012 296.176 116.092 296.176 122.136 295.632C127.989 295.129 133.779 294.057 139.424 292.432C144.545 290.966 149.473 288.896 154.104 286.264C158.104 284.034 161.717 281.171 164.8 277.784C167.412 274.939 169.329 271.527 170.4 267.816C171.348 264.382 171.348 260.754 170.4 257.32Z" fill="#37474F"/>
<path d="M55 257.312H171.104V263.232L55 262.904V257.312Z" fill="#37474F"/>
<path d="M104 224.224L113.072 257.312L86.72 227.456C92.3607 225.817 98.1483 224.735 104 224.224Z" fill="#455A64"/>
<path d="M122.136 224.224L113.064 257.312L104 224.224C110.033 223.674 116.103 223.674 122.136 224.224Z" fill="#455A64"/>
<path d="M139.408 227.456L113.064 257.312L122.136 224.224C127.985 224.734 133.77 225.817 139.408 227.456Z" fill="#455A64"/>
<path d="M164.8 242.104C167.411 244.956 169.328 248.373 170.4 252.088L113.08 257.328L164.8 242.104Z" fill="#455A64"/>
<path d="M170.4 252.088C171.348 255.52 171.348 259.144 170.4 262.576L113.08 257.328L170.4 252.088Z" fill="#455A64"/>
<path d="M170.4 262.576C169.328 266.289 167.411 269.703 164.8 272.552L113.08 257.352L170.4 262.576Z" fill="#455A64"/>
<path d="M164.8 272.552C161.715 275.933 158.106 278.796 154.112 281.032L113.056 257.328L164.8 272.552Z" fill="#455A64"/>
<path d="M113.064 257.336L139.424 287.2C133.779 288.825 127.989 289.897 122.136 290.4L113.048 257.312L113.064 257.336Z" fill="#455A64"/>
<path d="M113.048 257.344L122.136 290.4C116.103 290.946 110.033 290.946 104 290.4L113.048 257.344Z" fill="#455A64"/>
<path d="M113.04 257.336L104 290.4C98.147 289.897 92.357 288.825 86.7119 287.2L113.04 257.336Z" fill="#455A64"/>
<path d="M113.04 257.336L86.64 287.2C81.5354 285.724 76.6217 283.654 72 281.032L113.04 257.336Z" fill="#455A64"/>
<path d="M113.032 257.328L61.3119 272.528C58.7007 269.679 56.784 266.265 55.7119 262.552L113.032 257.328Z" fill="#455A64"/>
<path d="M113.032 257.328L55.7119 262.576C54.764 259.144 54.764 255.52 55.7119 252.088L113.032 257.328Z" fill="#455A64"/>
<path d="M113.032 257.32L55.7119 252.08C56.7842 248.365 58.7008 244.948 61.3119 242.096L113.032 257.32Z" fill="#455A64"/>
<path d="M72.0001 233.6L113.032 257.288L61.3201 242.088C64.398 238.7 68.0048 235.833 72.0001 233.6Z" fill="#455A64"/>
<path d="M154.104 233.6L113.064 257.288L139.408 227.432C144.534 228.898 149.467 230.969 154.104 233.6Z" fill="#455A64"/>
<path d="M154.104 233.6C158.105 235.839 161.717 238.711 164.8 242.104L113.088 257.304L154.104 233.6Z" fill="#455A64"/>
<path d="M113.04 257.32L72 281.032C68.0045 278.798 64.3955 275.935 61.312 272.552L113.032 257.352L113.04 257.32Z" fill="#455A64"/>
<path d="M86.688 227.456L113.04 257.312L72 233.6C76.636 230.979 81.5664 228.916 86.688 227.456Z" fill="#455A64"/>
<path d="M113.064 257.336L154.104 281.032C149.47 283.657 144.542 285.727 139.424 287.2L113.064 257.336Z" fill="#455A64"/>
<path d="M128.488 236.8L135.104 229.296C135.104 220.496 124.352 220.28 119.6 219.856C114.848 219.432 106.696 216.704 106.696 226.72L108.968 235.008C115.528 234.586 122.114 235.191 128.488 236.8Z" fill="#524D4D"/>
<path opacity="0.6" d="M128.488 236.8L135.104 229.296C135.104 220.496 124.352 220.28 119.6 219.856C114.848 219.432 106.696 216.704 106.696 226.72L108.968 235.008C115.528 234.586 122.114 235.191 128.488 236.8Z" fill="white"/>
<path d="M128.488 225.016L135.104 217.52C125.84 215.109 116.243 214.239 106.696 214.944L108.968 223.2C115.53 222.786 122.115 223.399 128.488 225.016Z" fill="#524D4D"/>
<path opacity="0.8" d="M128.488 225.016L135.104 217.52C125.84 215.109 116.243 214.239 106.696 214.944L108.968 223.2C115.53 222.786 122.115 223.399 128.488 225.016Z" fill="white"/>
<path d="M108.968 223.232V235.024L106.696 226.736V214.944L108.968 223.232Z" fill="#524D4D"/>
<path d="M135.104 217.52L128.488 225.016V236.816L135.104 229.312V217.52Z" fill="#524D4D"/>
<g opacity="0.6">
<path d="M108.968 223.232V235.024L106.696 226.736V214.944L108.968 223.232Z" fill="white"/>
<path d="M135.104 217.52L128.488 225.016V236.816L135.104 229.312V217.52Z" fill="white"/>
</g>
<path d="M131.72 225.968V237.76C134.48 238.651 137.144 239.817 139.672 241.24C141.878 242.492 143.904 244.037 145.696 245.832L158.672 242.016C156.092 239.382 153.154 237.126 149.944 235.312C146.4 233.28 142.608 225.04 131.72 225.968Z" fill="#524D4D"/>
<path opacity="0.6" d="M131.72 225.968V237.76C134.48 238.651 137.144 239.817 139.672 241.24C141.878 242.492 143.904 244.037 145.696 245.832L158.672 242.016C156.092 239.382 153.154 237.126 149.944 235.312C146.4 233.28 142.608 225.04 131.72 225.968Z" fill="black"/>
<path d="M138.336 218.48L131.72 225.968C134.483 226.852 137.148 228.018 139.672 229.448C141.878 230.7 143.904 232.245 145.696 234.04L158.672 230.224C156.096 227.586 153.157 225.328 149.944 223.52C146.266 221.43 142.374 219.74 138.336 218.48Z" fill="#524D4D"/>
<path opacity="0.3" d="M138.336 218.48L131.72 225.968C134.483 226.852 137.148 228.018 139.672 229.448C141.878 230.7 143.904 232.245 145.696 234.04L158.672 230.224C156.096 227.586 153.157 225.328 149.944 223.52C146.266 221.43 142.374 219.74 138.336 218.48Z" fill="black"/>
<path d="M145.696 234.04L158.672 230.216V242.016L145.696 245.832V234.04Z" fill="#524D4D"/>
<path opacity="0.6" d="M145.696 234.04L158.672 230.216V242.016L145.696 245.832V234.04Z" fill="black"/>
<path d="M165.184 244.504H160.8C160.64 244.296 160.504 244.088 160.344 243.88L147.352 235.88V247.68C150.12 251.24 151.168 255.128 150.448 258.944L164.8 260.28C165.043 259.09 165.164 257.878 165.16 256.664L165.184 244.504Z" fill="#524D4D"/>
<path opacity="0.6" d="M165.184 244.504H160.8C160.64 244.296 160.504 244.088 160.344 243.88L147.352 235.88V247.68C150.12 251.24 151.168 255.128 150.448 258.944L164.8 260.28C165.043 259.09 165.164 257.878 165.16 256.664L165.184 244.504Z" fill="black"/>
<path d="M150.44 247.2L164.8 248.488C165.968 242.944 164.488 237.24 160.336 232.088L147.344 235.904C150.112 239.464 151.2 243.36 150.44 247.2Z" fill="#524D4D"/>
<path opacity="0.3" d="M150.44 247.2L164.8 248.488C165.968 242.944 164.488 237.24 160.336 232.088L147.344 235.904C150.112 239.464 151.2 243.36 150.44 247.2Z" fill="black"/>
<path d="M164.8 248.488V260.288L150.44 258.968V247.176L164.8 248.488Z" fill="#524D4D"/>
<path opacity="0.6" d="M164.8 248.488V260.288L150.44 258.968V247.176L164.8 248.488Z" fill="black"/>
<path d="M105.384 235.36V223.56C97.3841 219.872 82.4881 223.616 77.4961 234.6L87.7681 240.536C93.2855 237.776 99.251 236.024 105.384 235.36Z" fill="#524D4D"/>
<path opacity="0.3" d="M105.384 235.36V223.56C97.3841 219.872 82.4881 223.616 77.4961 234.6L87.7681 240.536C93.2855 237.776 99.251 236.024 105.384 235.36Z" fill="black"/>
<path d="M105.384 223.56L103.104 215.248C93.4319 216.336 84.5759 219 77.5039 222.808L87.7759 228.736C93.2908 225.978 99.2535 224.225 105.384 223.56Z" fill="#524D4D"/>
<path opacity="0.1" d="M105.384 223.56L103.104 215.248C93.4319 216.336 84.5759 219 77.5039 222.808L87.7759 228.736C93.2908 225.978 99.2535 224.225 105.384 223.56Z" fill="black"/>
<path d="M87.7681 228.736V240.536L77.4961 234.6V222.808L87.7681 228.736Z" fill="#263238"/>
<path d="M77.024 230.224L74.912 236.072C68.008 240.344 63.648 245.488 61.856 250.872L76.256 252.184C77.576 248.496 80.584 244.984 85.24 242.024V230.224H77.024Z" fill="#524D4D"/>
<path opacity="0.3" d="M77.024 230.224L74.912 236.072C68.008 240.344 63.648 245.488 61.856 250.872L76.256 252.184C77.576 248.496 80.584 244.984 85.24 242.024V230.224H77.024Z" fill="black"/>
<path d="M85.208 230.224L74.912 224.28C68.008 228.544 63.648 233.696 61.856 239.072L76.256 240.392C77.544 236.704 80.552 233.184 85.208 230.224Z" fill="#524D4D"/>
<path opacity="0.1" d="M85.208 230.224L74.912 224.28C68.008 228.544 63.648 233.696 61.856 239.072L76.256 240.392C77.544 236.704 80.552 233.184 85.208 230.224Z" fill="black"/>
<path d="M61.856 239.072V250.872L76.224 252.184V240.392L61.856 239.072Z" fill="#263238"/>
<path d="M75.6559 254.256V242.456L71.3839 242.072L60.9199 244.8V256.584C60.9869 261.266 62.6844 265.779 65.7199 269.344L78.7119 265.528C75.9999 261.968 74.9439 258.072 75.6559 254.256Z" fill="#524D4D"/>
<path opacity="0.3" d="M75.6559 254.256V242.456L71.3839 242.072L60.9199 244.8V256.584C60.9869 261.266 62.6844 265.779 65.7199 269.344L78.7119 265.528C75.9999 261.968 74.9439 258.072 75.6559 254.256Z" fill="black"/>
<path d="M65.7681 257.552L78.7601 253.728V265.528L65.7681 269.344V257.552Z" fill="#263238"/>
<path d="M75.6641 242.456L61.2641 241.144C60.0961 246.696 61.5761 252.392 65.7281 257.552L78.7201 253.728C76.0001 250.168 74.9441 246.272 75.6641 242.456Z" fill="#524D4D"/>
<path opacity="0.1" d="M75.6641 242.456L61.2641 241.144C60.0961 246.696 61.5761 252.392 65.7281 257.552L78.7201 253.728C76.0001 250.168 74.9441 246.272 75.6641 242.456Z" fill="black"/>
<path d="M91.0321 269.328C84.9441 265.816 81.9041 261.216 81.9041 256.616V244.8H144.2V256.592C144.2 261.2 141.16 265.8 135.072 269.312C122.912 276.352 103.2 276.352 91.0321 269.328Z" fill="#37474F"/>
<path d="M113.056 262.8C130.256 262.8 144.2 254.748 144.2 244.816C144.2 234.884 130.256 226.832 113.056 226.832C95.8558 226.832 81.9121 234.884 81.9121 244.816C81.9121 254.748 95.8558 262.8 113.056 262.8Z" fill="#455A64"/>
<path d="M87.7681 272.704V271.2L67.4241 259.416V271.2C70.005 273.836 72.9462 276.093 76.1601 277.904C79.838 279.994 83.7296 281.684 87.7681 282.944L94.3761 275.456C92.1035 274.716 89.8938 273.796 87.7681 272.704Z" fill="#524D4D"/>
<path opacity="0.3" d="M87.7681 272.704V271.2L67.4241 259.416V271.2C70.005 273.836 72.9462 276.093 76.1601 277.904C79.838 279.994 83.7296 281.684 87.7681 282.944L94.3761 275.456C92.1035 274.716 89.8938 273.796 87.7681 272.704Z" fill="black"/>
<path d="M86.4001 260.184C84.192 258.935 82.1629 257.393 80.3681 255.6L67.3921 259.416C69.9751 262.049 72.9159 264.306 76.1281 266.12C79.8077 268.207 83.6989 269.896 87.7361 271.16L94.3441 263.664C91.5837 262.78 88.9216 261.613 86.4001 260.184Z" fill="#524D4D"/>
<path opacity="0.1" d="M86.4001 260.184C84.192 258.935 82.1629 257.393 80.3681 255.6L67.3921 259.416C69.9751 262.049 72.9159 264.306 76.1281 266.12C79.8077 268.207 83.6989 269.896 87.7361 271.16L94.3441 263.664C91.5837 262.78 88.9216 261.613 86.4001 260.184Z" fill="black"/>
<path d="M87.7681 282.952V271.16L94.3761 263.664V275.464L87.7681 282.952Z" fill="#263238"/>
<path d="M91 272.112V283.912C100.264 286.323 109.861 287.193 119.408 286.488V274.696L91 272.112Z" fill="#524D4D"/>
<path opacity="0.1" d="M91 272.112V283.912C100.264 286.323 109.861 287.193 119.408 286.488V274.696L91 272.112Z" fill="black"/>
<path d="M97.5999 264.616L90.9839 272.112C100.248 274.522 109.845 275.395 119.392 274.696L117.136 266.4C110.571 266.826 103.979 266.224 97.5999 264.616Z" fill="#524D4D"/>
<path opacity="0.2" d="M97.5999 264.616L90.9839 272.112C100.248 274.522 109.845 275.395 119.392 274.696L117.136 266.4C110.571 266.826 103.979 266.224 97.5999 264.616Z" fill="white"/>
<path d="M140.896 271.2L151.2 277.152C158.104 272.888 162.464 267.736 164.256 262.352V250.56L149.856 261.04C148.56 264.728 145.552 268.248 140.896 271.2Z" fill="#524D4D"/>
<path opacity="0.1" d="M140.896 271.2L151.2 277.152C158.104 272.888 162.464 267.736 164.256 262.352V250.56L149.856 261.04C148.56 264.728 145.552 268.248 140.896 271.2Z" fill="black"/>
<path d="M140.896 259.408L151.2 265.36C158.104 261.088 162.464 255.944 164.256 250.56L149.856 249.248C148.56 252.936 145.552 256.448 140.896 259.408Z" fill="#524D4D"/>
<path opacity="0.2" d="M140.896 259.408L151.2 265.36C158.104 261.088 162.464 255.944 164.256 250.56L149.856 249.248C148.56 252.936 145.552 256.448 140.896 259.408Z" fill="white"/>
<path d="M151.192 265.36V277.152L140.896 271.208V259.408L151.192 265.36Z" fill="#524D4D"/>
<path opacity="0.3" d="M151.192 265.36V277.152L140.896 271.208V259.408L151.192 265.36Z" fill="black"/>
<path d="M123 274.4V277.6C122.24 277.72 121.488 277.824 120.72 277.912L123 286.216C132.32 285.176 141.232 282.656 148.6 278.672V266.84L123 274.4Z" fill="#524D4D"/>
<path opacity="0.1" d="M123 274.4V277.6C122.24 277.72 121.488 277.824 120.72 277.912L123 286.216C132.32 285.176 141.232 282.656 148.6 278.672V266.84L123 274.4Z" fill="black"/>
<path d="M120.72 266.08L123 274.4C132.32 273.36 141.232 270.848 148.6 266.864L138.304 260.912C132.801 263.676 126.844 265.427 120.72 266.08Z" fill="#524D4D"/>
<path opacity="0.2" d="M120.72 266.08L123 274.4C132.32 273.36 141.232 270.848 148.6 266.864L138.304 260.912C132.801 263.676 126.844 265.427 120.72 266.08Z" fill="white"/>
<path d="M123 274.376V286.168L120.72 277.88V266.08L123 274.376Z" fill="#524D4D"/>
<path opacity="0.3" d="M123 274.376V286.168L120.72 277.88V266.08L123 274.376Z" fill="black"/>
<path d="M322.648 195.472C322.62 194.952 322.469 194.446 322.209 193.994C321.95 193.542 321.587 193.158 321.152 192.872L299.488 180.368C298.688 179.888 297.992 180.28 297.992 181.24V202.176C298.019 202.697 298.169 203.203 298.429 203.655C298.689 204.107 299.052 204.491 299.488 204.776L308.56 210.008L311.424 221.6C311.414 221.812 311.49 222.02 311.633 222.176C311.776 222.333 311.976 222.427 312.188 222.436C312.4 222.446 312.607 222.371 312.764 222.227C312.921 222.084 313.014 221.884 313.024 221.672L315.648 214.096L321.192 217.296C321.992 217.776 322.688 217.384 322.688 216.432L322.648 195.472Z" fill="#524D4D"/>
<path opacity="0.5" d="M322.648 195.472C322.62 194.952 322.469 194.446 322.209 193.994C321.95 193.542 321.587 193.158 321.152 192.872L299.488 180.368C298.688 179.888 297.992 180.28 297.992 181.24V202.176C298.019 202.697 298.169 203.203 298.429 203.655C298.689 204.107 299.052 204.491 299.488 204.776L308.56 210.008L311.424 221.6C311.414 221.812 311.49 222.02 311.633 222.176C311.776 222.333 311.976 222.427 312.188 222.436C312.4 222.446 312.607 222.371 312.764 222.227C312.921 222.084 313.014 221.884 313.024 221.672L315.648 214.096L321.192 217.296C321.992 217.776 322.688 217.384 322.688 216.432L322.648 195.472Z" fill="white"/>
<path d="M306.2 189.904C306.642 190.156 307.051 190.462 307.416 190.816C307.742 191.134 308.035 191.485 308.288 191.864C308.507 192.2 308.687 192.559 308.824 192.936C308.937 193.257 309.009 193.59 309.04 193.928C309.04 194.272 309.08 194.632 309.08 195.008C309.08 195.384 309.08 195.728 309.04 196.048C309.02 196.306 308.947 196.557 308.824 196.784C308.704 196.994 308.514 197.156 308.288 197.24C308.002 197.319 307.701 197.319 307.416 197.24C306.985 197.141 306.575 196.97 306.2 196.736C305.756 196.487 305.344 196.184 304.976 195.832C304.648 195.524 304.358 195.177 304.112 194.8C303.694 194.182 303.433 193.47 303.352 192.728C303.352 192.384 303.352 192.024 303.352 191.648C303.352 191.272 303.352 190.928 303.352 190.616C303.376 190.356 303.453 190.103 303.576 189.872C303.692 189.659 303.883 189.496 304.112 189.416C304.391 189.328 304.689 189.314 304.976 189.376C305.412 189.479 305.826 189.657 306.2 189.904ZM313.848 194.776C313.93 194.716 314.027 194.68 314.128 194.672C314.273 194.682 314.414 194.729 314.536 194.808L315.68 195.472C315.811 195.547 315.925 195.647 316.016 195.768C316.091 195.871 316.133 195.993 316.136 196.12C316.139 196.147 316.139 196.174 316.136 196.2C316.122 196.23 316.103 196.257 316.08 196.28L306.656 203.24C306.574 203.301 306.477 203.34 306.376 203.352C306.229 203.343 306.088 203.293 305.968 203.208L304.824 202.552C304.691 202.477 304.576 202.373 304.488 202.248C304.411 202.149 304.366 202.029 304.36 201.904C304.354 201.875 304.354 201.845 304.36 201.816C304.371 201.785 304.39 201.757 304.416 201.736L313.848 194.776ZM307.208 194.776C307.219 194.659 307.219 194.541 307.208 194.424V193.392C307.219 193.267 307.219 193.141 307.208 193.016C307.182 192.735 307.097 192.463 306.96 192.216C306.775 191.917 306.513 191.673 306.2 191.512C305.832 191.296 305.576 191.24 305.4 191.336C305.324 191.397 305.263 191.474 305.22 191.561C305.177 191.648 305.154 191.743 305.152 191.84C305.152 191.912 305.152 192.024 305.152 192.192C305.152 192.36 305.152 192.52 305.152 192.696C305.152 192.872 305.152 193.048 305.152 193.216C305.152 193.384 305.152 193.512 305.152 193.6C305.182 193.88 305.266 194.152 305.4 194.4C305.596 194.705 305.873 194.948 306.2 195.104C306.568 195.32 306.824 195.376 306.96 195.28C307.032 195.222 307.091 195.149 307.133 195.067C307.174 194.984 307.197 194.893 307.2 194.8L307.208 194.776ZM314.456 201.344C314.9 201.596 315.312 201.902 315.68 202.256C316.004 202.574 316.294 202.925 316.544 203.304C316.77 203.636 316.95 203.996 317.08 204.376C317.191 204.698 317.266 205.03 317.304 205.368C317.304 205.712 317.304 206.072 317.304 206.448C317.304 206.824 317.304 207.168 317.304 207.488C317.279 207.746 317.203 207.996 317.08 208.224C317.025 208.332 316.95 208.428 316.858 208.506C316.766 208.584 316.659 208.644 316.544 208.68C316.262 208.763 315.962 208.763 315.68 208.68C315.247 208.581 314.833 208.41 314.456 208.176C314.014 207.927 313.605 207.624 313.24 207.272C312.912 206.962 312.619 206.615 312.368 206.24C312.147 205.906 311.967 205.546 311.832 205.168C311.72 204.847 311.647 204.514 311.616 204.176C311.616 203.824 311.616 203.464 311.616 203.088C311.616 202.712 311.616 202.368 311.616 202.056C311.634 201.796 311.708 201.542 311.832 201.312C311.949 201.1 312.14 200.938 312.368 200.856C312.654 200.786 312.953 200.786 313.24 200.856C313.672 200.954 314.084 201.127 314.456 201.368V201.344ZM315.472 206.24C315.478 206.123 315.478 206.005 315.472 205.888V204.88C315.472 204.72 315.472 204.592 315.472 204.512C315.438 204.233 315.354 203.962 315.224 203.712C315.025 203.41 314.749 203.167 314.424 203.008C314.056 202.792 313.8 202.736 313.664 202.832C313.588 202.893 313.527 202.97 313.484 203.057C313.441 203.144 313.418 203.239 313.416 203.336C313.408 203.453 313.408 203.571 313.416 203.688C313.416 203.848 313.416 204.016 313.416 204.192C313.416 204.368 313.416 204.544 313.416 204.72C313.408 204.845 313.408 204.971 313.416 205.096C313.441 205.377 313.525 205.65 313.664 205.896C313.846 206.198 314.109 206.442 314.424 206.6C314.792 206.816 315.048 206.872 315.224 206.776C315.299 206.713 315.36 206.635 315.403 206.547C315.445 206.458 315.469 206.362 315.472 206.264V206.24Z" fill="#FAFAFA"/>
<path d="M228.928 115.2C228.899 114.68 228.748 114.174 228.489 113.722C228.229 113.271 227.867 112.887 227.432 112.6L205.768 100.104C204.968 99.6241 204.272 100.008 204.272 100.968V121.904C204.3 122.426 204.45 122.933 204.71 123.386C204.969 123.839 205.332 124.225 205.768 124.512L214.84 129.744L217.704 141.312C217.735 141.491 217.827 141.654 217.963 141.775C218.1 141.895 218.273 141.965 218.455 141.973C218.637 141.982 218.816 141.928 218.963 141.821C219.11 141.714 219.216 141.56 219.264 141.384L221.888 133.808L227.432 137.008C228.232 137.488 228.928 137.104 228.928 136.144V115.2Z" fill="#524D4D"/>
<path opacity="0.5" d="M228.928 115.2C228.899 114.68 228.748 114.174 228.489 113.722C228.229 113.271 227.867 112.887 227.432 112.6L205.768 100.104C204.968 99.6241 204.272 100.008 204.272 100.968V121.904C204.3 122.426 204.45 122.933 204.71 123.386C204.969 123.839 205.332 124.225 205.768 124.512L214.84 129.744L217.704 141.312C217.735 141.491 217.827 141.654 217.963 141.775C218.1 141.895 218.273 141.965 218.455 141.973C218.637 141.982 218.816 141.928 218.963 141.821C219.11 141.714 219.216 141.56 219.264 141.384L221.888 133.808L227.432 137.008C228.232 137.488 228.928 137.104 228.928 136.144V115.2Z" fill="white"/>
<path d="M212.48 109.664C212.922 109.916 213.331 110.222 213.696 110.576C214.02 110.896 214.313 111.247 214.568 111.624C214.791 111.958 214.971 112.318 215.104 112.696C215.217 113.017 215.289 113.35 215.32 113.688C215.32 114.032 215.36 114.392 215.36 114.768C215.36 115.144 215.36 115.488 215.32 115.808C215.301 116.069 215.228 116.322 215.104 116.552C214.988 116.763 214.796 116.923 214.568 117C214.286 117.092 213.985 117.106 213.696 117.04C213.264 116.94 212.853 116.767 212.48 116.528C212.034 116.282 211.622 115.978 211.256 115.624C210.928 115.316 210.638 114.969 210.392 114.592C210.166 114.26 209.986 113.9 209.856 113.52C209.745 113.199 209.669 112.866 209.632 112.528C209.632 112.176 209.632 111.816 209.632 111.448C209.632 111.08 209.632 110.72 209.632 110.408C209.657 110.148 209.733 109.895 209.856 109.664C209.972 109.451 210.163 109.288 210.392 109.208C210.675 109.137 210.972 109.137 211.256 109.208C211.687 109.288 212.101 109.443 212.48 109.664ZM220.128 114.536C220.212 114.48 220.308 114.444 220.408 114.432C220.554 114.442 220.696 114.492 220.816 114.576L221.96 115.232C222.089 115.309 222.203 115.409 222.296 115.528C222.37 115.631 222.412 115.754 222.416 115.88C222.419 115.909 222.419 115.939 222.416 115.968C222.4 115.997 222.381 116.023 222.36 116.048L212.936 123.008C212.852 123.065 212.756 123.1 212.656 123.112C212.509 123.103 212.368 123.053 212.248 122.968L211.104 122.312C210.971 122.24 210.856 122.139 210.768 122.016C210.694 121.913 210.652 121.791 210.648 121.664C210.64 121.638 210.64 121.61 210.648 121.584C210.659 121.551 210.678 121.52 210.704 121.496L220.128 114.536ZM213.488 114.536C213.499 114.419 213.499 114.301 213.488 114.184V113.152C213.499 113.03 213.499 112.907 213.488 112.784C213.464 112.503 213.38 112.23 213.24 111.984C213.058 111.68 212.795 111.434 212.48 111.272C212.112 111.064 211.856 111 211.68 111.104C211.606 111.166 211.545 111.243 211.503 111.33C211.46 111.417 211.436 111.511 211.432 111.608C211.432 111.672 211.432 111.792 211.432 111.952C211.432 112.112 211.432 112.28 211.432 112.464C211.432 112.648 211.432 112.816 211.432 112.984C211.432 113.152 211.432 113.28 211.432 113.36C211.463 113.64 211.547 113.912 211.68 114.16C211.876 114.464 212.153 114.708 212.48 114.864C212.848 115.08 213.104 115.136 213.24 115.04C213.314 114.983 213.374 114.91 213.417 114.828C213.46 114.745 213.484 114.653 213.488 114.56V114.536ZM220.736 121.104C221.182 121.356 221.594 121.665 221.96 122.024C222.286 122.337 222.576 122.686 222.824 123.064C223.048 123.397 223.228 123.757 223.36 124.136C223.47 124.458 223.545 124.79 223.584 125.128C223.584 125.48 223.584 125.84 223.584 126.216C223.584 126.592 223.584 126.936 223.584 127.248C223.559 127.509 223.483 127.761 223.36 127.992C223.244 128.205 223.053 128.368 222.824 128.448C222.541 128.527 222.242 128.527 221.96 128.448C221.527 128.348 221.113 128.178 220.736 127.944C220.297 127.691 219.889 127.387 219.52 127.04C219.194 126.725 218.901 126.376 218.648 126C218.428 125.665 218.248 125.305 218.112 124.928C217.999 124.608 217.927 124.274 217.896 123.936C217.896 123.592 217.856 123.232 217.856 122.856C217.856 122.48 217.856 122.136 217.896 121.816C217.915 121.556 217.989 121.302 218.112 121.072C218.232 120.864 218.422 120.705 218.648 120.624C218.93 120.533 219.23 120.517 219.52 120.576C219.954 120.689 220.365 120.875 220.736 121.128V121.104ZM221.752 126C221.758 125.883 221.758 125.765 221.752 125.648V124.64C221.752 124.48 221.752 124.352 221.752 124.272C221.724 123.991 221.64 123.719 221.504 123.472C221.308 123.165 221.031 122.919 220.704 122.76C220.336 122.552 220.08 122.488 219.944 122.592C219.867 122.652 219.805 122.728 219.762 122.815C219.719 122.903 219.696 122.999 219.696 123.096C219.687 123.211 219.687 123.326 219.696 123.44C219.696 123.6 219.696 123.768 219.696 123.952C219.696 124.136 219.696 124.304 219.696 124.472C219.688 124.597 219.688 124.723 219.696 124.848C219.719 125.13 219.804 125.403 219.944 125.648C220.125 125.952 220.389 126.199 220.704 126.36C221.072 126.568 221.338 126.624 221.504 126.528C221.579 126.467 221.641 126.391 221.684 126.304C221.727 126.217 221.75 126.121 221.752 126.024V126Z" fill="#FAFAFA"/>
<path d="M80.1919 194.824C80.2203 194.304 80.3705 193.798 80.6304 193.346C80.8902 192.894 81.2524 192.51 81.6879 192.224L103.352 179.72C104.152 179.24 104.848 179.632 104.848 180.592V201.528C104.821 202.049 104.671 202.555 104.411 203.007C104.151 203.459 103.788 203.843 103.352 204.128L94.2799 209.36L91.4159 220.936C91.4255 221.148 91.3503 221.356 91.2071 221.512C91.0638 221.669 90.8641 221.763 90.6519 221.772C90.4397 221.782 90.2325 221.707 90.0757 221.563C89.9189 221.42 89.8255 221.22 89.8159 221.008L87.1999 213.432L81.6559 216.632C80.8559 217.112 80.1599 216.72 80.1599 215.768L80.1919 194.824Z" fill="#524D4D"/>
<g opacity="0.5">
<path d="M80.1919 194.824C80.2203 194.304 80.3705 193.798 80.6304 193.346C80.8902 192.894 81.2524 192.51 81.6879 192.224L103.352 179.72C104.152 179.24 104.848 179.632 104.848 180.592V201.528C104.821 202.049 104.671 202.555 104.411 203.007C104.151 203.459 103.788 203.843 103.352 204.128L94.2799 209.36L91.4159 220.936C91.4255 221.148 91.3503 221.356 91.2071 221.512C91.0638 221.669 90.8641 221.763 90.6519 221.772C90.4397 221.782 90.2325 221.707 90.0757 221.563C89.9189 221.42 89.8255 221.22 89.8159 221.008L87.1999 213.432L81.6559 216.632C80.8559 217.112 80.1599 216.72 80.1599 215.768L80.1919 194.824Z" fill="white"/>
</g>
<path d="M87.7599 193.264C88.1929 192.995 88.6693 192.803 89.1679 192.696C89.5027 192.628 89.8491 192.645 90.1759 192.744C90.4389 192.839 90.658 193.027 90.7919 193.272C90.935 193.536 91.0196 193.828 91.0399 194.128C91.0719 194.496 91.0879 194.896 91.0879 195.328C91.0879 195.76 91.0719 196.176 91.0399 196.576C91.0049 196.969 90.9216 197.356 90.7919 197.728C90.6386 198.163 90.4317 198.577 90.1759 198.96C89.8865 199.397 89.5483 199.8 89.1679 200.16C88.7428 200.565 88.27 200.917 87.7599 201.208C87.3217 201.476 86.8438 201.673 86.3439 201.792C86.0128 201.866 85.6681 201.852 85.3439 201.752C85.081 201.657 84.8619 201.469 84.7279 201.224C84.5823 200.96 84.495 200.668 84.4719 200.368C84.4719 200 84.4719 199.568 84.4719 199.168C84.4719 198.768 84.4719 198.32 84.4719 197.92C84.5102 197.527 84.5962 197.14 84.7279 196.768C84.8779 196.332 85.085 195.918 85.3439 195.536C85.6349 195.1 85.97 194.695 86.3439 194.328C86.7709 193.917 87.2464 193.56 87.7599 193.264ZM96.5599 188.696C96.6507 188.521 96.7579 188.355 96.8799 188.2C97.0145 188.046 97.1741 187.917 97.3519 187.816L98.6799 187.016C98.7903 186.935 98.9283 186.9 99.0639 186.92C99.1599 186.92 99.2079 187.024 99.2079 187.152C99.2135 187.195 99.2135 187.238 99.2079 187.28L99.1439 187.448L88.2479 208.072C88.1572 208.245 88.05 208.408 87.9279 208.56C87.795 208.715 87.6351 208.846 87.4559 208.944L86.1359 209.744C86.0224 209.825 85.8821 209.859 85.7439 209.84C85.6479 209.84 85.5999 209.736 85.5999 209.608C85.5943 209.566 85.5943 209.523 85.5999 209.48L85.6639 209.312L96.5599 188.696ZM88.9279 197.6C88.9388 197.456 88.9388 197.312 88.9279 197.168V195.976C88.9395 195.84 88.9395 195.704 88.9279 195.568C88.9236 195.456 88.8956 195.346 88.846 195.245C88.7964 195.145 88.7262 195.056 88.6399 194.984C88.4799 194.872 88.1839 194.984 87.7599 195.184C87.4327 195.349 87.1534 195.595 86.9488 195.899C86.7443 196.203 86.6214 196.555 86.5919 196.92C86.5802 197.066 86.5802 197.214 86.5919 197.36C86.5919 197.552 86.5919 197.752 86.5919 197.96C86.5919 198.168 86.5919 198.36 86.5919 198.552C86.5794 198.685 86.5794 198.819 86.5919 198.952C86.5919 199.065 86.6179 199.176 86.6678 199.278C86.7178 199.379 86.7903 199.467 86.8799 199.536C87.0399 199.648 87.3279 199.576 87.7599 199.336C88.1209 199.155 88.4253 198.878 88.6399 198.536C88.7992 198.247 88.8973 197.929 88.9279 197.6ZM97.3039 195.52C97.7406 195.251 98.2192 195.056 98.7199 194.944C99.052 194.876 99.3958 194.893 99.7199 194.992C99.9829 195.087 100.202 195.275 100.336 195.52C100.482 195.784 100.569 196.076 100.592 196.376C100.592 196.744 100.632 197.176 100.632 197.576C100.632 197.976 100.632 198.424 100.592 198.824C100.554 199.217 100.468 199.604 100.336 199.976C100.184 200.414 99.9775 200.831 99.7199 201.216C99.1072 202.141 98.2849 202.908 97.3199 203.456C96.8855 203.726 96.4099 203.923 95.9119 204.04C95.5785 204.118 95.2301 204.104 94.9039 204C94.6394 203.908 94.4194 203.719 94.2879 203.472C94.1439 203.208 94.0593 202.916 94.0399 202.616C94.0399 202.256 93.9919 201.816 93.9919 201.424C93.9919 201.032 93.9919 200.568 94.0399 200.168C94.0745 199.778 94.1578 199.394 94.2879 199.024C94.4412 198.587 94.6481 198.17 94.9039 197.784C95.1952 197.346 95.5332 196.941 95.9119 196.576C96.3261 196.156 96.7942 195.793 97.3039 195.496V195.52ZM98.4719 199.824C98.4828 199.68 98.4828 199.536 98.4719 199.392V198.208C98.4835 198.072 98.4835 197.936 98.4719 197.8C98.4725 197.687 98.4469 197.575 98.3969 197.474C98.3469 197.373 98.274 197.284 98.1839 197.216C98.0239 197.104 97.7359 197.168 97.3039 197.416C96.9443 197.599 96.6404 197.875 96.4239 198.216C96.2694 198.501 96.1716 198.814 96.1359 199.136C96.1282 199.28 96.1282 199.424 96.1359 199.568C96.1359 199.768 96.1359 199.968 96.1359 200.168C96.1359 200.368 96.1359 200.576 96.1359 200.76C96.1276 200.893 96.1276 201.027 96.1359 201.16C96.1403 201.272 96.1682 201.382 96.2178 201.483C96.2674 201.583 96.3377 201.672 96.4239 201.744C96.5839 201.856 96.8799 201.792 97.3039 201.544C97.6651 201.363 97.9696 201.086 98.1839 200.744C98.3489 200.455 98.4473 200.132 98.4719 199.8V199.824Z" fill="#FAFAFA"/>
</svg>
