<svg width="51" height="40" viewBox="0 0 51 40" fill="none" xmlns="http://www.w3.org/2000/svg">
<path d="M46.6697 18.5599C46.2554 17.132 45.5149 15.8188 44.5061 14.723C43.3138 13.4287 41.9194 12.3346 40.3766 11.483C38.5853 10.4729 36.6805 9.6766 34.7017 9.11071C32.522 8.48441 30.2858 8.07219 28.0254 7.87994C25.6904 7.66762 23.3409 7.66762 21.0059 7.87994C18.7464 8.07217 16.5113 8.4844 14.3326 9.11071C12.3527 9.67605 10.4468 10.4723 8.65462 11.483C7.11182 12.3421 5.71844 13.4434 4.52826 14.7446C3.52037 15.841 2.77998 17.154 2.36462 18.5815C1.99532 19.902 1.99532 21.2979 2.36462 22.6184C2.77666 24.0464 3.51748 25.3591 4.52826 26.4523C5.71928 27.7546 7.11371 28.857 8.65771 29.7169C10.4477 30.7267 12.3516 31.522 14.3295 32.0861C16.5092 32.7152 18.7452 33.1315 21.0059 33.3292C23.341 33.5384 25.6903 33.5384 28.0254 33.3292C30.2872 33.1307 32.5242 32.7133 34.7048 32.083C36.6827 31.5189 38.5866 30.7237 40.3766 29.7138C41.9212 28.8547 43.3157 27.7522 44.5061 26.4492C45.5155 25.355 46.2561 24.0427 46.6697 22.6153C47.0395 21.2886 47.0395 19.8867 46.6697 18.5599Z" fill="#37474F"/>
<path d="M2.08643 18.5659H46.9448V20.8428L2.08643 20.7167V18.5659Z" fill="#37474F"/>
<path d="M21.0058 5.83984L24.5109 18.5598L14.3325 7.08292C16.5108 6.45244 18.7459 6.03609 21.0058 5.83984Z" fill="#455A64"/>
<path d="M28.0253 5.84013L24.5202 18.5601L21.0151 5.83398C23.3472 5.62427 25.6936 5.62633 28.0253 5.84013Z" fill="#455A64"/>
<path d="M34.7015 7.08321L24.52 18.5601L28.0251 5.83398C30.2862 6.03226 32.5224 6.45067 34.7015 7.08321Z" fill="#455A64"/>
<path d="M44.5028 12.7139C45.511 13.8112 46.2514 15.1253 46.6665 16.5539L24.5232 18.56L44.5028 12.7139Z" fill="#455A64"/>
<path d="M46.6696 16.5566C47.0358 17.8765 47.0358 19.2706 46.6696 20.5905L24.5232 18.5597L46.6696 16.5566Z" fill="#455A64"/>
<path d="M46.6696 20.5908C46.2553 22.0188 45.5148 23.332 44.5059 24.4277L24.5232 18.5815L46.6696 20.5908Z" fill="#455A64"/>
<path d="M44.506 24.4278C43.3154 25.7297 41.9209 26.8311 40.3765 27.6893L24.5171 18.5601L44.506 24.4278Z" fill="#455A64"/>
<path d="M24.5202 18.5751L34.7047 30.0613C32.524 30.6879 30.2868 31.1001 28.0253 31.2921L24.5171 18.5659L24.5202 18.5751Z" fill="#455A64"/>
<path d="M24.5171 18.5786L28.0253 31.3048C25.6904 31.5171 23.3408 31.5171 21.0059 31.3048L24.5171 18.5786Z" fill="#455A64"/>
<path d="M24.5108 18.5752L20.9995 31.3013C18.738 31.1094 16.5008 30.6972 14.3201 30.0706L24.5108 18.5752Z" fill="#455A64"/>
<path d="M24.511 18.5752L14.311 30.0613C12.3334 29.4949 10.4297 28.6986 8.63916 27.689L24.511 18.5752Z" fill="#455A64"/>
<path d="M24.5079 18.5601L4.52521 24.4062C3.51495 23.3115 2.77423 21.9979 2.36157 20.5693L24.5079 18.5601Z" fill="#455A64"/>
<path d="M24.5079 18.5597L2.36466 20.5905C1.99531 19.271 1.99531 17.8761 2.36466 16.5566L24.5079 18.5597Z" fill="#455A64"/>
<path d="M24.5078 18.56L2.3645 16.5446C2.78046 15.1164 3.52074 13.8025 4.52814 12.7046L24.5078 18.56Z" fill="#455A64"/>
<path d="M8.65444 9.4585L24.5077 18.56L4.52808 12.7139C5.71866 11.4149 7.11203 10.3156 8.65444 9.4585Z" fill="#455A64"/>
<path d="M40.3764 9.4582L24.52 18.5597L34.7015 7.07666C36.6811 7.6442 38.5861 8.44364 40.3764 9.4582Z" fill="#455A64"/>
<path d="M40.3765 9.4585C41.9194 10.3148 43.3129 11.4141 44.5028 12.7139L24.5232 18.56L40.3765 9.4585Z" fill="#455A64"/>
<path d="M24.511 18.5601L8.6485 27.677C7.10466 26.8181 5.71023 25.7168 4.51904 24.4154L24.5018 18.5693L24.511 18.5601Z" fill="#455A64"/>
<path d="M14.3325 7.08301L24.5109 18.5599L8.65454 9.44609C10.4465 8.43738 12.3526 7.64413 14.3325 7.08301Z" fill="#455A64"/>
<path d="M24.52 18.5752L40.3764 27.689C38.5858 28.6986 36.6821 29.4949 34.7046 30.0613L24.52 18.5752Z" fill="#455A64"/>
<path d="M10.9512 5.72334L23.5466 12.9603L22.9284 2.72949C18.2952 2.92642 14.3604 3.91103 10.9512 5.72334Z" fill="#524D4D"/>
<path opacity="0.2" d="M10.9512 5.72334L23.5466 12.9603L22.9284 2.72949C18.2952 2.92642 14.3604 3.91103 10.9512 5.72334Z" fill="white"/>
<path d="M23.5466 12.9601V16.9108L10.9512 9.67084V5.72314L23.5466 12.9601Z" fill="#524D4D"/>
<path opacity="0.1" d="M23.5466 12.9601V16.9108L10.9512 9.67084V5.72314L23.5466 12.9601Z" fill="black"/>
<path d="M39.8759 6.73828L25.4197 13.2306V17.1783L39.8759 10.686V6.73828Z" fill="#524D4D"/>
<path opacity="0.3" d="M39.8759 6.73828L25.4197 13.2306V17.1783L39.8759 10.686V6.73828Z" fill="black"/>
<path d="M39.8758 6.73854C35.9843 4.10162 30.7947 2.71084 24.7798 2.69238L25.1661 9.08931L25.4196 13.2308L39.8758 6.73854Z" fill="#524D4D"/>
<path opacity="0.1" d="M39.8758 6.73854C35.9843 4.10162 30.7947 2.71084 24.7798 2.69238L25.1661 9.08931L25.4196 13.2308L39.8758 6.73854Z" fill="black"/>
<path d="M24.7766 2.69238V6.64008L25.4195 17.1785V13.2308L24.7766 2.69238Z" fill="#263238"/>
<path d="M28.3591 20.834L35.7494 27.9109C36.1636 27.754 36.5469 27.6032 36.9858 27.394C42.0765 25.1109 44.7378 21.6893 44.7347 18.237V14.3293C44.1753 12.8432 42.636 12.8463 41.0256 11.5386L25.9327 18.3078L25.7812 18.3755L28.3591 20.834Z" fill="#524D4D"/>
<path opacity="0.6" d="M28.3591 20.834L35.7494 27.9109C36.1636 27.754 36.5469 27.6032 36.9858 27.394C42.0765 25.1109 44.7378 21.6893 44.7347 18.237V14.3293C44.1753 12.8432 42.636 12.8463 41.0256 11.5386L25.9327 18.3078L25.7812 18.3755L28.3591 20.834Z" fill="white"/>
<path d="M28.359 16.8863L35.7494 23.9632C36.1635 23.8063 36.5468 23.6555 36.9857 23.4432C45.5074 19.6125 47.2135 12.5971 41.0317 7.57861L25.9388 14.3478L25.7874 14.4155L28.359 16.8863Z" fill="#524D4D"/>
<path opacity="0.8" d="M28.359 16.8863L35.7494 23.9632C36.1635 23.8063 36.5468 23.6555 36.9857 23.4432C45.5074 19.6125 47.2135 12.5971 41.0317 7.57861L25.9388 14.3478L25.7874 14.4155L28.359 16.8863Z" fill="white"/>
<path d="M35.7371 27.9048V23.954L25.772 14.4248V18.3725L35.7371 27.9048Z" fill="#524D4D"/>
<path opacity="0.6" d="M35.7371 27.9048V23.954L25.772 14.4248V18.3725L35.7371 27.9048Z" fill="white"/>
<path d="M9.64041 10.4248C7.51695 11.7571 5.15859 12.5971 4.29932 14.2156V18.1663C4.29932 20.2248 5.26059 22.311 7.25422 24.2187C10.036 26.874 14.4406 28.751 19.6735 29.4986C24.5163 30.2103 29.4571 29.8521 34.1451 28.4494V24.5017L27.6388 22.2248L23.8184 18.5602L9.64041 10.4248Z" fill="#524D4D"/>
<path opacity="0.6" d="M9.64041 10.4248C7.51695 11.7571 5.15859 12.5971 4.29932 14.2156V18.1663C4.29932 20.2248 5.26059 22.311 7.25422 24.2187C10.036 26.874 14.4406 28.751 19.6735 29.4986C24.5163 30.2103 29.4571 29.8521 34.1451 28.4494V24.5017L27.6388 22.2248L23.8184 18.5602L9.64041 10.4248Z" fill="black"/>
<path d="M9.64054 6.47705C3.53909 10.2986 2.55618 15.7755 7.25436 20.2678C10.0362 22.9263 14.4407 24.8001 19.6736 25.5509C24.5165 26.2609 29.4569 25.9028 34.1453 24.5017L27.6389 18.2771L23.8185 14.6247L9.64054 6.47705Z" fill="#524D4D"/>
<path opacity="0.3" d="M9.64054 6.47705C3.53909 10.2986 2.55618 15.7755 7.25436 20.2678C10.0362 22.9263 14.4407 24.8001 19.6736 25.5509C24.5165 26.2609 29.4569 25.9028 34.1453 24.5017L27.6389 18.2771L23.8185 14.6247L9.64054 6.47705Z" fill="black"/>
</svg>
