<svg width="185" height="48" viewBox="0 0 185 48" fill="none" xmlns="http://www.w3.org/2000/svg">
<path d="M165.11 2H18V35.14H165.11V2Z" fill="white" stroke="#263238" stroke-linecap="round" stroke-linejoin="round"/>
<path d="M35.7799 22.07L33.3999 20.26L33.7899 23.17C33.8155 23.3562 33.8011 23.5457 33.7476 23.7258C33.6941 23.9059 33.6028 24.0726 33.4797 24.2146C33.3567 24.3566 33.2047 24.4707 33.034 24.5492C32.8633 24.6278 32.6778 24.669 32.4899 24.67C32.3011 24.6704 32.1145 24.6302 31.9426 24.5523C31.7707 24.4744 31.6175 24.3605 31.4933 24.2183C31.3692 24.0762 31.2769 23.909 31.2229 23.7282C31.1688 23.5474 31.1541 23.357 31.1799 23.17L31.5699 20.26L29.1499 22.07C29.0014 22.1836 28.8306 22.2643 28.6486 22.3068C28.4666 22.3494 28.2777 22.3528 28.0943 22.3169C27.9109 22.2809 27.7372 22.2065 27.5848 22.0984C27.4323 21.9904 27.3045 21.8512 27.2099 21.69V21.63C27.1156 21.4678 27.057 21.2873 27.038 21.1007C27.019 20.914 27.04 20.7254 27.0997 20.5475C27.1593 20.3696 27.2561 20.2065 27.3838 20.069C27.5114 19.9314 27.6669 19.8227 27.8399 19.75L30.5699 18.61L27.8399 17.46C27.6669 17.3873 27.5114 17.2786 27.3838 17.1411C27.2561 17.0036 27.1593 16.8404 27.0997 16.6625C27.04 16.4846 27.019 16.2961 27.038 16.1094C27.057 15.9227 27.1156 15.7423 27.2099 15.58V15.53C27.2975 15.3625 27.4201 15.2158 27.5693 15.0998C27.7186 14.9838 27.891 14.9011 28.075 14.8575C28.2589 14.8139 28.45 14.8103 28.6355 14.847C28.8209 14.8836 28.9964 14.9597 29.1499 15.07L31.5299 16.88L31.1399 13.97C31.114 13.7835 31.1286 13.5936 31.1828 13.4133C31.2369 13.233 31.3293 13.0664 31.4536 12.925C31.5779 12.7836 31.7313 12.6706 31.9032 12.5939C32.0751 12.5171 32.2616 12.4783 32.4499 12.48C32.6373 12.4797 32.8227 12.5196 32.9934 12.597C33.1641 12.6744 33.3162 12.7876 33.4394 12.9288C33.5626 13.07 33.6541 13.2361 33.7077 13.4157C33.7612 13.5953 33.7756 13.7844 33.7499 13.97L33.3599 16.88L35.7399 15.07C35.8889 14.9569 36.0604 14.8768 36.2428 14.835C36.4252 14.7932 36.6144 14.7907 36.7978 14.8276C36.9813 14.8644 37.1548 14.9399 37.3069 15.0489C37.4589 15.158 37.5861 15.2981 37.6799 15.46V15.51C37.7741 15.6723 37.8327 15.8527 37.8517 16.0394C37.8707 16.2261 37.8497 16.4146 37.7901 16.5925C37.7305 16.7704 37.6336 16.9336 37.506 17.0711C37.3783 17.2086 37.2228 17.3174 37.0499 17.39L34.3199 18.54L37.0499 19.68C37.2228 19.7527 37.3783 19.8615 37.506 19.999C37.6336 20.1365 37.7305 20.2996 37.7901 20.4775C37.8497 20.6554 37.8707 20.844 37.8517 21.0307C37.8327 21.2173 37.7741 21.3978 37.6799 21.56V21.62C37.5908 21.7808 37.4692 21.9213 37.3227 22.0323C37.1762 22.1434 37.0082 22.2227 36.8293 22.265C36.6505 22.3074 36.4647 22.3119 36.284 22.2783C36.1033 22.2448 35.9316 22.1738 35.7799 22.07Z" fill="#263238"/>
<path d="M56.9899 22.0698L54.6099 20.2598L54.9999 23.1698C55.0239 23.3565 55.0081 23.5462 54.9534 23.7263C54.8987 23.9065 54.8064 24.0729 54.6825 24.2147C54.5587 24.3565 54.4062 24.4704 54.2351 24.5488C54.0639 24.6273 53.8781 24.6685 53.6899 24.6698C53.502 24.6687 53.3165 24.6275 53.1458 24.549C52.9751 24.4704 52.8231 24.3563 52.7 24.2143C52.577 24.0723 52.4856 23.9057 52.4321 23.7256C52.3787 23.5454 52.3643 23.356 52.3899 23.1698L52.7699 20.2598L50.3999 22.0698C50.2514 22.1833 50.0806 22.264 49.8986 22.3066C49.7166 22.3491 49.5277 22.3526 49.3443 22.3166C49.1609 22.2807 48.9872 22.2063 48.8348 22.0982C48.6823 21.9901 48.5545 21.8509 48.4599 21.6898V21.6298C48.3656 21.4676 48.307 21.2871 48.288 21.1005C48.269 20.9138 48.29 20.7252 48.3497 20.5473C48.4093 20.3694 48.5061 20.2063 48.6338 20.0687C48.7614 19.9312 48.9169 19.8225 49.0899 19.7498L51.8099 18.6098L49.0899 17.4598C48.9169 17.3871 48.7614 17.2784 48.6338 17.1409C48.5061 17.0034 48.4093 16.8402 48.3497 16.6623C48.29 16.4844 48.269 16.2958 48.288 16.1092C48.307 15.9225 48.3656 15.742 48.4599 15.5798V15.5298C48.5537 15.3679 48.6808 15.2278 48.8329 15.1187C48.985 15.0097 49.1585 14.9342 49.3419 14.8973C49.5254 14.8605 49.7146 14.863 49.897 14.9048C50.0794 14.9466 50.2508 15.0267 50.3999 15.1398L52.7699 16.9498L52.3899 14.0398C52.3641 13.8541 52.3785 13.6651 52.4321 13.4855C52.4856 13.3059 52.5771 13.1398 52.7003 12.9986C52.8236 12.8573 52.9757 12.7442 53.1464 12.6668C53.3171 12.5893 53.5024 12.5495 53.6899 12.5498C53.8776 12.5497 54.0633 12.5896 54.2344 12.6669C54.4056 12.7442 54.5582 12.8572 54.6822 12.9982C54.8062 13.1393 54.8987 13.3051 54.9534 13.4847C55.0082 13.6644 55.0241 13.8536 54.9999 14.0398L54.6099 16.9498L56.9899 15.1398C57.1381 15.0269 57.3088 14.9469 57.4904 14.9052C57.672 14.8634 57.8605 14.8609 58.0432 14.8978C58.2258 14.9348 58.3985 15.0102 58.5497 15.1192C58.7009 15.2282 58.8271 15.3682 58.9199 15.5298V15.5798C59.0141 15.742 59.0727 15.9225 59.0917 16.1092C59.1107 16.2958 59.0897 16.4844 59.0301 16.6623C58.9705 16.8402 58.8736 17.0034 58.746 17.1409C58.6183 17.2784 58.4628 17.3871 58.2899 17.4598L55.5599 18.6098L58.2899 19.7498C58.4628 19.8225 58.6183 19.9312 58.746 20.0687C58.8736 20.2063 58.9705 20.3694 59.0301 20.5473C59.0897 20.7252 59.1107 20.9138 59.0917 21.1005C59.0727 21.2871 59.0141 21.4676 58.9199 21.6298V21.6898C58.8262 21.8507 58.6994 21.9897 58.5478 22.0977C58.3962 22.2057 58.2234 22.2802 58.0408 22.3161C57.8582 22.3521 57.67 22.3487 57.4888 22.3062C57.3076 22.2638 57.1375 22.1832 56.9899 22.0698Z" fill="#263238"/>
<path d="M78.1498 22.0698L75.7798 20.2598L76.1698 23.1698C76.1939 23.3565 76.1781 23.5462 76.1234 23.7263C76.0687 23.9065 75.9763 24.0729 75.8525 24.2147C75.7287 24.3565 75.5762 24.4704 75.405 24.5488C75.2339 24.6273 75.0481 24.6685 74.8598 24.6698C74.6716 24.6685 74.4858 24.6273 74.3147 24.5488C74.1435 24.4704 73.991 24.3565 73.8672 24.2147C73.7433 24.0729 73.651 23.9065 73.5963 23.7263C73.5416 23.5462 73.5258 23.3565 73.5498 23.1698L73.9398 20.2598L71.6098 22.0698C71.4614 22.1833 71.2905 22.264 71.1086 22.3066C70.9266 22.3491 70.7377 22.3526 70.5543 22.3166C70.3709 22.2807 70.1972 22.2063 70.0447 22.0982C69.8923 21.9901 69.7645 21.8509 69.6698 21.6898V21.6298C69.5756 21.4676 69.517 21.2871 69.498 21.1004C69.479 20.9138 69.5 20.7252 69.5596 20.5473C69.6192 20.3694 69.7161 20.2063 69.8437 20.0687C69.9714 19.9312 70.1269 19.8225 70.2998 19.7498L73.0298 18.6098L70.2998 17.4598C70.1269 17.3871 69.9714 17.2784 69.8437 17.1409C69.7161 17.0034 69.6192 16.8402 69.5596 16.6623C69.5 16.4844 69.479 16.2958 69.498 16.1092C69.517 15.9225 69.5756 15.742 69.6698 15.5798V15.5298C69.7636 15.3679 69.8908 15.2278 70.0428 15.1187C70.1949 15.0097 70.3684 14.9342 70.5519 14.8973C70.7353 14.8605 70.9246 14.863 71.1069 14.9048C71.2893 14.9466 71.4608 15.0267 71.6098 15.1398L73.9798 16.9498L73.5898 14.0398C73.5657 13.8536 73.5815 13.6644 73.6363 13.4847C73.691 13.3051 73.7835 13.1393 73.9075 12.9982C74.0315 12.8572 74.1842 12.7442 74.3553 12.6669C74.5264 12.5896 74.7121 12.5497 74.8998 12.5498C75.0876 12.5497 75.2733 12.5896 75.4444 12.6669C75.6155 12.7442 75.7682 12.8572 75.8922 12.9982C76.0162 13.1393 76.1086 13.3051 76.1634 13.4847C76.2182 13.6644 76.234 13.8536 76.2098 14.0398L75.8198 16.9498L78.1498 15.0698C78.2989 14.9567 78.4703 14.8766 78.6527 14.8348C78.8351 14.793 79.0243 14.7905 79.2078 14.8273C79.3912 14.8642 79.5648 14.9397 79.7168 15.0487C79.8689 15.1578 79.996 15.2979 80.0898 15.4598V15.5098C80.186 15.671 80.2464 15.851 80.267 16.0376C80.2876 16.2242 80.2678 16.413 80.209 16.5913C80.1502 16.7696 80.0537 16.9332 79.9262 17.0709C79.7987 17.2087 79.6431 17.3175 79.4698 17.3898L76.7398 18.5398L79.4598 19.6798C79.6328 19.7525 79.7883 19.8612 79.916 19.9987C80.0436 20.1363 80.1404 20.2994 80.2001 20.4773C80.2597 20.6552 80.2807 20.8438 80.2617 21.0304C80.2427 21.2171 80.1841 21.3976 80.0898 21.5598V21.6198C80.0013 21.7865 79.8781 21.9323 79.7284 22.0473C79.5788 22.1623 79.4062 22.2439 79.2223 22.2865C79.0384 22.3292 78.8476 22.3319 78.6626 22.2945C78.4776 22.2571 78.3027 22.1805 78.1498 22.0698Z" fill="#263238"/>
<path d="M99.4 22.0699L97.02 20.2599L97.41 23.1699C97.4357 23.356 97.4213 23.5455 97.3678 23.7256C97.3143 23.9058 97.2229 24.0724 97.0999 24.2144C96.9768 24.3564 96.8248 24.4705 96.6541 24.549C96.4834 24.6276 96.2979 24.6688 96.11 24.6699C95.9213 24.6702 95.7347 24.63 95.5628 24.5521C95.3908 24.4742 95.2376 24.3603 95.1135 24.2182C94.9893 24.076 94.8971 23.9089 94.843 23.728C94.789 23.5472 94.7743 23.3569 94.8 23.1699L95.19 20.2599L92.81 22.0699C92.6616 22.1834 92.4907 22.2641 92.3088 22.3066C92.1268 22.3492 91.9379 22.3526 91.7545 22.3167C91.5711 22.2808 91.3974 22.2063 91.2449 22.0983C91.0925 21.9902 90.9647 21.851 90.87 21.6899V21.6299C90.7758 21.4676 90.7172 21.2872 90.6982 21.1005C90.6792 20.9138 90.7002 20.7253 90.7598 20.5474C90.8194 20.3695 90.9163 20.2063 91.0439 20.0688C91.1716 19.9313 91.3271 19.8225 91.5 19.7499L94.23 18.6099L91.5 17.4599C91.3271 17.3872 91.1716 17.2784 91.0439 17.1409C90.9163 17.0034 90.8194 16.8403 90.7598 16.6624C90.7002 16.4845 90.6792 16.2959 90.6982 16.1092C90.7172 15.9226 90.7758 15.7421 90.87 15.5799V15.5299C90.9638 15.368 91.091 15.2278 91.2431 15.1188C91.3951 15.0097 91.5686 14.9343 91.7521 14.8974C91.9355 14.8605 92.1247 14.8631 92.3071 14.9049C92.4895 14.9467 92.661 15.0268 92.81 15.1399L95.19 16.9499L94.8 14.0399C94.7742 13.8534 94.7888 13.6635 94.8429 13.4831C94.8971 13.3028 94.9895 13.1363 95.1138 12.9948C95.2381 12.8534 95.3915 12.7405 95.5634 12.6637C95.7353 12.5869 95.9218 12.5481 96.11 12.5499C96.2975 12.5495 96.4828 12.5894 96.6535 12.6668C96.8242 12.7442 96.9763 12.8574 97.0996 12.9986C97.2228 13.1399 97.3143 13.3059 97.3678 13.4855C97.4214 13.6652 97.4358 13.8542 97.41 14.0399L97.02 16.9499L99.4 15.1399C99.5491 15.0268 99.7205 14.9467 99.9029 14.9049C100.085 14.8631 100.275 14.8605 100.458 14.8974C100.641 14.9343 100.815 15.0097 100.967 15.1188C101.119 15.2278 101.246 15.368 101.34 15.5299V15.5799C101.434 15.7421 101.493 15.9226 101.512 16.1092C101.531 16.2959 101.51 16.4845 101.45 16.6624C101.391 16.8403 101.294 17.0034 101.166 17.1409C101.039 17.2784 100.883 17.3872 100.71 17.4599L97.99 18.6099L100.71 19.7499C100.883 19.8225 101.039 19.9313 101.166 20.0688C101.294 20.2063 101.391 20.3695 101.45 20.5474C101.51 20.7253 101.531 20.9138 101.512 21.1005C101.493 21.2872 101.434 21.4676 101.34 21.6299V21.6899C101.245 21.851 101.118 21.9902 100.965 22.0983C100.813 22.2063 100.639 22.2808 100.456 22.3167C100.272 22.3526 100.083 22.3492 99.9013 22.3066C99.7194 22.2641 99.5485 22.1834 99.4 22.0699Z" fill="#263238"/>
<path d="M120.61 22.0698L118.23 20.2598L118.62 23.1698C118.644 23.3565 118.628 23.5462 118.574 23.7263C118.519 23.9065 118.427 24.0729 118.303 24.2147C118.179 24.3565 118.026 24.4704 117.855 24.5488C117.684 24.6273 117.498 24.6685 117.31 24.6698C117.122 24.6687 116.937 24.6275 116.766 24.549C116.595 24.4704 116.443 24.3563 116.32 24.2143C116.197 24.0723 116.106 23.9057 116.052 23.7256C115.999 23.5454 115.984 23.356 116.01 23.1698L116.39 20.2598L114.02 22.0698C113.872 22.1833 113.701 22.264 113.519 22.3066C113.337 22.3491 113.148 22.3526 112.964 22.3166C112.781 22.2807 112.607 22.2063 112.455 22.0982C112.302 21.9901 112.175 21.8509 112.08 21.6898V21.6298C111.986 21.4676 111.927 21.2871 111.908 21.1005C111.889 20.9138 111.91 20.7252 111.97 20.5473C112.029 20.3694 112.126 20.2063 112.254 20.0687C112.382 19.9312 112.537 19.8225 112.71 19.7498L115.43 18.6098L112.71 17.4598C112.537 17.3871 112.382 17.2784 112.254 17.1409C112.126 17.0034 112.029 16.8402 111.97 16.6623C111.91 16.4844 111.889 16.2958 111.908 16.1092C111.927 15.9225 111.986 15.742 112.08 15.5798V15.5298C112.174 15.3679 112.301 15.2278 112.453 15.1187C112.605 15.0097 112.779 14.9342 112.962 14.8973C113.146 14.8605 113.335 14.863 113.517 14.9048C113.7 14.9466 113.871 15.0267 114.02 15.1398L116.39 16.9498L116.01 14.0398C115.984 13.8541 115.999 13.6651 116.052 13.4855C116.106 13.3059 116.197 13.1398 116.32 12.9986C116.444 12.8573 116.596 12.7442 116.767 12.6668C116.937 12.5893 117.123 12.5495 117.31 12.5498C117.498 12.5497 117.683 12.5896 117.855 12.6669C118.026 12.7442 118.178 12.8572 118.302 12.9982C118.426 13.1393 118.519 13.3051 118.574 13.4847C118.628 13.6644 118.644 13.8536 118.62 14.0398L118.23 16.9498L120.61 15.1398C120.758 15.0269 120.929 14.9469 121.111 14.9052C121.292 14.8634 121.481 14.8609 121.663 14.8978C121.846 14.9348 122.019 15.0102 122.17 15.1192C122.321 15.2282 122.447 15.3682 122.54 15.5298V15.5798C122.634 15.742 122.693 15.9225 122.712 16.1092C122.731 16.2958 122.71 16.4844 122.65 16.6623C122.591 16.8402 122.494 17.0034 122.366 17.1409C122.238 17.2784 122.083 17.3871 121.91 17.4598L119.18 18.6098L121.91 19.7498C122.083 19.8225 122.238 19.9312 122.366 20.0687C122.494 20.2063 122.591 20.3694 122.65 20.5473C122.71 20.7252 122.731 20.9138 122.712 21.1005C122.693 21.2871 122.634 21.4676 122.54 21.6298V21.6898C122.446 21.8507 122.32 21.9897 122.168 22.0977C122.016 22.2057 121.844 22.2802 121.661 22.3161C121.478 22.3521 121.29 22.3487 121.109 22.3062C120.928 22.2638 120.758 22.1832 120.61 22.0698Z" fill="#263238"/>
<path d="M156.06 18.5699C156.06 18.5699 151.74 23.9599 146.41 23.9599C141.08 23.9599 136.77 18.5699 136.77 18.5699C136.77 18.5699 141.08 13.1699 146.41 13.1699C151.74 13.1699 156.06 18.5699 156.06 18.5699Z" fill="white" stroke="#263238" stroke-linecap="round" stroke-linejoin="round"/>
</svg>
