<svg width="400" height="400" viewBox="0 0 400 400" fill="none" xmlns="http://www.w3.org/2000/svg">
<path d="M255.872 309.16L251.016 335.52C236.416 332.84 226.496 318.952 228.928 304.6C231.384 290.096 245.568 280.232 260.352 282.736C275.136 285.24 285.272 299.232 282.816 313.728L255.872 309.16Z" fill="#A39A9A"/>
<path d="M329.128 191.664C334.694 194.791 341.27 195.596 347.426 193.903C353.583 192.21 358.823 188.157 362.008 182.624C363.575 179.89 364.585 176.873 364.98 173.747C365.376 170.621 365.148 167.448 364.312 164.41C363.475 161.372 362.046 158.53 360.106 156.047C358.166 153.565 355.753 151.49 353.008 149.944C347.441 146.817 340.866 146.012 334.71 147.705C328.553 149.397 323.313 153.451 320.128 158.984C318.563 161.718 317.555 164.735 317.161 167.861C316.767 170.986 316.994 174.159 317.831 177.196C318.667 180.233 320.096 183.075 322.035 185.558C323.973 188.041 326.384 190.116 329.128 191.664ZM331.056 165.152C332.58 162.507 335.085 160.57 338.028 159.762C340.971 158.953 344.115 159.337 346.776 160.832C348.089 161.571 349.242 162.563 350.17 163.75C351.098 164.937 351.781 166.295 352.181 167.748C352.581 169.2 352.69 170.717 352.501 172.212C352.312 173.706 351.829 175.149 351.08 176.456C349.562 179.106 347.058 181.05 344.114 181.863C341.17 182.677 338.024 182.295 335.36 180.8C334.045 180.06 332.889 179.067 331.96 177.878C331.031 176.689 330.347 175.328 329.946 173.873C329.546 172.418 329.438 170.898 329.629 169.401C329.819 167.905 330.304 166.46 331.056 165.152Z" fill="#F5F5F5"/>
<path d="M362.008 182.624C358.823 188.157 353.583 192.21 347.426 193.903C341.27 195.596 334.694 194.791 329.128 191.664L335.36 180.8C338.021 182.297 341.165 182.682 344.109 181.873C347.052 181.064 349.558 179.126 351.08 176.48C351.838 175.17 352.328 173.723 352.522 172.223C352.715 170.722 352.609 169.198 352.208 167.739C351.808 166.28 351.121 164.916 350.189 163.724C349.256 162.533 348.096 161.539 346.776 160.8L353.008 149.912C355.758 151.458 358.174 153.534 360.116 156.019C362.059 158.504 363.49 161.35 364.327 164.392C365.164 167.433 365.39 170.61 364.992 173.74C364.594 176.869 363.58 179.889 362.008 182.624Z" fill="#EBEBEB"/>
<path d="M330.992 195.248C316.848 187.248 311.288 170.12 319.36 156.048L333.528 163.416C329.672 170.16 330.328 177.776 337.072 181.592L330.992 195.248Z" fill="#FAFAFA"/>
<path d="M362.664 30.968C353.111 22.1359 340.459 17.429 327.457 17.8694C314.454 18.3098 302.15 23.8618 293.216 33.32C288.822 38.0005 285.397 43.5039 283.138 49.5132C280.88 55.5226 279.832 61.9193 280.055 68.3353C280.278 74.7512 281.768 81.0597 284.438 86.8977C287.109 92.7357 290.908 97.9879 295.616 102.352C305.168 111.174 317.812 115.875 330.807 115.435C343.802 114.994 356.1 109.449 365.032 100C369.428 95.3215 372.855 89.8198 375.117 83.8116C377.378 77.8034 378.429 71.4073 378.209 64.9913C377.989 58.5754 376.502 52.2663 373.834 46.4272C371.167 40.5881 367.37 35.3342 362.664 30.968ZM346.296 82.6C342.025 87.1244 336.142 89.7808 329.924 89.992C323.706 90.2032 317.656 87.9522 313.088 83.728C310.837 81.6405 309.022 79.1285 307.746 76.3367C306.47 73.5448 305.759 70.5281 305.653 67.4603C305.548 64.3925 306.05 61.3341 307.131 58.4611C308.212 55.5881 309.85 52.9572 311.952 50.72C316.225 46.1986 322.109 43.545 328.326 43.3353C334.543 43.1256 340.592 45.3767 345.16 49.6C347.41 51.6867 349.226 54.198 350.502 56.9892C351.778 59.7804 352.489 62.7964 352.594 65.8636C352.7 68.9308 352.198 71.9885 351.117 74.8609C350.036 77.7332 348.398 80.3634 346.296 82.6Z" fill="#F5F5F5"/>
<path d="M293.216 33.32C302.15 23.8618 314.454 18.3098 327.457 17.8694C340.459 17.429 353.111 22.1359 362.664 30.968L345.16 49.6C340.592 45.3767 334.543 43.1256 328.326 43.3353C322.109 43.545 316.225 46.1986 311.952 50.72C309.85 52.9572 308.212 55.5881 307.131 58.4611C306.05 61.3341 305.548 64.3925 305.653 67.4603C305.759 70.5281 306.47 73.5448 307.746 76.3367C309.022 79.1285 310.837 81.6405 313.088 83.728L295.584 102.352C290.878 97.9857 287.082 92.7318 284.414 86.8927C281.746 81.0536 280.259 74.7445 280.039 68.3286C279.819 61.9127 280.87 55.5165 283.131 49.5083C285.393 43.5001 288.82 37.9985 293.216 33.32Z" fill="#EBEBEB"/>
<path d="M360.656 22.9919C384.912 45.5119 387.816 82.1199 365.16 106.232L340.552 84.9119C351.392 73.3839 353.744 57.9999 342.152 47.2239L360.656 22.9919Z" fill="#FAFAFA"/>
<path d="M129.456 34.1599H42.144V113.008H129.456V34.1599Z" fill="#F5F5F5"/>
<path d="M380.28 383.336C380.28 383.448 298.4 383.544 197.408 383.544C96.416 383.544 14.52 383.448 14.52 383.336C14.52 383.224 96.384 383.128 197.408 383.128C298.432 383.128 380.28 383.2 380.28 383.336Z" fill="#263238"/>
<path d="M165.704 350.136L185.44 359.272C177.584 376.248 162.2 386.096 151.376 381.088C140.552 376.08 136.856 357.128 144.72 340.152C152.584 323.176 167.008 317.912 178.912 318.736C178.912 318.736 188.512 318.544 192.344 325.256L165.704 350.136Z" fill="#263238"/>
<path d="M172.552 351.264L192.288 360.4C184.424 377.376 169.048 387.224 158.224 382.216C147.4 377.208 144.952 359.104 152.816 342.128C160.68 325.152 176.016 315.304 186.88 320.312C190.512 322 193.352 325.224 195.072 329.64L172.552 351.264Z" fill="#455A64"/>
<path d="M150.704 347.352C149.295 348.289 147.79 349.075 146.216 349.696C144.702 350.453 143.116 351.053 141.48 351.488C142.956 350.671 144.481 349.946 146.048 349.32C147.559 348.57 149.113 347.913 150.704 347.352Z" fill="#455A64"/>
<path d="M149.392 356.56C148.044 357.463 146.604 358.219 145.096 358.816C143.647 359.545 142.123 360.116 140.552 360.52C141.964 359.732 143.425 359.037 144.928 358.44C146.375 357.719 147.866 357.092 149.392 356.56Z" fill="#455A64"/>
<path d="M150.016 364.4C148.813 365.239 147.516 365.934 146.152 366.472C144.845 367.133 143.465 367.637 142.04 367.976C143.306 367.249 144.624 366.618 145.984 366.088C147.285 365.428 148.633 364.864 150.016 364.4Z" fill="#455A64"/>
<path d="M152.752 371.48C151.55 372.318 150.253 373.011 148.888 373.544C147.58 374.205 146.201 374.712 144.776 375.056C146.042 374.329 147.36 373.698 148.72 373.168C150.021 372.507 151.368 371.943 152.752 371.48Z" fill="#455A64"/>
<path d="M158.624 377.096C157.426 377.938 156.131 378.633 154.768 379.168C153.461 379.829 152.081 380.333 150.656 380.672C151.919 379.944 153.234 379.313 154.592 378.784C155.894 378.126 157.242 377.562 158.624 377.096Z" fill="#455A64"/>
<path d="M154.4 338.936C152.612 339.964 150.757 340.873 148.848 341.656C146.992 342.56 145.079 343.34 143.12 343.992C144.911 342.963 146.768 342.054 148.68 341.272C150.533 340.368 152.444 339.587 154.4 338.936Z" fill="#455A64"/>
<path d="M160.136 330.608C158.017 331.691 155.838 332.65 153.608 333.48C151.429 334.439 149.196 335.27 146.92 335.968C149.038 334.885 151.218 333.926 153.448 333.096C155.627 332.136 157.86 331.306 160.136 330.608Z" fill="#455A64"/>
<path d="M171.792 321.256C171.792 321.36 167.648 323.016 162.448 324.944C157.248 326.872 152.992 328.344 152.952 328.24C152.912 328.136 157.096 326.48 162.304 324.552C167.512 322.624 171.752 321.144 171.792 321.256Z" fill="#455A64"/>
<path d="M249.832 360.208H167.04V382.912H249.832V360.208Z" fill="#898686"/>
<path d="M183.728 360.208C183.816 360.28 180.328 365.472 175.928 371.824C171.528 378.176 167.928 383.264 167.792 383.2C167.656 383.136 171.192 377.936 175.592 371.584C179.992 365.232 183.632 360.144 183.728 360.208Z" fill="#263238"/>
<path d="M195.944 360.208C196.04 360.28 192.552 365.472 188.152 371.824C183.752 378.176 180.112 383.264 180 383.2C179.888 383.136 183.392 377.936 187.792 371.584C192.192 365.232 195.848 360.144 195.944 360.208Z" fill="#263238"/>
<path d="M208.168 360.208C208.256 360.28 204.768 365.472 200.368 371.824C195.968 378.176 192.328 383.264 192.232 383.2C192.136 383.136 195.632 377.936 200.032 371.584C204.432 365.232 208.072 360.144 208.168 360.208Z" fill="#263238"/>
<path d="M220.384 360.208C220.48 360.28 216.992 365.472 212.592 371.824C208.192 378.176 204.552 383.264 204.456 383.2C204.36 383.136 207.848 377.936 212.248 371.584C216.648 365.232 220.288 360.144 220.384 360.208Z" fill="#263238"/>
<path d="M232.608 360.208C232.696 360.28 229.208 365.472 224.808 371.824C220.408 378.176 216.8 383.264 216.672 383.2C216.544 383.136 220.072 377.936 224.472 371.584C228.872 365.232 232.512 360.144 232.608 360.208Z" fill="#263238"/>
<path d="M244.8 360.208C244.896 360.28 241.408 365.472 237.008 371.824C232.608 378.176 228.968 383.264 228.872 383.2C228.776 383.136 232.264 377.936 236.664 371.584C241.064 365.232 244.728 360.144 244.8 360.208Z" fill="#263238"/>
<path d="M255.872 350.296H189.08V360.208H255.872V350.296Z" fill="#263238"/>
<path d="M208.512 350.248C207.918 352 207.19 353.703 206.336 355.344C205.609 357.043 204.756 358.685 203.784 360.256C204.382 358.508 205.109 356.808 205.96 355.168C206.689 353.468 207.542 351.824 208.512 350.248Z" fill="#455A64"/>
<path d="M218.984 350.248C218.39 352 217.662 353.703 216.808 355.344C216.081 357.043 215.228 358.685 214.256 360.256C214.854 358.508 215.581 356.808 216.432 355.168C217.158 353.466 218.011 351.822 218.984 350.248Z" fill="#455A64"/>
<path d="M229.456 350.248C228.857 351.998 228.13 353.701 227.28 355.344C226.553 357.043 225.7 358.685 224.728 360.256C225.326 358.508 226.053 356.808 226.904 355.168C227.63 353.466 228.483 351.822 229.456 350.248Z" fill="#455A64"/>
<path d="M239.928 350.248C239.329 351.998 238.602 353.701 237.752 355.344C237.025 357.043 236.172 358.685 235.2 360.256C235.798 358.508 236.525 356.808 237.376 355.168C238.102 353.466 238.955 351.822 239.928 350.248Z" fill="#455A64"/>
<path d="M250.4 350.248C249.802 351.998 249.074 353.701 248.224 355.344C247.497 357.043 246.644 358.685 245.672 360.256C246.27 358.508 246.997 356.808 247.848 355.168C248.574 353.466 249.427 351.822 250.4 350.248Z" fill="#455A64"/>
<path d="M199.528 350.248C198.929 351.998 198.202 353.701 197.352 355.344C196.625 357.043 195.772 358.685 194.8 360.256C195.398 358.508 196.125 356.808 196.976 355.168C197.702 353.466 198.555 351.822 199.528 350.248Z" fill="#455A64"/>
<path d="M239.136 272L244.208 350.12C239.784 350.408 235.288 351.848 230.968 350.56C226.648 349.272 222.168 349.272 217.912 348.08L231.2 272.256L239.136 272Z" fill="#898686"/>
<path opacity="0.4" d="M239.136 272L244.208 350.12C239.784 350.408 235.288 351.848 230.968 350.56C226.648 349.272 222.168 349.272 217.912 348.08L231.2 272.256L239.136 272Z" fill="black"/>
<path d="M231.2 272.256L236.328 351.072C227.455 351.649 218.549 350.724 209.984 348.336L231.2 272.256Z" fill="#898686"/>
<path d="M243.2 335.64C242.142 337.448 240.963 339.182 239.672 340.832C238.495 342.559 237.207 344.208 235.816 345.768C238.049 342.231 240.515 338.847 243.2 335.64Z" fill="#263238"/>
<path d="M242.528 322.4C241.466 324.206 240.288 325.94 239 327.592C237.825 329.323 236.534 330.972 235.136 332.528C236.201 330.727 237.379 328.996 238.664 327.344C239.84 325.612 241.131 323.96 242.528 322.4Z" fill="#263238"/>
<path d="M241.824 309.16C240.771 310.967 239.595 312.699 238.304 314.344C237.13 316.078 235.839 317.73 234.44 319.288C235.499 317.483 236.678 315.752 237.968 314.104C239.146 312.375 240.434 310.724 241.824 309.16Z" fill="#263238"/>
<path d="M241.128 295.92C240.072 297.725 238.896 299.457 237.608 301.104C236.428 302.834 235.137 304.485 233.744 306.048C234.799 304.242 235.975 302.51 237.264 300.864C238.444 299.134 239.734 297.482 241.128 295.92Z" fill="#263238"/>
<path d="M240.432 282.68C239.373 284.484 238.194 286.216 236.904 287.864C235.73 289.595 234.439 291.244 233.04 292.8C234.103 290.998 235.281 289.266 236.568 287.616C237.745 285.886 239.036 284.237 240.432 282.68Z" fill="#263238"/>
<path d="M237.864 272C236.255 274.683 234.408 277.216 232.344 279.568C233.094 278.194 233.961 276.888 234.936 275.664C235.802 274.358 236.781 273.132 237.864 272Z" fill="#263238"/>
<path d="M235 341.936C234.306 342.351 233.55 342.651 232.76 342.824C230.071 343.524 227.215 343.179 224.77 341.858C222.325 340.536 220.472 338.337 219.584 335.704C218.914 333.86 218.795 331.862 219.24 329.952C219.483 328.934 219.951 327.982 220.608 327.168C221.297 326.331 222.202 325.698 223.224 325.336C224.256 324.952 225.392 324.952 226.424 325.336C227.409 325.735 228.247 326.428 228.824 327.32C229.395 328.133 229.749 329.079 229.851 330.068C229.953 331.057 229.801 332.055 229.408 332.968C228.623 334.579 227.265 335.84 225.6 336.504C224.177 337.104 222.615 337.298 221.088 337.064C219.841 336.872 218.639 336.451 217.544 335.824C216.715 335.365 215.939 334.815 215.232 334.184C214.787 333.787 214.364 333.365 213.968 332.92C213.827 332.77 213.701 332.606 213.592 332.432C213.748 332.566 213.895 332.71 214.032 332.864C214.328 333.144 214.744 333.576 215.336 334.064C216.978 335.488 218.978 336.434 221.12 336.8C222.592 337.004 224.092 336.799 225.456 336.208C227.031 335.565 228.314 334.363 229.056 332.832C229.414 331.978 229.549 331.046 229.448 330.125C229.348 329.205 229.014 328.325 228.48 327.568C227.947 326.749 227.177 326.113 226.272 325.744C225.333 325.392 224.299 325.392 223.36 325.744C222.42 326.083 221.591 326.673 220.96 327.448C220.341 328.211 219.898 329.102 219.664 330.056C219.234 331.893 219.342 333.815 219.976 335.592C220.488 337.105 221.327 338.486 222.433 339.638C223.539 340.789 224.885 341.683 226.376 342.256C228.424 343.009 230.646 343.156 232.776 342.68C233.534 342.485 234.277 342.236 235 341.936Z" fill="#FAFAFA"/>
<path d="M233.352 307.2C232.635 307.509 231.9 307.776 231.152 308C227.618 309.215 224.278 310.931 221.232 313.096C220.624 313.579 219.989 314.025 219.328 314.432C219.839 313.833 220.419 313.296 221.056 312.832C222.545 311.673 224.139 310.655 225.816 309.792C227.496 308.93 229.253 308.228 231.064 307.696C231.804 307.437 232.572 307.271 233.352 307.2Z" fill="#FAFAFA"/>
<path d="M232.704 289.072C231.889 290.386 230.755 291.472 229.409 292.231C228.062 292.991 226.546 293.398 225 293.416C226.456 293.061 227.868 292.543 229.208 291.872C230.478 291.077 231.651 290.137 232.704 289.072Z" fill="#FAFAFA"/>
<path d="M324.824 66.6641H107.376V263.032H324.824V66.6641Z" fill="#F5F5F5"/>
<path d="M324.8 263.032C324.8 261.536 324.736 184.768 324.624 66.6639L324.8 66.8399H107.368L107.576 66.6319C107.576 138.112 107.576 205.36 107.576 263L107.392 262.816L324.84 263L107.376 263.2H107.2V263.016C107.2 205.376 107.2 138.128 107.2 66.6479V66.4399H107.424H324.856H325.04V66.6159C324.896 184.8 324.8 261.536 324.8 263.032Z" fill="#263238"/>
<path d="M325.64 78.4639C325.64 78.5759 276.776 78.6719 216.512 78.6719C156.248 78.6719 107.376 78.5759 107.376 78.4639C107.376 78.3519 156.232 78.2559 216.512 78.2559C276.792 78.2559 325.64 78.3519 325.64 78.4639Z" fill="#E0E0E0"/>
<path d="M113.136 75.784C114.351 75.784 115.336 74.7991 115.336 73.584C115.336 72.369 114.351 71.384 113.136 71.384C111.921 71.384 110.936 72.369 110.936 73.584C110.936 74.7991 111.921 75.784 113.136 75.784Z" fill="#E0E0E0"/>
<path d="M119.928 75.784C121.143 75.784 122.128 74.7991 122.128 73.584C122.128 72.369 121.143 71.384 119.928 71.384C118.713 71.384 117.728 72.369 117.728 73.584C117.728 74.7991 118.713 75.784 119.928 75.784Z" fill="#E0E0E0"/>
<path d="M126.72 75.784C127.935 75.784 128.92 74.7991 128.92 73.584C128.92 72.369 127.935 71.384 126.72 71.384C125.505 71.384 124.52 72.369 124.52 73.584C124.52 74.7991 125.505 75.784 126.72 75.784Z" fill="#E0E0E0"/>
<path d="M291.096 231.2C291.096 232.307 290.768 233.39 290.152 234.311C289.537 235.232 288.663 235.95 287.639 236.374C286.616 236.797 285.49 236.908 284.404 236.692C283.317 236.476 282.32 235.943 281.536 235.16C280.753 234.376 280.22 233.379 280.004 232.292C279.788 231.206 279.899 230.08 280.323 229.057C280.746 228.034 281.464 227.159 282.385 226.544C283.306 225.928 284.389 225.6 285.496 225.6C286.981 225.6 288.406 226.19 289.456 227.24C290.506 228.29 291.096 229.715 291.096 231.2Z" fill="#898686"/>
<path d="M291.096 246.4C291.096 247.508 290.768 248.59 290.152 249.511C289.537 250.432 288.663 251.15 287.639 251.574C286.616 251.998 285.49 252.109 284.404 251.892C283.317 251.676 282.32 251.143 281.536 250.36C280.753 249.577 280.22 248.579 280.004 247.493C279.788 246.406 279.899 245.28 280.323 244.257C280.746 243.234 281.464 242.359 282.385 241.744C283.306 241.128 284.389 240.8 285.496 240.8C286.981 240.8 288.406 241.39 289.456 242.44C290.506 243.49 291.096 244.915 291.096 246.4Z" fill="#455A64"/>
<path d="M308 230.048C305.761 230.254 303.512 230.323 301.264 230.256C299.017 230.323 296.767 230.254 294.528 230.048C296.767 229.837 299.017 229.768 301.264 229.84C303.512 229.768 305.762 229.837 308 230.048Z" fill="#263238"/>
<path d="M307.136 246.84C305.16 247.051 303.171 247.12 301.184 247.048C299.2 247.12 297.214 247.051 295.24 246.84C299.201 246.563 303.176 246.563 307.136 246.84Z" fill="#263238"/>
<path d="M211.456 172.352L202.496 109.448C216.563 107.449 230.893 110.22 243.2 117.32C273.384 134.752 283.888 173.936 266.456 204.128C249.024 234.32 209.872 244.8 179.688 227.384L211.456 172.352Z" fill="#898686"/>
<path opacity="0.3" d="M211.456 172.352L202.496 109.448C216.563 107.449 230.893 110.22 243.2 117.32C273.384 134.752 283.888 173.936 266.456 204.128C249.024 234.32 209.872 244.8 179.688 227.384L211.456 172.352Z" fill="black"/>
<path d="M199.792 170.048L190.832 107.144C204.908 105.137 219.249 107.911 231.56 115.024C261.752 132.448 272.248 171.632 254.816 201.824C237.384 232.016 198.208 242.512 168 225.08L199.792 170.048Z" fill="#898686"/>
<path d="M230.504 232.992C230.504 233.04 228.608 232.272 226.32 231.28C224.032 230.288 222.184 229.456 222.2 229.408C222.216 229.36 224.088 230.136 226.384 231.128C228.68 232.12 230.52 232.952 230.504 232.992Z" fill="#263238"/>
<path d="M220 235.2C220 235.24 218.4 234.608 216.496 233.776C214.592 232.944 213.048 232.248 213.064 232.176C213.08 232.104 214.664 232.768 216.568 233.592C218.472 234.416 220 235.2 220 235.2Z" fill="#263238"/>
<path d="M241.552 228.304C241.552 228.344 239.456 227.504 236.896 226.464C234.336 225.424 232.288 224.512 232.304 224.472C232.32 224.432 234.408 225.272 236.96 226.312C239.512 227.352 241.6 228.264 241.552 228.304Z" fill="#263238"/>
<path d="M251.2 222.568C251.2 222.608 249.064 221.664 246.472 220.448C243.88 219.232 241.8 218.224 241.816 218.176C241.832 218.128 243.952 219.088 246.544 220.296C249.136 221.504 251.2 222.528 251.2 222.568Z" fill="#263238"/>
<path d="M258.32 214.4C258.32 214.44 256.264 213.496 253.768 212.296C251.272 211.096 249.272 210.08 249.296 210.04C249.32 210 251.352 210.944 253.84 212.144C256.328 213.344 258.336 214.352 258.32 214.4Z" fill="#263238"/>
<path d="M266.024 208.176C266.024 208.176 263.4 206.968 260.208 205.392C257.016 203.816 254.44 202.504 254.464 202.464C254.488 202.424 257.088 203.664 260.28 205.24C263.472 206.816 266.048 208.136 266.024 208.176Z" fill="#263238"/>
<path d="M268.8 199.656C268.651 199.628 268.506 199.582 268.368 199.52L267.224 199.072C266.264 198.672 264.952 198.096 263.528 197.4C262.104 196.704 260.848 196.016 259.944 195.496C259.496 195.24 259.144 195.024 258.888 194.872C258.758 194.794 258.632 194.709 258.512 194.616C258.654 194.671 258.79 194.738 258.92 194.816L260 195.392C260.912 195.888 262.184 196.552 263.6 197.248C265.016 197.944 266.32 198.536 267.272 198.96L268.392 199.456C268.532 199.514 268.669 199.58 268.8 199.656Z" fill="#263238"/>
<path d="M271.88 192C271.88 192.04 269.48 190.92 266.584 189.496C263.688 188.072 261.344 186.88 261.36 186.84C261.376 186.8 263.76 187.92 266.664 189.344C269.568 190.768 271.904 191.928 271.88 192Z" fill="#263238"/>
<path d="M273.6 183.064C273.6 183.064 271.2 181.984 268.304 180.56C265.408 179.136 263.064 177.944 263.088 177.904C263.112 177.864 265.488 178.984 268.384 180.408C271.28 181.832 273.656 183.024 273.6 183.064Z" fill="#263238"/>
<path d="M274.888 174.552C274.888 174.592 272.312 173.384 269.184 171.848C266.056 170.312 263.544 169.04 263.584 169C263.624 168.96 266.16 170.168 269.288 171.696C272.416 173.224 274.904 174.504 274.888 174.552Z" fill="#263238"/>
<path d="M274.44 164.848C274.44 164.888 271.664 163.496 268.296 161.728C264.928 159.96 262.2 158.528 262.216 158.464C262.232 158.4 264.992 159.816 268.368 161.584C271.744 163.352 274.464 164.8 274.44 164.848Z" fill="#263238"/>
<path d="M272.384 154.76C272.384 154.8 269.4 153.296 265.76 151.392C262.12 149.488 259.2 147.92 259.2 147.88C259.2 147.84 262.192 149.344 265.832 151.248C269.472 153.152 272.408 154.72 272.384 154.76Z" fill="#263238"/>
<path d="M267.664 142.928C267.664 142.968 264.392 141.4 260.4 139.432C256.408 137.464 253.2 135.824 253.2 135.784C253.2 135.744 256.472 137.304 260.464 139.28C264.456 141.256 267.688 142.888 267.664 142.928Z" fill="#263238"/>
<path d="M262.216 133.88C262.216 133.92 258.392 132.072 253.728 129.744C249.064 127.416 245.28 125.504 245.304 125.456C245.328 125.408 249.128 127.272 253.8 129.592C258.472 131.912 262.24 133.84 262.216 133.88Z" fill="#263238"/>
<path d="M249.2 121.24C249.2 121.288 245.2 119.928 240.352 118.208C235.504 116.488 231.552 115.064 231.552 115.008C231.552 114.952 235.552 116.32 240.4 118.04C245.248 119.76 249.216 121.2 249.2 121.24Z" fill="#263238"/>
<path d="M262.256 156.592C262.256 156.592 262.016 156.64 261.536 156.712L260.648 156.84C260.304 156.912 259.904 157.032 259.456 157.152C256.838 157.993 254.416 159.353 252.336 161.152C250.936 162.264 249.456 163.552 247.84 165.04C246.105 166.646 244.275 168.148 242.36 169.536C240.014 171.253 237.313 172.421 234.455 172.955C231.597 173.49 228.656 173.377 225.848 172.624C222.56 171.785 219.579 170.026 217.256 167.552C216.03 166.229 215.034 164.709 214.312 163.056C213.55 161.34 213.17 159.478 213.2 157.6C213.226 155.649 213.779 153.742 214.8 152.08C215.876 150.383 217.333 148.961 219.056 147.928C220.821 146.857 222.792 146.17 224.84 145.912C226.95 145.692 229.082 145.921 231.096 146.584C235.258 148.023 238.841 150.774 241.304 154.424C243.817 158.235 245.456 162.554 246.104 167.072C246.854 171.711 246.983 176.43 246.488 181.104C246.006 185.929 244.696 190.635 242.616 195.016C240.522 199.398 237.523 203.286 233.816 206.424C230.207 209.492 225.876 211.592 221.232 212.528C216.739 213.397 212.096 213.046 207.784 211.512C203.732 210.091 200.222 207.443 197.744 203.937C195.265 200.43 193.94 196.238 193.952 191.944C193.964 189.948 194.313 187.968 194.984 186.088C195.604 184.244 196.626 182.56 197.976 181.16C198.649 180.485 199.424 179.921 200.272 179.488C201.118 179.081 202.032 178.834 202.968 178.76C204.795 178.68 206.599 179.19 208.112 180.216C208.841 180.703 209.507 181.278 210.096 181.928C210.665 182.574 211.146 183.293 211.528 184.064C212.223 185.568 212.576 187.207 212.56 188.864C212.476 191.951 211.492 194.945 209.728 197.48C208.19 199.746 206.198 201.669 203.88 203.128C201.874 204.406 199.651 205.306 197.32 205.784C195.365 206.184 193.36 206.279 191.376 206.064C188.629 205.775 185.973 204.917 183.576 203.544C182.73 203.084 181.926 202.548 181.176 201.944C181.176 201.944 181.384 202.08 181.776 202.368C182.36 202.777 182.963 203.156 183.584 203.504C185.987 204.821 188.633 205.638 191.36 205.904C195.699 206.344 200.058 205.295 203.72 202.928C206.004 201.479 207.963 199.572 209.472 197.328C211.202 194.835 212.162 191.889 212.232 188.856C212.251 187.237 211.904 185.634 211.216 184.168C210.844 183.424 210.379 182.73 209.832 182.104C209.256 181.479 208.609 180.923 207.904 180.448C206.445 179.465 204.709 178.977 202.952 179.056C202.063 179.13 201.195 179.369 200.392 179.76C199.578 180.171 198.835 180.712 198.192 181.36C196.878 182.723 195.885 184.363 195.288 186.16C194.636 188.002 194.298 189.941 194.288 191.896C194.281 196.112 195.587 200.226 198.024 203.667C200.461 207.107 203.908 209.704 207.888 211.096C212.134 212.603 216.706 212.946 221.128 212.088C225.704 211.166 229.969 209.093 233.52 206.064C237.192 202.969 240.164 199.13 242.24 194.8C244.301 190.46 245.598 185.797 246.072 181.016C246.564 176.38 246.44 171.699 245.704 167.096C245.068 162.638 243.46 158.375 240.992 154.608C238.582 151.025 235.072 148.324 230.992 146.912C229.03 146.26 226.952 146.034 224.896 146.248C222.913 146.499 221.005 147.164 219.296 148.2C217.621 149.193 216.2 150.563 215.144 152.2C214.14 153.805 213.588 155.651 213.544 157.544C213.511 159.372 213.879 161.186 214.624 162.856C215.326 164.472 216.294 165.96 217.488 167.256C219.765 169.697 222.694 171.435 225.928 172.264C228.695 173.018 231.596 173.14 234.417 172.622C237.237 172.104 239.906 170.959 242.224 169.272C244.137 167.895 245.969 166.41 247.712 164.824C249.312 163.376 250.824 162.056 252.24 160.96C254.346 159.169 256.796 157.83 259.44 157.024C259.896 156.912 260.296 156.792 260.648 156.728L261.544 156.624L262.256 156.592Z" fill="#FAFAFA"/>
<path d="M238.224 118.808C238.224 118.808 238.176 118.88 238.08 119L237.632 119.536C237.224 120 236.624 120.688 235.8 121.52C233.49 123.901 230.85 125.938 227.96 127.568C225.951 128.689 223.798 129.529 221.56 130.064C218.99 130.686 216.328 130.836 213.704 130.504C212.284 130.313 210.891 129.958 209.552 129.448C208.146 128.923 206.843 128.154 205.704 127.176C204.5 126.17 203.556 124.888 202.952 123.44C202.631 122.687 202.47 121.877 202.478 121.059C202.487 120.241 202.664 119.434 203 118.688C203.734 117.21 205.022 116.083 206.584 115.552C208.077 114.992 209.723 114.992 211.216 115.552C212.634 116.131 213.836 117.138 214.656 118.432C215.455 119.649 215.926 121.051 216.024 122.504C216.07 123.84 215.845 125.171 215.361 126.417C214.876 127.663 214.144 128.798 213.208 129.752C211.604 131.434 209.562 132.633 207.312 133.216C205.488 133.705 203.597 133.894 201.712 133.776C200.287 133.698 198.874 133.47 197.496 133.096C196.625 132.861 195.773 132.565 194.944 132.208C194.664 132.088 194.448 131.992 194.312 131.92C194.236 131.888 194.164 131.848 194.096 131.8C194.176 131.818 194.254 131.845 194.328 131.88L194.976 132.136C195.813 132.453 196.668 132.72 197.536 132.936C198.91 133.278 200.314 133.482 201.728 133.544C203.595 133.642 205.465 133.433 207.264 132.928C209.452 132.343 211.435 131.163 212.992 129.52C213.885 128.593 214.582 127.497 215.042 126.296C215.502 125.095 215.717 123.813 215.672 122.528C215.572 121.143 215.118 119.807 214.352 118.648C213.577 117.429 212.442 116.481 211.104 115.936C209.686 115.405 208.124 115.408 206.708 115.944C205.292 116.479 204.119 117.511 203.408 118.848C203.108 119.547 202.953 120.299 202.953 121.06C202.953 121.82 203.108 122.573 203.408 123.272C203.989 124.656 204.891 125.882 206.04 126.848C208.269 128.656 210.971 129.787 213.824 130.104C216.405 130.442 219.026 130.309 221.56 129.712C223.768 129.202 225.897 128.394 227.888 127.312C230.767 125.709 233.413 123.72 235.752 121.4C236.592 120.6 237.208 119.928 237.632 119.48L238.112 118.968C238.16 118.856 238.216 118.8 238.224 118.808Z" fill="#FAFAFA"/>
<path d="M286.144 179.448C286.124 179.326 286.11 179.203 286.104 179.08C286.104 178.824 286.064 178.472 286.032 178.016C285.976 177.056 285.896 175.68 285.792 173.912C285.536 170.36 285.184 165.2 284.192 158.904C284.064 158.104 283.928 157.304 283.792 156.504L283.272 154C282.96 152.288 282.432 150.56 281.984 148.744C280.866 144.903 279.398 141.173 277.6 137.6C273.824 130.064 267.664 122.912 260.104 116.84C256.344 113.972 252.351 111.422 248.168 109.216C246.12 108.2 244.12 107.16 242.08 106.32C240.04 105.48 238.04 104.672 236.08 103.92C229.056 101.407 221.791 99.6299 214.4 98.6159C209.416 97.9133 204.384 97.6083 199.352 97.7039C198.464 97.7039 197.672 97.7439 196.952 97.7919L195.224 97.8879L194.152 97.9439H193.792C193.792 97.9439 193.912 97.9439 194.152 97.8959L195.216 97.8079L196.952 97.6639C197.632 97.5999 198.424 97.5439 199.352 97.5439C204.395 97.391 209.442 97.6586 214.44 98.3439C221.867 99.324 229.169 101.088 236.224 103.608C238.2 104.36 240.224 105.08 242.256 106.008C244.288 106.936 246.312 107.88 248.376 108.904C252.584 111.115 256.598 113.676 260.376 116.56C267.984 122.664 274.176 129.872 277.976 137.472C279.761 141.066 281.215 144.814 282.32 148.672C282.76 150.496 283.28 152.24 283.592 153.96C283.76 154.816 283.928 155.648 284.096 156.472C284.264 157.296 284.36 158.072 284.48 158.872C285.448 165.184 285.752 170.352 285.96 173.912C286.048 175.696 286.088 177.112 286.12 178.024C286.12 178.48 286.12 178.824 286.12 179.088C286.12 179.352 286.144 179.448 286.144 179.448Z" fill="#898686"/>
<path d="M290.992 179.448C290.994 180.409 290.71 181.349 290.177 182.149C289.644 182.949 288.886 183.572 287.998 183.941C287.111 184.309 286.134 184.406 285.191 184.219C284.248 184.032 283.382 183.569 282.703 182.89C282.023 182.21 281.56 181.344 281.373 180.401C281.186 179.459 281.283 178.481 281.651 177.594C282.02 176.706 282.644 175.948 283.443 175.415C284.243 174.882 285.183 174.598 286.144 174.6C287.43 174.6 288.663 175.111 289.572 176.02C290.481 176.929 290.992 178.162 290.992 179.448Z" fill="#898686"/>
<path d="M198.68 97.9439C198.68 98.9028 198.396 99.8401 197.863 100.637C197.33 101.435 196.573 102.056 195.687 102.423C194.802 102.79 193.827 102.886 192.886 102.699C191.946 102.512 191.082 102.05 190.404 101.372C189.726 100.694 189.264 99.8302 189.077 98.8897C188.89 97.9493 188.986 96.9746 189.353 96.0887C189.72 95.2028 190.341 94.4457 191.139 93.913C191.936 93.3803 192.873 93.0959 193.832 93.0959C195.118 93.0959 196.351 93.6067 197.26 94.5159C198.169 95.4251 198.68 96.6582 198.68 97.9439Z" fill="#898686"/>
<path d="M213.712 89.456C213.712 89.568 208.528 89.6641 202.128 89.6641C195.728 89.6641 190.536 89.568 190.536 89.456C190.536 89.344 195.72 89.248 202.128 89.248C208.536 89.248 213.712 89.336 213.712 89.456Z" fill="#263238"/>
<path d="M219.352 89.4159C218.739 89.6178 218.09 89.6887 217.448 89.6239C216.809 89.6892 216.162 89.6183 215.552 89.4159C216.162 89.2134 216.809 89.1426 217.448 89.2079C218.09 89.1431 218.739 89.214 219.352 89.4159Z" fill="#263238"/>
<path d="M196.512 97.944C196.512 98.4994 196.348 99.0423 196.039 99.504C195.73 99.9658 195.292 100.326 194.779 100.538C194.266 100.751 193.701 100.806 193.156 100.698C192.612 100.59 192.111 100.322 191.719 99.9295C191.326 99.5368 191.059 99.0365 190.95 98.4918C190.842 97.9471 190.897 97.3825 191.11 96.8694C191.323 96.3563 191.682 95.9178 192.144 95.6092C192.606 95.3007 193.149 95.136 193.704 95.136C194.449 95.136 195.163 95.4318 195.69 95.9584C196.216 96.485 196.512 97.1993 196.512 97.944Z" fill="#F5F5F5"/>
<path d="M285.664 189.024C285.652 189.137 285.63 189.25 285.6 189.36L285.376 190.344C285.272 190.776 285.144 191.312 285 191.944C284.856 192.576 284.672 193.304 284.416 194.104C284.16 194.904 283.896 195.8 283.616 196.776C283.336 197.752 282.88 198.784 282.472 199.904C282.064 201.024 281.536 202.184 281.008 203.432C280.48 204.68 279.824 205.952 279.152 207.296C278.48 208.64 277.664 209.992 276.864 211.424C276.472 212.144 275.992 212.832 275.536 213.552C275.08 214.272 274.608 215.008 274.112 215.736L272.512 217.912C272.24 218.28 271.984 218.664 271.712 219.024L270.832 220.112C270.232 220.84 269.64 221.6 269.008 222.328L267.032 224.512C266.384 225.272 265.648 225.952 264.928 226.672C264.208 227.392 263.488 228.136 262.696 228.808L260.336 230.904L257.816 232.912C250.741 238.41 242.694 242.527 234.096 245.048L230.992 245.92L227.912 246.608C226.904 246.856 225.88 246.992 224.88 247.168C223.88 247.344 222.88 247.528 221.888 247.616L218.968 247.944C218 248.024 217.04 248.056 216.104 248.12L214.704 248.2C214.24 248.2 213.776 248.2 213.32 248.2H210.624C209.744 248.2 208.872 248.12 208.024 248.08C207.176 248.04 206.328 248.024 205.52 247.912C203.92 247.728 202.32 247.632 200.832 247.352C199.344 247.072 197.928 246.92 196.616 246.6C195.304 246.28 194.032 246.072 192.888 245.72C191.744 245.368 190.664 245.12 189.688 244.816L187.04 243.92C186.24 243.656 185.552 243.384 184.952 243.12L183.448 242.496L182.52 242.104L182.208 241.96C182.32 241.988 182.429 242.022 182.536 242.064L183.48 242.416L185 243.008C185.6 243.248 186.296 243.512 187.096 243.752L189.752 244.624C190.728 244.912 191.8 245.176 192.952 245.488C194.104 245.8 195.352 246.04 196.664 246.328C197.976 246.616 199.4 246.824 200.872 247.056C202.344 247.288 203.92 247.408 205.544 247.584C206.344 247.688 207.192 247.688 208.04 247.736C208.888 247.784 209.752 247.832 210.632 247.848H213.32C213.768 247.848 214.232 247.848 214.688 247.848L216.088 247.76C217.016 247.696 217.968 247.664 218.928 247.576L221.84 247.24C222.832 247.152 223.816 246.952 224.816 246.792C225.816 246.632 226.824 246.48 227.832 246.224L230.896 245.536L233.976 244.664C242.528 242.156 250.531 238.06 257.568 232.592L260.08 230.608C260.88 229.904 261.68 229.208 262.424 228.528C263.168 227.848 263.928 227.112 264.648 226.408C265.368 225.704 266.104 225.008 266.752 224.264L268.728 222.096C269.36 221.368 269.944 220.616 270.544 219.896L271.424 218.816C271.712 218.448 271.976 218.072 272.224 217.712L273.824 215.544C274.328 214.824 274.784 214.088 275.256 213.376C275.728 212.664 276.2 211.984 276.592 211.264C277.392 209.848 278.248 208.52 278.888 207.168C279.528 205.816 280.248 204.576 280.768 203.328C281.288 202.08 281.864 200.928 282.256 199.824C282.648 198.72 283.056 197.688 283.424 196.72C283.792 195.752 284.016 194.864 284.272 194.064C284.528 193.264 284.736 192.552 284.896 191.928C285.056 191.304 285.192 190.776 285.312 190.328L285.576 189.36C285.593 189.245 285.623 189.132 285.664 189.024Z" fill="#E0E0E0"/>
<path d="M318.648 305.68L323.456 337.256H351.36L357.84 306.136L318.648 305.68Z" fill="#898686"/>
<path d="M353.936 325.92C353.936 326.032 346.784 326.128 337.936 326.128C329.088 326.128 321.936 326.032 321.936 325.92C321.936 325.808 329.088 325.712 337.936 325.712C346.784 325.712 353.936 325.8 353.936 325.92Z" fill="#FAFAFA"/>
<path d="M354.048 324.36C354.048 324.48 346.848 324.576 337.968 324.576C329.088 324.576 321.888 324.48 321.888 324.36C321.888 324.24 329.088 324.152 337.968 324.152C346.848 324.152 354.048 324.248 354.048 324.36Z" fill="#FAFAFA"/>
<path d="M353.992 322.608C353.992 322.728 346.792 322.816 337.912 322.816C329.032 322.816 321.832 322.728 321.832 322.608C321.832 322.488 329.032 322.4 337.912 322.4C346.792 322.4 353.992 322.496 353.992 322.608Z" fill="#FAFAFA"/>
<path d="M326.656 335.456C326.224 334.156 325.924 332.816 325.76 331.456C325.456 330.13 325.293 328.776 325.272 327.416C326.004 330.029 326.468 332.709 326.656 335.416V335.456Z" fill="#FAFAFA"/>
<path d="M328.56 335.12C328.214 332.545 328.038 329.95 328.032 327.352C328.379 328.611 328.565 329.91 328.584 331.216C328.738 332.513 328.73 333.824 328.56 335.12Z" fill="#FAFAFA"/>
<path d="M332 335.112C331.29 332.507 330.975 329.81 331.064 327.112C331.36 328.428 331.556 329.766 331.648 331.112C331.874 332.433 331.992 333.771 332 335.112Z" fill="#FAFAFA"/>
<path d="M334.448 335.28C334.137 333.956 333.992 332.599 334.016 331.24C333.906 329.886 333.962 328.524 334.184 327.184C334.365 328.514 334.437 329.858 334.4 331.2C334.523 332.556 334.539 333.921 334.448 335.28Z" fill="#FAFAFA"/>
<path d="M338.744 335.12C338.497 333.855 338.385 332.568 338.408 331.28C338.293 329.998 338.32 328.708 338.488 327.432C338.734 328.697 338.847 329.984 338.824 331.272C338.939 332.554 338.912 333.844 338.744 335.12Z" fill="#FAFAFA"/>
<path d="M341.888 335.28C341.692 333.956 341.633 332.616 341.712 331.28C341.655 329.955 341.735 328.628 341.952 327.32C342.148 328.644 342.207 329.984 342.128 331.32C342.185 332.645 342.105 333.972 341.888 335.28Z" fill="#FAFAFA"/>
<path d="M344.8 334.864C344.789 332.089 345.057 329.321 345.6 326.6C345.68 327.987 345.616 329.378 345.408 330.752C345.339 332.139 345.136 333.516 344.8 334.864Z" fill="#FAFAFA"/>
<path d="M348.632 334.448C348.59 333.255 348.733 332.062 349.056 330.912C349.243 329.733 349.607 328.59 350.136 327.52C350.009 328.697 349.784 329.861 349.464 331C349.278 332.169 348.999 333.322 348.632 334.448Z" fill="#FAFAFA"/>
<path d="M345.944 243.384C345.907 243.591 345.854 243.794 345.784 243.992C345.656 244.424 345.48 244.992 345.264 245.696C345.048 246.4 344.744 247.344 344.464 248.4C344.184 249.456 343.8 250.656 343.464 252C343.128 253.344 342.736 254.808 342.384 256.4C342.032 257.992 341.672 259.688 341.312 261.48C340.648 265.08 340.04 269.056 339.608 273.256C339.176 277.456 339.008 281.488 338.952 285.144C338.952 286.976 338.952 288.712 339 290.344C339.048 291.976 339.112 293.48 339.192 294.864C339.272 296.248 339.376 297.496 339.456 298.592C339.536 299.688 339.632 300.632 339.72 301.4C339.808 302.168 339.856 302.736 339.896 303.176C339.914 303.384 339.914 303.592 339.896 303.8C339.838 303.602 339.8 303.398 339.784 303.192C339.72 302.744 339.632 302.16 339.528 301.424C339.424 300.688 339.296 299.712 339.192 298.616C339.088 297.52 338.944 296.272 338.864 294.888C338.784 293.504 338.664 291.984 338.624 290.352C338.584 288.72 338.544 286.976 338.536 285.144C338.576 281.472 338.752 277.44 339.16 273.216C339.568 268.992 340.216 265.016 340.904 261.408C341.28 259.616 341.616 257.904 342.016 256.32C342.416 254.736 342.776 253.264 343.152 251.928C343.528 250.592 343.896 249.392 344.216 248.336C344.536 247.28 344.832 246.376 345.096 245.648L345.688 243.968C345.757 243.766 345.842 243.571 345.944 243.384Z" fill="#455A64"/>
<path d="M340.904 262.936C341.674 260.664 343.206 258.728 345.24 257.456C345.56 257.204 345.936 257.034 346.336 256.96C346.736 256.886 347.148 256.911 347.536 257.032C348.512 257.504 348.592 258.872 348.336 259.92C347.833 261.687 346.712 263.215 345.176 264.224C343.813 265.229 342.109 265.657 340.432 265.416" fill="#455A64"/>
<path d="M339.2 276.136C339.92 273.408 342.096 269.536 344.352 267.848C344.7 267.566 345.1 267.354 345.528 267.224C345.743 267.164 345.968 267.158 346.186 267.205C346.403 267.253 346.606 267.352 346.776 267.496C346.97 267.75 347.097 268.048 347.146 268.364C347.195 268.68 347.164 269.003 347.056 269.304C346.594 271.292 345.587 273.112 344.149 274.561C342.71 276.009 340.897 277.028 338.912 277.504" fill="#455A64"/>
<path d="M338.744 287.752C339.866 285.152 341.658 282.897 343.936 281.216C344.182 280.995 344.468 280.824 344.78 280.714C345.092 280.605 345.422 280.557 345.752 280.576C346.736 280.752 347.184 281.96 347.096 282.976C346.92 285.032 345.352 286.68 343.728 287.96C342.242 288.988 340.628 289.819 338.928 290.432" fill="#455A64"/>
<path d="M339.008 296.112C340.092 294.128 341.6 292.407 343.424 291.072C343.816 290.777 344.27 290.575 344.752 290.48C344.994 290.436 345.243 290.459 345.473 290.547C345.703 290.634 345.904 290.783 346.056 290.976C346.496 291.624 346.056 292.504 345.6 293.136C344.041 295.309 341.83 296.929 339.288 297.76" fill="#455A64"/>
<path d="M338.784 292.712C336.876 290.379 334.76 288.224 332.464 286.272C332.104 285.968 331.664 285.648 331.2 285.8C331.032 285.87 330.888 285.987 330.786 286.138C330.683 286.289 330.627 286.466 330.624 286.648C330.621 287.014 330.703 287.375 330.864 287.704C331.621 289.383 332.746 290.87 334.156 292.056C335.566 293.241 337.224 294.094 339.008 294.552" fill="#455A64"/>
<path d="M338.984 281.848L334.016 275.792C333.581 275.187 333.039 274.666 332.416 274.256C332.096 274.063 331.73 273.962 331.356 273.962C330.983 273.962 330.616 274.063 330.296 274.256C330.008 274.493 329.792 274.806 329.672 275.159C329.552 275.513 329.532 275.892 329.616 276.256C329.793 276.981 330.123 277.66 330.584 278.248C331.55 279.739 332.777 281.043 334.208 282.096C335.664 283.096 336.992 283.752 338.744 283.488" fill="#455A64"/>
<path d="M339.68 269.6C338.704 266.701 336.979 264.113 334.68 262.096C334.32 261.732 333.87 261.469 333.376 261.336C332.869 261.297 332.365 261.435 331.949 261.727C331.533 262.019 331.232 262.446 331.096 262.936C330.94 263.486 330.9 264.062 330.978 264.628C331.057 265.194 331.252 265.738 331.552 266.224C332.161 267.194 332.954 268.034 333.888 268.696C335.564 269.973 337.429 270.98 339.416 271.68" fill="#455A64"/>
<path d="M341.664 258.696C341.184 255.184 339.352 252.296 337.24 249.424C336.792 248.824 336.168 248.192 335.432 248.304C335.198 248.353 334.98 248.46 334.799 248.615C334.617 248.77 334.477 248.969 334.392 249.192C334.23 249.64 334.162 250.117 334.192 250.592C334.284 252.72 335.001 254.773 336.253 256.496C337.505 258.219 339.237 259.535 341.232 260.28" fill="#455A64"/>
<path d="M343.056 253.128C342.823 251.327 342.761 249.508 342.872 247.696C342.986 245.875 343.61 244.123 344.672 242.64C345.129 242.001 345.755 241.503 346.48 241.2C346.842 241.055 347.236 241.007 347.623 241.059C348.009 241.111 348.376 241.261 348.688 241.496C348.953 241.742 349.159 242.044 349.29 242.381C349.422 242.718 349.476 243.08 349.448 243.44C349.39 244.162 349.2 244.867 348.888 245.52C347.568 248.72 345.36 252.232 343.056 253.128Z" fill="#455A64"/>
<path d="M321.408 257.312C321.444 257.456 321.457 257.604 321.448 257.752C321.448 258.088 321.448 258.512 321.448 259.032C321.448 260.136 321.488 261.736 321.592 263.704C321.696 265.672 321.872 268.024 322.176 270.624C322.48 273.224 322.976 276.048 323.552 279C324.128 281.952 324.912 284.728 325.656 287.232C326.4 289.736 327.192 291.952 327.896 293.8C328.6 295.648 329.208 297.128 329.648 298.136C329.848 298.616 330.008 299 330.144 299.312C330.205 299.449 330.253 299.591 330.288 299.736C330.197 299.618 330.122 299.489 330.064 299.352L329.504 298.208C329.016 297.208 328.368 295.744 327.624 293.904C326.88 292.064 326.08 289.848 325.288 287.344C324.496 284.84 323.776 282.048 323.144 279.088C322.512 276.128 322.096 273.272 321.792 270.664C321.488 268.056 321.344 265.704 321.296 263.72C321.248 261.736 321.232 260.136 321.296 259.024C321.296 258.512 321.344 258.088 321.352 257.752C321.361 257.604 321.379 257.457 321.408 257.312Z" fill="#263238"/>
<path d="M322.192 271.704C322.234 269.986 322.873 268.337 324 267.04C324.163 266.796 324.383 266.596 324.641 266.456C324.899 266.317 325.187 266.243 325.48 266.24C326.24 266.352 326.592 267.264 326.616 268.04C326.654 269.35 326.219 270.631 325.392 271.648C324.683 272.627 323.617 273.285 322.424 273.48" fill="#263238"/>
<path d="M323.88 281.056C323.784 279.048 324.424 275.936 325.6 274.304C325.775 274.036 326 273.805 326.264 273.624C326.398 273.537 326.551 273.484 326.71 273.47C326.869 273.456 327.029 273.482 327.176 273.544C327.362 273.675 327.512 273.85 327.613 274.054C327.714 274.258 327.761 274.485 327.752 274.712C327.869 276.165 327.577 277.622 326.91 278.918C326.242 280.214 325.226 281.298 323.976 282.048" fill="#263238"/>
<path d="M326.056 289.064C326.255 287.04 326.992 285.106 328.192 283.464C328.439 283.064 328.832 282.777 329.288 282.664C330 282.576 330.56 283.296 330.712 284C331.04 285.44 330.32 286.896 329.496 288.112C328.702 289.132 327.78 290.047 326.752 290.832" fill="#263238"/>
<path d="M328 294.696C328.314 293.114 328.972 291.62 329.928 290.32C330.137 290.029 330.411 289.791 330.728 289.624C330.883 289.544 331.057 289.506 331.232 289.516C331.406 289.526 331.575 289.583 331.72 289.68C332.168 290.032 332.064 290.72 331.88 291.28C331.288 293.098 330.131 294.679 328.576 295.792" fill="#263238"/>
<path d="M327.2 292.432C325.397 291.254 323.49 290.242 321.504 289.408C321.361 289.321 321.198 289.271 321.031 289.261C320.864 289.252 320.697 289.283 320.544 289.352C320.446 289.437 320.374 289.549 320.337 289.673C320.3 289.798 320.3 289.931 320.336 290.056C320.407 290.308 320.539 290.539 320.72 290.728C321.599 291.708 322.686 292.478 323.901 292.982C325.117 293.486 326.43 293.711 327.744 293.64" fill="#263238"/>
<path d="M324.952 284.992L320.272 281.936C319.84 281.62 319.355 281.385 318.84 281.24C318.581 281.174 318.31 281.181 318.055 281.258C317.8 281.336 317.57 281.482 317.392 281.68C317.253 281.906 317.179 282.166 317.179 282.432C317.179 282.698 317.253 282.958 317.392 283.184C317.67 283.64 318.041 284.032 318.48 284.336C319.462 285.138 320.578 285.761 321.776 286.176C322.311 286.404 322.887 286.521 323.468 286.521C324.05 286.521 324.625 286.404 325.16 286.176" fill="#263238"/>
<path d="M322.792 276.512C321.503 274.745 319.77 273.351 317.768 272.472C317.445 272.305 317.084 272.225 316.72 272.24C316.366 272.329 316.054 272.536 315.834 272.827C315.615 273.118 315.501 273.475 315.512 273.84C315.522 274.248 315.618 274.65 315.793 275.019C315.968 275.389 316.218 275.717 316.528 275.984C317.151 276.515 317.875 276.915 318.656 277.16C320.068 277.674 321.554 277.957 323.056 278" fill="#263238"/>
<path d="M321.792 268.656C320.712 266.368 318.84 264.768 316.784 263.288C316.593 263.102 316.356 262.969 316.098 262.905C315.839 262.84 315.568 262.845 315.312 262.92C315.167 263.001 315.045 263.116 314.956 263.256C314.867 263.395 314.813 263.555 314.8 263.72C314.779 264.062 314.837 264.404 314.968 264.72C315.488 266.148 316.417 267.392 317.639 268.295C318.861 269.198 320.322 269.722 321.84 269.8" fill="#263238"/>
<path d="M321.544 264.56C320.995 263.386 320.561 262.162 320.248 260.904C319.936 259.639 319.983 258.312 320.384 257.072C320.559 256.54 320.877 256.067 321.304 255.704C321.522 255.52 321.786 255.398 322.067 255.35C322.348 255.302 322.637 255.33 322.904 255.432C323.138 255.542 323.343 255.703 323.506 255.904C323.668 256.105 323.782 256.34 323.84 256.592C323.952 257.096 323.976 257.616 323.912 258.128C323.696 260.584 322.952 263.456 321.576 264.528" fill="#263238"/>
<path d="M356.696 257C356.733 257.146 356.749 257.297 356.744 257.448C356.744 257.784 356.744 258.208 356.8 258.72C356.848 259.824 356.856 261.432 356.8 263.416C356.744 265.4 356.584 267.752 356.304 270.36C356.024 272.968 355.56 275.816 354.952 278.784C354.344 281.752 353.6 284.528 352.8 287.04C352 289.552 351.2 291.76 350.472 293.6C349.744 295.44 349.08 296.904 348.592 297.904L348.032 299.048C347.974 299.185 347.899 299.314 347.808 299.432C347.838 299.285 347.887 299.143 347.952 299.008C348.08 298.696 348.248 298.312 348.448 297.832C348.888 296.824 349.488 295.336 350.192 293.488C350.896 291.64 351.672 289.424 352.432 286.928C353.192 284.432 353.912 281.648 354.544 278.696C355.176 275.744 355.592 272.904 355.92 270.312C356.248 267.72 356.416 265.376 356.504 263.4C356.592 261.424 356.648 259.824 356.648 258.72C356.648 258.187 356.648 257.763 356.648 257.448C356.651 257.298 356.667 257.148 356.696 257Z" fill="#455A64"/>
<path d="M355.92 271.4C355.89 269.683 355.262 268.031 354.144 266.728C353.985 266.482 353.767 266.28 353.51 266.141C353.253 266.001 352.965 265.928 352.672 265.928C351.912 266.04 351.56 266.952 351.536 267.728C351.501 269.052 351.951 270.344 352.8 271.36C353.511 272.336 354.577 272.994 355.768 273.192" fill="#455A64"/>
<path d="M354.232 280.744C354.328 278.736 353.68 275.632 352.512 274C352.335 273.734 352.11 273.503 351.848 273.32C351.714 273.233 351.561 273.18 351.402 273.166C351.243 273.152 351.083 273.178 350.936 273.24C350.75 273.371 350.599 273.547 350.498 273.751C350.396 273.954 350.346 274.18 350.352 274.408C350.241 275.861 350.536 277.317 351.204 278.612C351.872 279.908 352.887 280.992 354.136 281.744" fill="#455A64"/>
<path d="M352.048 288.8C351.849 286.777 351.114 284.844 349.92 283.2C349.674 282.8 349.28 282.513 348.824 282.4C348.112 282.312 347.552 283.032 347.392 283.736C347.072 285.168 347.784 286.632 348.616 287.848C349.408 288.87 350.33 289.785 351.36 290.568" fill="#455A64"/>
<path d="M350.072 294.4C349.761 292.814 349.103 291.317 348.144 290.016C347.935 289.727 347.661 289.492 347.344 289.328C347.189 289.246 347.015 289.208 346.84 289.218C346.665 289.227 346.497 289.285 346.352 289.384C345.912 289.736 346.008 290.424 346.2 290.984C346.792 292.8 347.946 294.38 349.496 295.496" fill="#455A64"/>
<path d="M350.952 292.128C352.753 290.947 354.66 289.934 356.648 289.104C356.791 289.017 356.954 288.967 357.121 288.957C357.288 288.948 357.455 288.979 357.608 289.048C357.706 289.133 357.778 289.245 357.815 289.37C357.852 289.494 357.852 289.627 357.816 289.752C357.74 290.001 357.605 290.229 357.424 290.416C356.551 291.4 355.466 292.173 354.25 292.678C353.035 293.182 351.721 293.404 350.408 293.328" fill="#455A64"/>
<path d="M353.152 284.68L357.84 281.6C358.268 281.277 358.754 281.04 359.272 280.904C359.531 280.837 359.803 280.842 360.058 280.92C360.314 280.997 360.543 281.144 360.72 281.344C360.86 281.57 360.933 281.83 360.933 282.096C360.933 282.362 360.86 282.622 360.72 282.848C360.444 283.303 360.073 283.693 359.632 283.992C358.654 284.8 357.537 285.424 356.336 285.832C355.8 286.062 355.223 286.18 354.64 286.18C354.057 286.18 353.48 286.062 352.944 285.832" fill="#455A64"/>
<path d="M355.32 276.2C356.614 274.452 358.344 273.073 360.336 272.2C360.661 272.029 361.026 271.949 361.392 271.968C361.746 272.057 362.058 272.264 362.278 272.555C362.497 272.846 362.611 273.203 362.6 273.568C362.586 273.976 362.488 274.378 362.312 274.747C362.136 275.116 361.885 275.444 361.576 275.712C360.954 276.24 360.233 276.639 359.456 276.888C358.041 277.384 356.556 277.654 355.056 277.688" fill="#455A64"/>
<path d="M356.32 268.344C357.4 266.056 359.272 264.464 361.328 262.984C361.519 262.798 361.756 262.666 362.014 262.6C362.272 262.534 362.543 262.537 362.8 262.608C362.943 262.691 363.064 262.806 363.153 262.946C363.243 263.085 363.297 263.243 363.312 263.408C363.328 263.749 363.271 264.09 363.144 264.408C362.624 265.837 361.693 267.082 360.47 267.985C359.246 268.889 357.783 269.411 356.264 269.488" fill="#455A64"/>
<path d="M356.568 264.256C357.114 263.08 357.547 261.856 357.864 260.6C358.178 259.334 358.128 258.006 357.72 256.768C357.555 256.233 357.239 255.758 356.808 255.4C356.591 255.215 356.328 255.091 356.046 255.042C355.765 254.993 355.476 255.02 355.208 255.12C354.976 255.233 354.771 255.397 354.609 255.599C354.447 255.801 354.332 256.036 354.272 256.288C354.159 256.792 354.137 257.312 354.208 257.824C354.424 260.272 355.168 263.152 356.544 264.224" fill="#455A64"/>
<path d="M315.448 299.432V305.336C315.447 305.641 315.506 305.944 315.622 306.226C315.738 306.509 315.909 306.765 316.125 306.982C316.34 307.198 316.596 307.369 316.878 307.487C317.16 307.604 317.463 307.664 317.768 307.664H358.184C358.801 307.664 359.394 307.419 359.83 306.982C360.267 306.545 360.512 305.953 360.512 305.336V299.432H315.448Z" fill="#898686"/>
<path d="M315.36 312.2H315.072C314.14 312.2 313.384 312.956 313.384 313.888V381.656C313.384 382.588 314.14 383.344 315.072 383.344H315.36C316.292 383.344 317.048 382.588 317.048 381.656V313.888C317.048 312.956 316.292 312.2 315.36 312.2Z" fill="#263238"/>
<path d="M360.656 312.2H360.368C359.436 312.2 358.68 312.956 358.68 313.888V381.656C358.68 382.588 359.436 383.344 360.368 383.344H360.656C361.588 383.344 362.344 382.588 362.344 381.656V313.888C362.344 312.956 361.588 312.2 360.656 312.2Z" fill="#263238"/>
<path d="M338.68 312.2H338.392C337.46 312.2 336.704 312.956 336.704 313.888V381.656C336.704 382.588 337.46 383.344 338.392 383.344H338.68C339.612 383.344 340.368 382.588 340.368 381.656V313.888C340.368 312.956 339.612 312.2 338.68 312.2Z" fill="#263238"/>
<path d="M358.8 336.528H317.16V337.984H358.8V336.528Z" fill="#263238"/>
<path opacity="0.4" d="M318.952 307.664L319.288 309.544L356.576 312.2L357.52 307.664H318.952Z" fill="black"/>
<path d="M195.2 167.816L160.2 224.088C153.68 221.336 144.656 214.64 140.352 209.688C127.8 195.328 129.296 175.944 132.48 157.136L195.2 167.816Z" fill="#263238"/>
<path d="M186.816 166.4L153.928 220.8C143.02 214.205 134.348 204.48 129.041 192.891C123.733 181.302 122.035 168.383 124.168 155.816L186.816 166.4Z" fill="#455A64"/>
<path d="M153.6 219.2C153.772 217.605 153.772 215.995 153.6 214.4C153.392 212.689 152.916 211.02 152.192 209.456C151.334 207.536 150.095 205.811 148.549 204.387C147.003 202.962 145.183 201.867 143.2 201.168C141.574 200.588 139.869 200.259 138.144 200.192C136.551 200.172 134.961 200.322 133.4 200.64C133.4 200.64 133.504 200.584 133.712 200.512C134.017 200.411 134.326 200.325 134.64 200.256C135.793 200 136.971 199.879 138.152 199.896C142.109 199.946 145.914 201.433 148.856 204.08C151.742 206.791 153.545 210.459 153.928 214.4C154.045 215.577 154.026 216.763 153.872 217.936C153.824 218.352 153.736 218.664 153.696 218.88C153.656 219.096 153.6 219.2 153.6 219.2Z" fill="#FAFAFA"/>
<path d="M131.32 157.872C131.481 157.992 131.628 158.129 131.76 158.28C132.163 158.693 132.528 159.143 132.848 159.624C134.016 161.43 134.666 163.522 134.728 165.672C134.779 167.157 134.554 168.638 134.064 170.04C133.495 171.657 132.546 173.114 131.296 174.288C130.603 174.941 129.731 175.372 128.792 175.528C128.284 175.591 127.769 175.52 127.298 175.322C126.826 175.124 126.414 174.806 126.104 174.4C125.782 173.96 125.647 173.411 125.728 172.872C125.833 172.332 126.114 171.843 126.528 171.48C126.941 171.135 127.428 170.889 127.95 170.76C128.473 170.631 129.018 170.623 129.544 170.736C131.563 171.134 133.383 172.216 134.696 173.8C135.92 175.243 136.769 176.966 137.168 178.816C137.54 180.488 137.526 182.222 137.128 183.888C136.796 185.33 136.232 186.708 135.456 187.968C134.339 189.79 132.893 191.388 131.192 192.68C130.734 193.034 130.256 193.36 129.76 193.656C129.595 193.771 129.418 193.867 129.232 193.944C129.384 193.811 129.548 193.69 129.72 193.584C130.04 193.36 130.52 193.024 131.088 192.552C132.728 191.23 134.121 189.626 135.2 187.816C135.947 186.579 136.488 185.228 136.8 183.816C137.172 182.203 137.172 180.526 136.8 178.912C136.405 177.14 135.581 175.492 134.4 174.112C133.146 172.609 131.415 171.582 129.496 171.2C129.033 171.095 128.551 171.097 128.089 171.208C127.627 171.319 127.197 171.536 126.832 171.84C126.49 172.136 126.258 172.539 126.176 172.984C126.141 173.198 126.15 173.417 126.202 173.627C126.255 173.838 126.349 174.035 126.48 174.208C126.745 174.558 127.098 174.832 127.502 175.003C127.906 175.175 128.348 175.237 128.784 175.184C129.646 175.043 130.445 174.648 131.08 174.048C132.294 172.925 133.219 171.525 133.776 169.968C134.268 168.61 134.504 167.172 134.472 165.728C134.435 163.622 133.842 161.563 132.752 159.76C131.912 158.456 131.272 157.912 131.32 157.872Z" fill="#FAFAFA"/>
<path d="M159.04 161.168C158.071 161.703 157.178 162.365 156.384 163.136C154.275 165.318 152.977 168.155 152.704 171.176C152.501 173.248 152.612 175.338 153.032 177.376C153.408 179.73 154.287 181.976 155.608 183.96C156.333 185.008 157.306 185.86 158.44 186.44C159.625 187.026 160.977 187.181 162.264 186.88C163.602 186.579 164.817 185.876 165.744 184.864C166.211 184.35 166.587 183.76 166.856 183.12C167.102 182.466 167.219 181.771 167.2 181.072C167.066 179.694 166.466 178.403 165.498 177.412C164.531 176.422 163.254 175.791 161.88 175.624C160.563 175.527 159.261 175.946 158.248 176.792C157.268 177.606 156.491 178.635 155.976 179.8C155.47 180.91 155.153 182.097 155.04 183.312C154.9 184.455 154.9 185.61 155.04 186.752C155.321 188.813 156.001 190.799 157.04 192.6C157.896 194.089 158.975 195.438 160.24 196.6C161.197 197.475 162.258 198.227 163.4 198.84C164.392 199.332 165.419 199.752 166.472 200.096L166.256 200.056L165.632 199.888C165.292 199.807 164.961 199.697 164.64 199.56C164.191 199.396 163.753 199.204 163.328 198.984C162.156 198.388 161.065 197.646 160.08 196.776C158.785 195.619 157.677 194.27 156.792 192.776C155.715 190.95 155.005 188.931 154.704 186.832C154.559 185.661 154.559 184.476 154.704 183.304C154.816 182.048 155.14 180.82 155.664 179.672C156.197 178.429 157.02 177.332 158.064 176.472C159.154 175.558 160.557 175.104 161.976 175.208C162.699 175.268 163.402 175.469 164.048 175.8C164.705 176.12 165.303 176.55 165.816 177.072C166.913 178.127 167.578 179.553 167.68 181.072C167.7 181.831 167.572 182.586 167.304 183.296C167.018 183.982 166.614 184.613 166.112 185.16C165.124 186.229 163.835 186.974 162.416 187.296C161.039 187.613 159.594 187.443 158.328 186.816C157.139 186.2 156.12 185.302 155.36 184.2C154.014 182.167 153.125 179.866 152.752 177.456C152.344 175.383 152.253 173.261 152.48 171.16C152.779 168.087 154.143 165.214 156.336 163.04C156.934 162.462 157.603 161.962 158.328 161.552C158.514 161.445 158.706 161.349 158.904 161.264C158.946 161.228 158.992 161.196 159.04 161.168Z" fill="#FAFAFA"/>
<path d="M162.4 220.648C161.737 219.174 161.201 217.646 160.8 216.08C160.264 214.553 159.862 212.981 159.6 211.384C160.262 212.861 160.798 214.392 161.2 215.96C161.735 217.485 162.137 219.053 162.4 220.648Z" fill="#455A64"/>
<path d="M166.568 214.08C165.901 212.605 165.366 211.074 164.968 209.504C164.431 207.98 164.03 206.411 163.768 204.816C164.427 206.292 164.962 207.82 165.368 209.384C165.895 210.914 166.296 212.485 166.568 214.08Z" fill="#455A64"/>
<path d="M170.64 207.304C169.961 205.782 169.41 204.206 168.992 202.592C168.445 201.016 168.03 199.397 167.752 197.752C168.427 199.278 168.975 200.857 169.392 202.472C169.943 204.045 170.36 205.661 170.64 207.304Z" fill="#455A64"/>
<path d="M174.76 200.68C174.077 199.153 173.523 197.572 173.104 195.952C172.553 194.371 172.136 192.747 171.856 191.096C172.536 192.626 173.087 194.211 173.504 195.832C174.05 197.413 174.47 199.034 174.76 200.68Z" fill="#455A64"/>
<path d="M178.968 194.4C178.301 192.928 177.765 191.399 177.368 189.832C176.832 188.305 176.43 186.734 176.168 185.136C176.826 186.615 177.361 188.146 177.768 189.712C178.296 191.239 178.697 192.807 178.968 194.4Z" fill="#455A64"/>
<path d="M182.992 187.44C182.3 185.869 181.736 184.245 181.304 182.584C180.743 180.958 180.307 179.292 180 177.6C180.699 179.168 181.264 180.793 181.688 182.456C182.259 184.079 182.695 185.746 182.992 187.44Z" fill="#455A64"/>
<path d="M187.112 180.8C186.412 179.209 185.842 177.563 185.408 175.88C184.842 174.236 184.403 172.551 184.096 170.84C184.799 172.431 185.372 174.076 185.808 175.76C186.378 177.402 186.814 179.088 187.112 180.8Z" fill="#455A64"/>
<path d="M191.2 174.2C190.628 173.029 190.183 171.801 189.872 170.536C189.432 169.314 189.123 168.048 188.952 166.76C189.514 167.931 189.956 169.156 190.272 170.416C190.713 171.641 191.024 172.91 191.2 174.2Z" fill="#455A64"/>
<path d="M67.8 153.968C63.416 155.912 45.128 179.352 43.8 194.576C42.84 205.92 64.912 204.688 64.912 204.688C64.912 204.688 66.416 158.128 65.76 158.784" fill="#898686"/>
<path d="M63.608 185.496C63.608 185.496 63.536 185.624 63.376 185.84C63.216 186.056 62.984 186.352 62.688 186.712C62.088 187.448 61.232 188.432 60.288 189.504C59.344 190.576 58.4239 191.52 57.7599 192.184C57.4239 192.52 57.1439 192.784 56.9599 192.984C56.8652 193.083 56.7607 193.171 56.6479 193.248C56.7251 193.135 56.8135 193.031 56.912 192.936L57.712 192.136L60.208 189.424L62.656 186.672L63.3919 185.832C63.4549 185.715 63.5272 185.602 63.608 185.496Z" fill="#263238"/>
<path d="M62.872 182.016C62.5976 182.106 62.3302 182.215 62.072 182.344C61.3972 182.715 60.8041 183.219 60.328 183.824C59.696 184.568 59.128 185.592 58.4 186.672C57.6191 187.865 56.5556 188.846 55.304 189.528C54.051 190.206 52.6487 190.561 51.224 190.56C50.0616 190.551 48.9142 190.297 47.856 189.816C47.1426 189.504 46.4772 189.092 45.88 188.592C45.6612 188.409 45.4578 188.208 45.272 187.992C45.272 187.992 45.496 188.2 45.92 188.536C46.5246 189.017 47.1921 189.412 47.904 189.712C48.9532 190.163 50.082 190.4 51.224 190.408C52.6222 190.401 53.9967 190.046 55.224 189.376C56.4534 188.709 57.5 187.75 58.272 186.584C58.8768 185.607 59.531 184.662 60.232 183.752C60.7255 183.143 61.3415 182.644 62.04 182.288C62.3008 182.153 62.5817 182.061 62.872 182.016Z" fill="white"/>
<path d="M51.7997 203.2C51.6739 203.164 51.5509 203.118 51.4317 203.064C51.0872 202.908 50.7666 202.703 50.4797 202.456C49.4451 201.512 48.7956 200.218 48.6557 198.824C48.5241 196.769 48.8238 194.709 49.5357 192.776C50.4029 190.42 51.5412 188.173 52.9277 186.08C55.7917 181.584 58.6877 177.72 60.2637 174.6C60.6877 173.84 60.9837 173.112 61.2877 172.488C61.5917 171.864 61.7437 171.288 61.9117 170.832C62.0797 170.376 62.1277 170.032 62.2077 169.744C62.2877 169.456 62.3277 169.376 62.3277 169.376C62.3277 169.376 62.3277 169.504 62.2397 169.752C62.1517 170 62.0797 170.416 61.9677 170.848C61.8557 171.28 61.6157 171.872 61.3677 172.52C61.1197 173.168 60.7917 173.888 60.3677 174.656C58.8077 177.8 55.9277 181.688 53.0717 186.168C51.6906 188.25 50.5525 190.483 49.6797 192.824C48.9715 194.744 48.6718 196.79 48.7997 198.832C48.9201 200.207 49.544 201.489 50.5517 202.432C50.9267 202.749 51.3474 203.008 51.7997 203.2Z" fill="white"/>
<path d="M64.2001 197.08C64.1162 197.265 63.9996 197.433 63.8561 197.576C63.4499 197.972 62.9484 198.256 62.4001 198.4C61.6074 198.624 60.7821 198.711 59.9601 198.656C58.9703 198.583 57.9753 198.64 57.0001 198.824C55.2322 199.211 53.6196 200.117 52.3681 201.424C51.9916 201.821 51.6491 202.25 51.3441 202.704C51.2434 202.878 51.134 203.046 51.0161 203.208C51.3305 202.521 51.7577 201.891 52.2801 201.344C53.528 199.987 55.1659 199.051 56.9681 198.664C57.9562 198.475 58.9655 198.421 59.9681 198.504C60.7745 198.564 61.5853 198.491 62.3681 198.288C62.8952 198.139 63.3783 197.865 63.7761 197.488C63.9241 197.359 64.0656 197.223 64.2001 197.08Z" fill="white"/>
<g opacity="0.3">
<path d="M64.9441 204.688C61.5201 194.616 58.7041 184.128 62.4961 174.096C63.7361 186.528 65.2001 197.856 64.9441 204.688Z" fill="black"/>
</g>
<path d="M97.0878 189.328L50.3998 231.616C47.9998 228.968 44.8478 226.856 43.4958 223.496C42.1438 220.136 39.9118 217.32 38.5278 214.032L97.0878 189.328Z" fill="#263238"/>
<path d="M92.9599 184.448L45.8719 227.12C43.4752 224.475 41.3049 221.633 39.3839 218.624C37.4577 215.616 35.7903 212.45 34.3999 209.16L92.9599 184.448Z" fill="#455A64"/>
<path d="M87.1997 360.72L86.3997 375.032C86.3997 375.032 100.672 380.632 100.8 383.336L72.9917 382.744L73.3517 360.392L87.1997 360.72Z" fill="#898686"/>
<path d="M77.7838 373.648C77.5168 373.726 77.2879 373.9 77.1404 374.136C76.993 374.372 76.9372 374.654 76.9838 374.928C77.0539 375.197 77.2235 375.429 77.4581 375.577C77.6927 375.726 77.9749 375.78 78.2478 375.728C78.5329 375.647 78.7777 375.463 78.9345 375.212C79.0912 374.96 79.1488 374.66 79.0958 374.368C79.0008 374.091 78.8011 373.862 78.5394 373.73C78.2777 373.599 77.9748 373.575 77.6958 373.664" fill="#E0E0E0"/>
<path d="M72.9277 382.744V380.52L99.6317 381.896C99.6317 381.896 100.856 382.464 100.704 383.336L72.9277 382.744Z" fill="#E0E0E0"/>
<path d="M86.8078 374.904C86.8078 375.04 86.1198 375.088 85.4398 375.512C84.7598 375.936 84.3998 376.496 84.2718 376.44C84.1438 376.384 84.3678 375.6 85.1998 375.104C86.0318 374.608 86.8398 374.776 86.8078 374.904Z" fill="#263238"/>
<path d="M89.6959 376.168C89.6959 376.304 89.1359 376.52 88.6639 377.088C88.1919 377.656 88.0399 378.256 87.8639 378.248C87.6879 378.24 87.6639 377.448 88.2639 376.776C88.8639 376.104 89.6959 376.04 89.6959 376.168Z" fill="#263238"/>
<path d="M91.2797 379.696C91.1597 379.696 90.9837 379.04 91.3437 378.304C91.7037 377.568 92.3517 377.288 92.4077 377.4C92.4637 377.512 92.0637 377.904 91.7677 378.512C91.4717 379.12 91.4157 379.688 91.2797 379.696Z" fill="#263238"/>
<path d="M86.6317 371.624C86.5757 371.744 85.9517 371.544 85.1837 371.576C84.4157 371.608 83.8157 371.84 83.7437 371.728C83.6717 371.616 84.2637 371.136 85.1677 371.104C86.0717 371.072 86.7037 371.512 86.6317 371.624Z" fill="#263238"/>
<path d="M86.7439 368.728C86.2883 368.853 85.8076 368.853 85.3519 368.728C84.8518 368.626 84.3657 368.465 83.9039 368.248C83.6273 368.12 83.36 367.973 83.1039 367.808C82.9524 367.716 82.815 367.603 82.6959 367.472C82.6064 367.374 82.553 367.249 82.5442 367.116C82.5355 366.984 82.5721 366.853 82.6479 366.744C82.7179 366.651 82.8086 366.576 82.9128 366.525C83.017 366.473 83.1317 366.447 83.2479 366.448C83.4241 366.451 83.5991 366.478 83.7679 366.528C84.0622 366.609 84.3486 366.716 84.6239 366.848C85.0917 367.069 85.5212 367.363 85.8959 367.72C86.5279 368.328 86.7359 368.84 86.6959 368.864C86.6559 368.888 86.3279 368.48 85.6799 367.968C85.087 367.496 84.3994 367.158 83.6639 366.976C83.3679 366.896 83.1199 366.888 83.0399 367.016C82.9599 367.144 83.0399 367.088 83.0399 367.176C83.1316 367.27 83.2336 367.353 83.3439 367.424C83.5919 367.584 83.8319 367.728 84.0719 367.856C84.5002 368.077 84.9473 368.259 85.4079 368.4C85.8603 368.478 86.3067 368.588 86.7439 368.728Z" fill="#263238"/>
<path d="M86.56 368.92C86.3061 368.517 86.1883 368.043 86.224 367.568C86.2085 367.052 86.2843 366.538 86.448 366.048C86.543 365.755 86.669 365.474 86.824 365.208C86.9008 365.026 87.024 364.868 87.1812 364.748C87.3384 364.629 87.5242 364.553 87.72 364.528C87.8445 364.531 87.9654 364.571 88.0677 364.642C88.17 364.713 88.2494 364.813 88.296 364.928C88.3634 365.092 88.4091 365.264 88.432 365.44C88.4805 365.75 88.4805 366.066 88.432 366.376C88.3475 366.896 88.1329 367.386 87.808 367.8C87.248 368.512 86.68 368.664 86.672 368.6C86.664 368.536 87.104 368.28 87.536 367.592C87.7829 367.199 87.9412 366.757 88 366.296C88.0391 366.031 88.0391 365.761 88 365.496C88 365.2 87.856 364.96 87.752 364.992C87.648 365.024 87.368 365.2 87.248 365.432C87.1087 365.673 86.9883 365.924 86.888 366.184C86.7221 366.628 86.6223 367.095 86.592 367.568C86.504 368.392 86.64 368.904 86.56 368.92Z" fill="#263238"/>
<path d="M106.904 361.84L104.24 375.92C104.24 375.92 117.664 383.36 117.424 386.008L89.9277 381.832L93.1757 359.712L106.904 361.84Z" fill="#898686"/>
<path d="M95.9199 373.44C95.6429 373.479 95.3902 373.619 95.2101 373.833C95.03 374.047 94.9352 374.32 94.9439 374.6C94.9723 374.879 95.1071 375.136 95.3202 375.318C95.5332 375.499 95.8082 375.592 96.0879 375.576C96.3818 375.533 96.6492 375.382 96.8384 375.153C97.0275 374.924 97.125 374.633 97.1119 374.336C97.0501 374.049 96.8799 373.798 96.6369 373.634C96.3939 373.47 96.0968 373.406 95.8079 373.456" fill="#E0E0E0"/>
<path d="M89.9277 381.832L90.2477 379.632L116.552 384.432C116.552 384.432 117.696 385.152 117.424 385.992L89.9277 381.832Z" fill="#E0E0E0"/>
<path d="M104.704 375.848C104.704 375.984 104 375.944 103.272 376.272C102.544 376.6 102.112 377.12 101.992 377.072C101.872 377.024 102.2 376.272 103.08 375.864C103.96 375.456 104.752 375.736 104.704 375.848Z" fill="#263238"/>
<path d="M107.408 377.48C107.408 377.616 106.8 377.76 106.264 378.28C105.728 378.8 105.464 379.36 105.36 379.336C105.256 379.312 105.256 378.536 105.944 377.928C106.632 377.32 107.424 377.352 107.408 377.48Z" fill="#263238"/>
<path d="M108.52 381.184C108.392 381.184 108.312 380.496 108.768 379.808C109.224 379.12 109.896 378.928 109.936 379.056C109.976 379.184 109.528 379.504 109.136 380.072C108.744 380.64 108.656 381.192 108.52 381.184Z" fill="#263238"/>
<path d="M104.96 372.576C104.88 372.688 104.296 372.408 103.528 372.344C102.76 372.28 102.136 372.432 102.08 372.304C102.024 372.176 102.672 371.784 103.568 371.872C104.464 371.96 105.04 372.48 104.96 372.576Z" fill="#263238"/>
<path d="M105.44 369.72C104.97 369.778 104.493 369.703 104.064 369.504C103.581 369.339 103.12 369.119 102.688 368.848C102.435 368.684 102.195 368.502 101.968 368.304C101.826 368.196 101.702 368.067 101.6 367.92C101.525 367.811 101.49 367.68 101.498 367.548C101.507 367.416 101.56 367.291 101.648 367.192C101.728 367.108 101.828 367.045 101.938 367.007C102.048 366.97 102.165 366.959 102.28 366.976C102.455 367 102.625 367.052 102.784 367.128C103.063 367.244 103.331 367.386 103.584 367.552C104.015 367.833 104.401 368.178 104.728 368.576C105.272 369.264 105.416 369.8 105.36 369.816C105.304 369.832 105.048 369.384 104.472 368.8C104.141 368.456 103.764 368.16 103.352 367.92C103.11 367.78 102.859 367.657 102.6 367.552C102.32 367.432 102.072 367.392 101.976 367.512C101.88 367.632 101.976 367.576 101.976 367.672C102.051 367.779 102.143 367.874 102.248 367.952C102.456 368.145 102.678 368.321 102.912 368.48C103.304 368.758 103.722 368.996 104.16 369.192C104.598 369.338 105.026 369.514 105.44 369.72Z" fill="#263238"/>
<path d="M105.24 369.888C105.033 369.458 104.977 368.97 105.08 368.504C105.13 367.99 105.27 367.489 105.496 367.024C105.624 366.741 105.782 366.473 105.968 366.224C106.07 366.054 106.214 365.913 106.386 365.815C106.559 365.717 106.754 365.665 106.952 365.664C107.075 365.684 107.189 365.74 107.281 365.824C107.374 365.907 107.44 366.016 107.472 366.136C107.519 366.308 107.541 366.486 107.536 366.664C107.536 366.978 107.491 367.291 107.4 367.592C107.244 368.093 106.969 368.548 106.6 368.92C105.952 369.552 105.368 369.624 105.368 369.584C105.368 369.544 105.84 369.32 106.352 368.696C106.649 368.339 106.865 367.921 106.984 367.472C107.052 367.211 107.085 366.942 107.08 366.672C107.08 366.368 107.008 366.12 106.896 366.128C106.784 366.136 106.496 366.296 106.344 366.512C106.174 366.729 106.021 366.959 105.888 367.2C105.668 367.621 105.509 368.071 105.416 368.536C105.248 369.352 105.312 369.88 105.24 369.888Z" fill="#263238"/>
<path d="M78.8239 116.128L78.7119 153.304L94.6639 154.104L95.1199 145.064C95.1199 145.064 100.784 146.192 102.248 140.928C103.184 137.568 102.952 111.592 102.952 111.592L78.8239 116.128Z" fill="#B78876"/>
<path d="M63.1998 231.2L63.1198 235.064C63.0156 240.166 63.6241 245.258 64.9278 250.192L66.6878 256.848L70.9918 368.408L91.6078 369.608L90.6318 235.12L63.1998 231.2Z" fill="#263238"/>
<path d="M70.3999 232.936V237.672C70.4057 240.629 71.1997 243.531 72.7 246.079C74.2004 248.627 76.353 250.729 78.9359 252.168L95.4399 297.6L87.9119 366.976L109.096 369.056L119.904 297.6C118.816 294.12 106.728 232.944 106.728 232.944L70.3999 232.936Z" fill="#263238"/>
<path d="M106.824 296.168C105.012 296.721 103.162 297.138 101.288 297.416C99.4435 297.82 97.5718 298.088 95.688 298.216C97.5003 297.667 99.3507 297.253 101.224 296.976C103.069 296.572 104.94 296.302 106.824 296.168Z" fill="#455A64"/>
<path d="M106.832 301.84C106.26 301.764 105.699 301.621 105.16 301.416L101.16 300.248C99.2573 299.77 97.4079 299.099 95.6401 298.248C96.211 298.329 96.7715 298.472 97.3121 298.672L101.312 299.848C103.214 300.326 105.063 300.993 106.832 301.84Z" fill="#455A64"/>
<path d="M87.9121 366.968C87.9015 366.848 87.9015 366.728 87.9121 366.608C87.9121 366.36 87.9681 366.016 88.0081 365.568C88.1041 364.64 88.2401 363.296 88.4161 361.568C88.8001 358.08 89.3441 353.056 90.0161 346.856C91.4001 334.416 93.3201 317.256 95.4401 298.224V298.32L95.1281 297.456C91.8721 288.336 88.7681 279.656 85.9441 271.76C84.5441 267.816 83.2001 264.056 81.9441 260.56C80.9252 257.276 79.5008 254.132 77.7041 251.2C75.9201 248.592 73.9521 246.488 72.5201 244.4C71.2207 242.628 70.3648 240.571 70.0241 238.4C69.7975 237.053 69.7171 235.685 69.7841 234.32C69.8019 233.846 69.8473 233.373 69.9201 232.904C69.9272 233.024 69.9272 233.144 69.9201 233.264C69.9201 233.504 69.9041 233.856 69.8721 234.32C69.844 235.679 69.9512 237.038 70.1921 238.376C70.5659 240.49 71.4289 242.487 72.7121 244.208C74.1521 246.272 76.1361 248.352 77.9521 250.984C79.8024 253.925 81.2728 257.089 82.3281 260.4C83.5841 263.904 84.9361 267.656 86.3281 271.6C89.1521 279.496 92.2721 288.168 95.5361 297.28L95.8481 298.144V298.192V298.24C93.6801 317.256 91.7201 334.424 90.2961 346.864C89.5681 353.056 88.9761 358.064 88.5681 361.56C88.3601 363.272 88.1921 364.616 88.0801 365.56L87.9441 366.592C87.9408 366.718 87.9301 366.843 87.9121 366.968Z" fill="#455A64"/>
<path opacity="0.4" d="M89.9278 376.536L88.7598 381.336L89.9278 381.4L90.6558 376.864L89.9278 376.536Z" fill="black"/>
<path d="M62.2161 232.936H106.784L104.984 195.384C104.688 188.008 104.728 187.128 104.552 180.312C104.552 180.312 111.488 188.704 116.936 194.584C118.546 196.313 120.664 197.485 122.984 197.93C125.304 198.374 127.706 198.068 129.84 197.056L158.4 177.144L153.84 165.464L127.12 179.352C125.936 178.608 115.832 164.208 108.856 157.168C104.394 152.682 98.3807 150.079 92.0561 149.896C86.7946 149.766 81.5303 149.978 76.2961 150.528C72.4819 150.933 68.928 152.655 66.2459 155.397C63.5637 158.139 61.9209 161.73 61.6001 165.552C61.0961 171.584 63.9041 190.52 63.9041 190.52L64.9681 204.688L62.2161 232.936Z" fill="#898686"/>
<path d="M63.328 157.944L63.256 158.416L63.04 159.76C62.9072 160.469 62.8111 161.185 62.752 161.904C62.68 162.744 62.536 163.696 62.512 164.76C62.2879 170.284 62.518 175.818 63.2 181.304C63.896 187.752 64.712 193.568 64.944 197.816C65.1285 200.103 65.1285 202.401 64.944 204.688C64.944 204.688 64.944 204.52 64.944 204.208C64.944 203.896 64.944 203.408 64.992 202.84C64.992 201.656 64.992 199.936 64.84 197.824C64.576 193.584 63.744 187.768 63.048 181.328C62.3639 175.831 62.1472 170.286 62.4 164.752C62.4 163.688 62.584 162.736 62.664 161.896C62.744 161.056 62.872 160.296 62.984 159.752C63.096 159.208 63.2 158.76 63.2 158.4C63.2 158.04 63.328 157.944 63.328 157.944Z" fill="#263238"/>
<path d="M126.032 184C126.036 183.773 126.068 183.547 126.128 183.328C126.208 182.92 126.328 182.352 126.472 181.728C126.616 181.104 126.76 180.536 126.872 180.128C126.919 179.906 126.989 179.689 127.08 179.48C127.077 179.707 127.045 179.933 126.984 180.152C126.904 180.568 126.784 181.136 126.64 181.752C126.496 182.368 126.352 182.936 126.24 183.352C126.193 183.575 126.123 183.792 126.032 184Z" fill="#263238"/>
<path d="M128.632 184.36C128.348 183.524 128.124 182.668 127.96 181.8C127.738 180.942 127.567 180.071 127.448 179.192C127.726 180.033 127.951 180.891 128.12 181.76C128.342 182.616 128.513 183.484 128.632 184.36Z" fill="#263238"/>
<path d="M105.752 181.528C105.752 181.528 105.656 181.448 105.488 181.28L104.736 180.56C104.096 179.928 103.136 179.008 102.056 177.84C100.75 176.468 99.5312 175.014 98.4081 173.488C97.0287 171.618 95.9142 169.567 95.0961 167.392C94.2687 165.213 93.8957 162.888 94.0001 160.56C94.0314 158.655 94.4506 156.777 95.2321 155.04C95.7846 153.878 96.6076 152.866 97.6321 152.088C97.9058 151.875 98.1946 151.683 98.4961 151.512C98.5997 151.45 98.7065 151.394 98.8161 151.344C98.8161 151.344 98.3761 151.584 97.6641 152.144C96.6689 152.935 95.8695 153.946 95.3281 155.096C94.5756 156.824 94.1732 158.684 94.1441 160.568C94.0473 162.878 94.4202 165.183 95.2401 167.344C96.9521 171.984 99.9841 175.4 102.136 177.744C103.232 178.928 104.144 179.856 104.776 180.504L105.504 181.248L105.752 181.528Z" fill="#263238"/>
<path d="M111.288 160L110.88 160.36C110.472 160.688 110.033 160.975 109.568 161.216C107.833 162.096 105.913 162.549 103.968 162.536C101.116 162.458 98.2865 162.006 95.552 161.192C93.9324 160.763 92.2898 160.426 90.632 160.184C88.8538 159.916 87.0441 159.935 85.272 160.24C84.3809 160.399 83.5129 160.668 82.688 161.04C81.8976 161.439 81.1334 161.888 80.4 162.384C79.6874 162.865 78.9354 163.285 78.152 163.64C77.3946 163.972 76.5786 164.148 75.752 164.16C74.2145 164.103 72.7079 163.712 71.336 163.016C70.04 162.416 68.88 161.768 67.768 161.296C66.0295 160.451 64.0603 160.207 62.168 160.6C61.6613 160.713 61.1754 160.905 60.728 161.168C60.416 161.352 60.28 161.48 60.272 161.472C60.4031 161.347 60.548 161.237 60.704 161.144C61.15 160.863 61.6392 160.658 62.152 160.536C64.0389 160.127 66.0084 160.355 67.752 161.184C68.88 161.656 70.048 162.296 71.344 162.896C72.7182 163.581 74.2252 163.957 75.76 164C79.112 164.096 81.48 160.552 85.28 160.048C87.0709 159.742 88.8991 159.723 90.696 159.992C92.3588 160.243 94.0066 160.585 95.632 161.016C98.3501 161.836 101.163 162.301 104 162.4C105.918 162.419 107.814 161.988 109.536 161.144C109.998 160.916 110.44 160.648 110.856 160.344L111.288 160Z" fill="white"/>
<path d="M110.864 187.768L111.12 187.48C111.371 187.217 111.596 186.931 111.792 186.624C112.512 185.496 112.913 184.194 112.952 182.856C113.003 180.873 112.615 178.904 111.816 177.088C110.789 174.89 109.528 172.809 108.056 170.88C106.574 168.943 105.28 166.87 104.192 164.688C103.734 163.722 103.385 162.708 103.152 161.664C102.96 160.754 102.877 159.825 102.904 158.896C102.921 157.545 103.252 156.217 103.872 155.016C104.085 154.578 104.354 154.169 104.672 153.8C104.606 153.908 104.534 154.012 104.456 154.112C104.246 154.41 104.059 154.722 103.896 155.048C103.309 156.247 102.997 157.561 102.984 158.896C102.971 160.881 103.42 162.842 104.296 164.624C105.393 166.791 106.687 168.853 108.16 170.784C109.642 172.722 110.906 174.817 111.928 177.032C112.73 178.868 113.108 180.862 113.032 182.864C112.987 184.22 112.563 185.537 111.808 186.664C111.543 187.071 111.225 187.443 110.864 187.768Z" fill="white"/>
<path d="M123.696 174.92C123.646 175.177 123.565 175.427 123.456 175.664C123.149 176.319 122.697 176.896 122.136 177.352C121.312 178.033 120.352 178.53 119.32 178.808C118.055 179.12 116.759 179.286 115.456 179.304C114.166 179.314 112.879 179.429 111.608 179.648C110.583 179.88 109.593 180.246 108.664 180.736C108.03 181.054 107.44 181.455 106.912 181.928C106.536 182.264 106.376 182.488 106.36 182.48C106.505 182.262 106.674 182.061 106.864 181.88C107.384 181.384 107.971 180.964 108.608 180.632C109.541 180.121 110.539 179.742 111.576 179.504C112.853 179.269 114.149 179.146 115.448 179.136C116.739 179.121 118.025 178.96 119.28 178.656C120.296 178.393 121.244 177.919 122.064 177.264C122.614 176.827 123.068 176.283 123.4 175.664C123.616 175.2 123.68 174.912 123.696 174.92Z" fill="white"/>
<path d="M134.84 193.416C134.84 193.416 134.936 193.184 135.08 192.752C135.275 192.147 135.38 191.516 135.392 190.88C135.406 189.934 135.282 188.991 135.024 188.08C134.694 186.966 134.276 185.88 133.776 184.832C133.272 183.704 132.776 182.624 132.44 181.632C132.128 180.727 131.932 179.786 131.856 178.832C131.81 178.186 131.856 177.537 131.992 176.904C132.037 176.672 132.104 176.444 132.192 176.224C132.192 176.224 132.128 176.472 132.048 176.912C131.944 177.544 131.92 178.186 131.976 178.824C132.066 179.765 132.271 180.692 132.584 181.584C132.928 182.592 133.424 183.664 133.928 184.784C134.431 185.839 134.849 186.934 135.176 188.056C135.428 188.981 135.541 189.938 135.512 190.896C135.487 191.543 135.363 192.183 135.144 192.792C135.062 193.009 134.96 193.218 134.84 193.416Z" fill="white"/>
<path d="M155.048 168.912L154.832 169.32C154.688 169.584 154.456 169.968 154.136 170.44C153.211 171.771 152.113 172.974 150.872 174.016C149.018 175.549 146.994 176.864 144.84 177.936C142.44 179.184 139.68 180.336 136.84 181.624C134.156 182.797 131.624 184.287 129.296 186.064C127.416 187.55 125.836 189.38 124.64 191.456C123.832 192.854 123.29 194.389 123.04 195.984C122.975 196.419 122.94 196.857 122.936 197.296V197.752C122.936 197.752 122.936 197.6 122.936 197.296C122.934 196.855 122.961 196.414 123.016 195.976C123.234 194.365 123.755 192.809 124.552 191.392C125.743 189.294 127.327 187.445 129.216 185.944C131.55 184.151 134.094 182.649 136.792 181.472C139.624 180.16 142.392 179.032 144.792 177.8C146.933 176.734 148.951 175.435 150.808 173.928C152.05 172.898 153.158 171.715 154.104 170.408C154.424 169.936 154.672 169.608 154.816 169.304C154.886 169.169 154.964 169.039 155.048 168.912Z" fill="white"/>
<path d="M152.328 181.16C152.328 181.16 152.328 180.968 152.328 180.624C152.291 180.14 152.208 179.66 152.08 179.192C151.595 177.66 150.877 176.211 149.952 174.896C149.44 174.096 148.944 173.36 148.44 172.712C147.956 172.158 147.586 171.513 147.352 170.816C147.233 170.335 147.209 169.835 147.28 169.344C147.28 169.168 147.336 169.04 147.352 168.952C147.346 168.907 147.346 168.861 147.352 168.816C147.347 168.996 147.331 169.175 147.304 169.352C147.261 169.833 147.302 170.317 147.424 170.784C147.668 171.459 148.04 172.081 148.52 172.616C149.069 173.318 149.579 174.05 150.048 174.808C150.988 176.132 151.701 177.603 152.16 179.16C152.274 179.637 152.339 180.125 152.352 180.616C152.352 180.792 152.352 180.928 152.352 181.016C152.352 181.104 152.336 181.16 152.328 181.16Z" fill="white"/>
<path d="M104.952 187.248C104.481 187.604 103.971 187.905 103.432 188.144C101.958 188.812 100.361 189.164 98.7439 189.176C96.3419 189.197 93.9599 188.74 91.7359 187.832C89.2079 186.88 86.6079 185.432 83.8319 184.056C81.2629 182.679 78.4972 181.704 75.6319 181.168C74.3772 180.97 73.1012 180.945 71.8399 181.096C70.7354 181.229 69.6569 181.526 68.6399 181.976C67.1563 182.599 65.8605 183.597 64.8799 184.872C64.7293 185.072 64.5904 185.28 64.4639 185.496C64.3623 185.65 64.2714 185.81 64.1919 185.976C64.0639 186.248 63.9839 186.384 63.9839 186.384C63.9839 186.384 64.0399 186.24 64.1599 185.96C64.236 185.791 64.3243 185.628 64.4239 185.472C64.5431 185.249 64.6795 185.035 64.8319 184.832C65.7975 183.525 67.0959 182.5 68.5919 181.864C69.6096 181.409 70.6872 181.102 71.7919 180.952C73.0635 180.799 74.3501 180.82 75.6159 181.016C78.5015 181.547 81.2868 182.524 83.8719 183.912C86.6559 185.296 89.2479 186.736 91.7599 187.688C93.9626 188.596 96.3216 189.063 98.7039 189.064C100.311 189.06 101.901 188.728 103.376 188.088C103.774 187.915 104.16 187.711 104.528 187.48C104.8 187.32 104.952 187.248 104.952 187.248Z" fill="white"/>
<path d="M87.3359 210.792C87.3359 210.792 87.2239 210.6 87.0319 210.232C86.764 209.683 86.5497 209.11 86.3919 208.52C85.8647 206.335 85.8183 204.061 86.2559 201.856C86.4799 200.456 86.8559 198.944 87.2559 197.336C87.7186 195.63 88.0713 193.896 88.3119 192.144C88.6923 188.107 88.2986 184.034 87.1519 180.144C86.0399 175.976 84.5119 172.144 83.2879 168.608C82.1305 165.489 81.2367 162.277 80.6159 159.008C80.1154 156.81 80.2401 154.515 80.9759 152.384C81.2116 151.819 81.5326 151.292 81.9279 150.824C82.2079 150.52 82.3679 150.376 82.3679 150.376C81.7996 150.963 81.3489 151.652 81.0399 152.408C80.331 154.532 80.2258 156.812 80.7359 158.992C81.3724 162.242 82.2741 165.434 83.4319 168.536C84.6639 172.064 86.1999 175.896 87.3119 180.072C88.4657 183.985 88.8568 188.084 88.4639 192.144C88.2158 193.901 87.8578 195.64 87.3919 197.352C86.9839 198.952 86.5919 200.464 86.3679 201.856C85.9272 204.048 85.9571 206.309 86.4559 208.488C86.6111 209.074 86.8117 209.646 87.0559 210.2L87.3359 210.792Z" fill="white"/>
<path d="M88.872 232.976C88.8649 232.904 88.8649 232.832 88.872 232.76C88.872 232.584 88.92 232.384 88.944 232.168C89.2888 229.016 88.8377 225.828 87.632 222.896C87.088 221.584 86.4 220.416 85.856 219.304C85.3431 218.332 84.9535 217.3 84.696 216.232C84.5254 215.507 84.474 214.758 84.544 214.016C84.5664 213.745 84.6174 213.477 84.696 213.216C84.696 213.216 84.64 213.496 84.608 214.016C84.5667 214.747 84.6341 215.481 84.808 216.192C85.0848 217.238 85.4849 218.248 86 219.2C86.544 220.304 87.24 221.48 87.792 222.8C88.7374 225.059 89.2111 227.487 89.184 229.936C89.1896 230.958 89.085 231.977 88.872 232.976Z" fill="white"/>
<path d="M103.2 232.928C103.2 232.928 103.104 232.76 102.936 232.424C102.693 231.944 102.492 231.443 102.336 230.928C101.772 229.014 101.595 227.007 101.816 225.024C101.941 223.658 102.166 222.302 102.488 220.968C102.832 219.528 103.288 218.008 103.712 216.408C104.584 213.208 105.528 209.608 104.96 205.8C104.392 201.992 102.92 198.6 102.144 195.4C101.457 192.52 101.187 189.557 101.344 186.6C101.439 184.614 101.728 182.642 102.208 180.712C102.552 179.352 102.824 178.624 102.824 178.624C102.824 178.624 102.784 178.816 102.68 179.168C102.576 179.52 102.44 180.048 102.272 180.728C101.138 185.531 101.16 190.535 102.336 195.328C103.136 198.528 104.592 201.936 105.168 205.728C105.744 209.52 104.784 213.232 103.904 216.4C103.456 218 103.008 219.512 102.664 220.952C102.34 222.268 102.108 223.604 101.968 224.952C101.742 226.921 101.9 228.915 102.432 230.824C102.586 231.341 102.776 231.846 103 232.336C103.08 232.744 103.2 232.928 103.2 232.928Z" fill="white"/>
<path d="M69.5999 220.064C69.5909 220.238 69.5613 220.41 69.5119 220.576C69.4479 220.904 69.3599 221.376 69.2879 221.968C69.0813 223.512 69.0572 225.075 69.2159 226.624C69.3826 228.183 69.7261 229.719 70.2399 231.2C70.4479 231.76 70.6239 232.208 70.7599 232.512C70.842 232.667 70.9065 232.831 70.9519 233C70.8609 232.853 70.7781 232.701 70.7039 232.544C70.5519 232.24 70.3519 231.8 70.1359 231.24C69.572 229.775 69.2035 228.242 69.0399 226.68C68.8754 225.119 68.9131 223.544 69.1519 221.992C69.2203 221.523 69.3165 221.058 69.4399 220.6C69.4748 220.417 69.5284 220.237 69.5999 220.064Z" fill="white"/>
<path d="M66.0477 155.144L66.1917 155.232C66.342 155.314 66.484 155.411 66.6157 155.52C67.1298 155.933 67.5384 156.462 67.8077 157.064C68.202 158.028 68.3926 159.063 68.3677 160.104C68.3819 161.478 68.2124 162.847 67.8637 164.176C67.5197 165.664 67.0637 167.256 66.7677 169.024C66.4794 170.9 66.3616 172.799 66.4157 174.696C66.6169 179.049 67.2493 183.372 68.3037 187.6C69.3596 191.833 70.1927 196.119 70.7997 200.44C71.2695 203.984 71.1831 207.579 70.5437 211.096C70.1142 213.467 69.3037 215.752 68.1437 217.864C67.8243 218.434 67.4717 218.984 67.0877 219.512L66.6797 220.056C66.6797 220.056 66.8077 219.856 67.0637 219.488C67.3197 219.12 67.6717 218.568 68.0877 217.832C69.239 215.722 70.049 213.443 70.4877 211.08C71.1069 207.574 71.1824 203.993 70.7117 200.464C70.095 196.157 69.2566 191.885 68.1997 187.664C67.1465 183.422 66.5168 179.086 66.3197 174.72C66.2735 172.814 66.3993 170.908 66.6957 169.024C66.9677 167.248 67.4957 165.648 67.8157 164.176C68.1638 162.855 68.3413 161.494 68.3437 160.128C68.3676 159.097 68.1854 158.072 67.8077 157.112C67.5514 156.513 67.1565 155.984 66.6557 155.568C66.2477 155.264 66.0317 155.2 66.0477 155.144Z" fill="white"/>
<path d="M82.3279 214.264L82.1519 214.168L81.6799 213.872C81.2799 213.608 80.6719 213.264 79.9119 212.872C77.8968 211.861 75.7383 211.164 73.5119 210.808C71.2927 210.47 69.0351 210.47 66.8159 210.808C65.9679 210.944 65.2799 211.088 64.8159 211.208L64.2799 211.344H64.0879C64.9701 211.038 65.8776 210.81 66.7999 210.664C71.315 209.9 75.9563 210.651 79.9999 212.8C80.8157 213.222 81.5945 213.712 82.3279 214.264Z" fill="white"/>
<path d="M105.688 210.568L105.488 210.64L104.912 210.824L102.784 211.472L99.6237 212.416C98.4317 212.768 97.1197 213.168 95.7197 213.48C94.4083 213.794 93.0677 213.971 91.7197 214.008C90.6115 214.027 89.5057 213.898 88.4317 213.624C87.7119 213.44 87.0164 213.171 86.3597 212.824C86.1224 212.691 85.8952 212.542 85.6797 212.376C85.6797 212.376 85.9277 212.528 86.3917 212.76C87.0489 213.107 87.7442 213.375 88.4637 213.56C89.5292 213.818 90.6237 213.936 91.7197 213.912C93.0678 213.871 94.4082 213.691 95.7197 213.376C97.1197 213.064 98.4237 212.672 99.6157 212.328L102.816 211.416L104.96 210.816L105.544 210.664C105.588 210.626 105.636 210.594 105.688 210.568Z" fill="white"/>
<path d="M95.104 198.52L94.968 198.88C94.856 199.16 94.72 199.496 94.552 199.896C94.3441 200.443 94.1037 200.977 93.832 201.496C93.52 202.096 93.208 202.808 92.752 203.528L92.064 204.68C91.824 205.08 91.528 205.48 91.264 205.888C90.72 206.728 90.032 207.552 89.328 208.44C86.1698 212.211 82.2776 215.3 77.888 217.52C76.872 218.008 75.912 218.488 74.96 218.832C74.496 219.008 74.048 219.208 73.608 219.352L72.328 219.752C71.528 220.04 70.728 220.184 70.104 220.352C69.543 220.499 68.9741 220.614 68.4 220.696L67.312 220.864C67.064 220.904 66.936 220.912 66.936 220.912L67.312 220.832L68.384 220.632C68.856 220.552 69.432 220.44 70.08 220.264C70.728 220.088 71.488 219.928 72.296 219.64L73.56 219.232C74 219.08 74.448 218.88 74.912 218.704C75.856 218.352 76.808 217.904 77.824 217.384C79.99 216.26 82.0468 214.937 83.968 213.432C85.8671 211.9 87.6211 210.197 89.208 208.344C89.912 207.464 90.6 206.64 91.152 205.808C91.432 205.392 91.728 205.008 91.952 204.608L92.648 203.472C93.112 202.752 93.448 202.048 93.752 201.456C94.056 200.864 94.312 200.328 94.496 199.856L94.936 198.848C95.04 198.64 95.104 198.52 95.104 198.52Z" fill="#263238"/>
<g opacity="0.3">
<path d="M70.92 220.04C70.568 220.136 70.6 219.376 70.608 219.008C70.6427 218.425 70.9005 217.878 71.328 217.48C72.2839 216.716 73.4179 216.207 74.624 216C76.579 215.442 78.4593 214.65 80.2239 213.64C82.6719 212.132 84.9821 210.41 87.128 208.496L92.096 204.336C87.2853 212.068 79.7153 217.682 70.92 220.04Z" fill="black"/>
</g>
<g opacity="0.3">
<path d="M96.9038 171.04C99.9198 180.52 102.248 190.472 105.272 199.952L104.552 180.312C101.616 177.562 99.0453 174.446 96.9038 171.04Z" fill="black"/>
</g>
<path d="M156.936 173.456L159.944 170.256C159.944 170.256 163.464 170.368 164.032 169.688C164.6 169.008 169.576 163.592 169.576 163.592C169.023 162.883 168.321 162.304 167.52 161.896C166.44 161.336 166.616 161.528 165.824 161.144C164.376 160.448 165.552 159.736 164.28 159.544C163.544 159.424 161.928 160.736 161.296 161.144L153.936 165.824L156.936 173.456Z" fill="#B78876"/>
<path d="M156.656 164.36C156.552 163.904 158.456 160.36 158.2 159.008C157.944 157.656 159.336 158.128 159.592 159.008C159.848 159.888 160.192 161.856 160.192 161.856L156.656 164.36Z" fill="#B78876"/>
<path d="M162.056 160.568C162.056 160.568 160.84 161.44 159.296 162.44C158.376 163.069 157.422 163.649 156.44 164.176C156.44 164.136 157.656 163.296 159.2 162.296C160.744 161.296 162.032 160.528 162.056 160.568Z" fill="#AA6550"/>
<path d="M165.984 161.104C165.779 161.093 165.573 161.093 165.368 161.104C164.875 161.142 164.402 161.313 164 161.6C163.601 161.901 163.241 162.251 162.928 162.64C162.804 162.807 162.662 162.96 162.504 163.096C162.587 162.903 162.7 162.725 162.84 162.568C163.132 162.147 163.488 161.775 163.896 161.464C164.317 161.154 164.821 160.978 165.344 160.96C165.567 160.938 165.792 160.988 165.984 161.104Z" fill="#AA6550"/>
<path d="M168.096 162.248C167.893 162.195 167.695 162.125 167.504 162.04C167.281 161.948 167.037 161.915 166.798 161.944C166.558 161.974 166.33 162.065 166.136 162.208C165.577 162.656 165.043 163.134 164.536 163.64C164.625 163.448 164.747 163.272 164.896 163.12C165.225 162.727 165.601 162.375 166.016 162.072C166.247 161.896 166.526 161.795 166.816 161.784C167.268 161.802 167.703 161.965 168.056 162.248H168.096Z" fill="#AA6550"/>
<path d="M105.728 117.6C106.168 121.128 101.232 123.2 101.232 123.2L100.368 131.552C99.5958 131.497 98.8205 131.497 98.0481 131.552C98.4641 127.632 93.4161 128.4 92.9041 131.072C92.3921 133.744 95.3041 135.36 95.3041 135.36C93.2801 138.464 92.4641 140.096 89.5921 143C86.4881 146.144 84.7921 146.4 81.5921 146.304L78.0641 146.144C78.0641 146.144 76.8081 143.128 75.8881 136.008C75.4401 132.576 72.7681 128.088 73.4881 122.512C75.6561 106.68 90.8241 108.352 90.8241 108.352C98.7921 108.552 104.688 109.424 105.728 117.6Z" fill="#263238"/>
</svg>
