<svg width="88" height="70" viewBox="0 0 88 70" fill="none" xmlns="http://www.w3.org/2000/svg">
<path d="M59.3999 55.3726C59.5619 55.6366 63.2819 66.6466 64.4759 66.7006C65.8545 66.6475 67.2278 66.4992 68.5859 66.2566C68.5859 66.2566 68.9459 51.4546 69.1319 50.4766C69.2369 49.4793 69.2369 48.4738 69.1319 47.4766L61.1159 49.3666L59.3999 55.3726Z" fill="black"/>
<path d="M47.1001 60.1187C47.4181 60.0707 49.7401 66.9708 51.3001 66.9168C52.8601 66.8628 56.3041 66.7968 56.3041 66.4968C56.3041 66.1968 55.8661 56.9688 55.8661 56.9688C55.8661 56.9688 47.8381 57.5687 47.8921 57.7367C47.6767 58.5461 47.4122 59.3416 47.1001 60.1187Z" fill="black"/>
<path d="M29.706 59.2547C29.592 59.3567 31.908 66.7187 32.82 66.8807C33.732 67.0427 37.488 66.6587 37.488 66.4967C37.488 66.3347 38.43 59.2547 38.43 59.2547C38.43 59.2547 32.658 56.7227 29.706 59.2547Z" fill="black"/>
<path d="M18.7679 58.2407C18.7679 58.2407 21.3179 65.6747 22.2479 66.1547C23.1779 66.6347 27.1019 66.4727 27.1019 66.4727L26.8919 58.2407L16.9319 52.6787L18.7679 58.2407Z" fill="black"/>
<path d="M17.604 54.509C18.054 55.049 27.51 61.619 45.342 60.365C63.174 59.111 71.742 47.021 71.742 47.021L3.20996 47.891C3.20996 47.891 4.78796 52.325 11.712 52.325H16.8L17.604 54.509Z" fill="black"/>
<path d="M28.4881 61.6488C28.5825 62.3064 28.6026 62.9726 28.5481 63.6348C28.5481 64.8948 28.4761 66.6888 28.3921 68.8428C28.3891 68.9113 28.3601 68.976 28.3111 69.0239C28.2621 69.0719 28.1966 69.0993 28.1281 69.1008H26.0341C25.9812 69.0999 25.9294 69.085 25.8841 69.0576C25.8388 69.0302 25.8015 68.9912 25.7761 68.9448L25.1761 67.8348H25.7221C25.5841 68.1828 25.4281 68.5608 25.2721 68.9448C25.2495 69.0012 25.2106 69.0495 25.1604 69.0837C25.1101 69.1179 25.0509 69.1364 24.9901 69.1368H21.8221C21.7612 69.1373 21.7015 69.1199 21.6503 69.0869C21.5991 69.0538 21.5587 69.0065 21.5341 68.9508C20.0101 65.3868 18.6661 62.1708 17.7241 59.8368C16.7821 57.5028 16.2481 56.0508 16.3261 56.0508C16.4041 56.0508 17.0821 57.4068 18.1261 59.6988C19.1701 61.9908 20.5741 65.1768 22.1041 68.7408L21.8221 68.5488H25.0081L24.7201 68.7408C24.8821 68.3568 25.0381 67.9788 25.1881 67.6308C25.2186 67.5578 25.2767 67.4999 25.3498 67.4695C25.4228 67.4392 25.5049 67.4389 25.5781 67.4688C25.6446 67.4983 25.6994 67.5489 25.7341 67.6128L26.2921 68.7288L26.0281 68.5668H28.1221L27.8521 68.8248C27.9901 66.6708 28.1221 64.8768 28.2301 63.6228C28.2494 62.9578 28.3359 62.2964 28.4881 61.6488Z" fill="#263238"/>
<path d="M56.856 60.3647C57.0077 61.1553 57.0721 61.9601 57.048 62.7647C57.102 64.2707 57.1379 66.3647 57.156 68.8307C57.1567 68.8699 57.1497 68.9087 57.1353 68.9451C57.1209 68.9815 57.0994 69.0146 57.072 69.0425C57.0446 69.0705 57.0119 69.0927 56.9759 69.1078C56.9398 69.123 56.9011 69.1308 56.862 69.1307H54.7739C54.7177 69.1306 54.6626 69.1155 54.6141 69.087C54.5656 69.0585 54.5255 69.0177 54.498 68.9687C54.36 68.7167 54.21 68.4467 54.054 68.1767L53.934 67.9547H54.492L54.03 68.9687C54.0064 69.024 53.9671 69.0711 53.9169 69.1042C53.8668 69.1373 53.808 69.1548 53.748 69.1547H50.562C50.5091 69.1535 50.4577 69.1377 50.4132 69.1091C50.3688 69.0805 50.3331 69.0403 50.31 68.9927C49.428 67.1927 48.702 65.5967 48.204 64.4807C47.9001 63.9104 47.6644 63.3062 47.502 62.6807C47.9069 63.1867 48.2475 63.7409 48.516 64.3307C49.116 65.4047 49.902 66.9347 50.826 68.7467L50.568 68.5847H53.754L53.472 68.7707L53.928 67.7507C53.9442 67.7135 53.9677 67.6798 53.9971 67.6517C54.0265 67.6236 54.0612 67.6016 54.0992 67.5871C54.1372 67.5726 54.1777 67.5658 54.2184 67.5671C54.259 67.5684 54.299 67.5778 54.336 67.5947C54.3974 67.6237 54.4494 67.6695 54.486 67.7267L54.606 67.9487L55.05 68.7467L54.78 68.5847H56.868L56.568 68.8847C56.568 66.4427 56.622 64.3247 56.676 62.8187C56.6439 61.9966 56.7042 61.1734 56.856 60.3647Z" fill="#263238"/>
<path d="M14.112 54.3589C14.232 54.2029 17.148 56.5609 21.258 58.5589C25.368 60.5569 28.974 61.5589 28.92 61.7569C28.101 61.7139 27.2926 61.5522 26.52 61.2769C24.6197 60.7293 22.7724 60.0124 21 59.1349C19.223 58.2571 17.5334 57.2124 15.954 56.0149C14.73 55.0849 14.064 54.4189 14.112 54.3589Z" fill="#263238"/>
<path d="M38.4299 63.1547C38.4299 63.0647 39.6299 63.0047 41.5739 62.8487C44.0931 62.6471 46.5991 62.3046 49.0799 61.8227C51.5601 61.3392 54.0054 60.6917 56.3999 59.8847C58.2419 59.2847 59.3579 58.8107 59.3999 58.9007C59.4419 58.9907 58.3739 59.5667 56.5499 60.2987C54.1721 61.2404 51.7114 61.9576 49.1999 62.4406C46.6935 62.9313 44.1509 63.2143 41.5979 63.2867C39.6419 63.3347 38.4299 63.2507 38.4299 63.1547Z" fill="#263238"/>
<path d="M70.4219 51.1188C70.6237 50.8231 70.8442 50.5405 71.0819 50.2728C71.7232 49.4797 72.324 48.6546 72.8819 47.8008C74.9477 44.6573 76.3295 41.1147 76.9379 37.4028C77.3655 34.85 77.4703 32.2537 77.2499 29.6748C77.2139 28.9788 77.0879 28.2828 76.9979 27.5688C76.9079 26.8548 76.7579 26.1348 76.5599 25.4208C76.2051 23.9381 75.7233 22.4888 75.1199 21.0888C72.7199 15.3228 67.9199 9.90478 61.6679 6.26878C54.614 2.26528 46.586 0.301674 38.4806 0.597284C30.3751 0.892894 22.5115 3.43608 15.7679 7.94278C15.2039 8.29678 14.7359 8.65678 14.3159 8.95678C13.8959 9.25678 13.5539 9.52078 13.2839 9.74278C13.0128 9.97686 12.724 10.1895 12.4199 10.3788C12.6573 10.11 12.9184 9.86297 13.1999 9.64078C13.4639 9.40678 13.7999 9.12478 14.2019 8.80678C14.6039 8.48878 15.0719 8.11678 15.6299 7.73878C18.7265 5.54671 22.113 3.79593 25.6919 2.53678C31.0023 0.616003 36.6419 -0.228407 42.2819 0.0527786C49.2117 0.332191 55.9714 2.28148 61.9859 5.73478C68.3459 9.43078 73.2059 14.9628 75.6539 20.8668C76.2578 22.2996 76.7395 23.7809 77.0939 25.2948C77.2919 26.0268 77.3879 26.7648 77.5259 27.4848C77.6639 28.2048 77.7359 28.9248 77.7659 29.6328C77.9685 32.2547 77.8374 34.8918 77.3759 37.4808C76.7198 41.2362 75.2561 44.8044 73.0859 47.9388C72.4954 48.7771 71.8542 49.5786 71.1659 50.3388C70.9416 50.6204 70.6926 50.8814 70.4219 51.1188Z" fill="#263238"/>
<path d="M4.43405 22.1986C4.61405 22.2526 3.43205 25.5526 3.09605 29.7886C2.76005 34.0246 3.53405 37.4506 3.34205 37.4866C3.26405 37.4866 2.97605 36.6706 2.74205 35.2726C2.42867 33.4462 2.34402 31.5879 2.49005 29.7406C2.63521 27.8945 2.98947 26.0708 3.54605 24.3046C3.96605 22.9546 4.35605 22.1686 4.43405 22.1986Z" fill="#263238"/>
<path d="M13.656 54.1669C13.656 54.0349 15.804 54.1309 19.056 53.1949C20.9593 52.6492 22.758 51.7893 24.378 50.6509C25.308 49.9686 26.1189 49.1374 26.778 48.1909C27.4601 47.1814 27.8333 45.995 27.852 44.7769C27.8726 43.588 27.6317 42.4092 27.1465 41.3236C26.6613 40.2381 25.9435 39.2724 25.044 38.4949C24.2653 37.7941 23.3905 37.2082 22.446 36.7549L21.792 36.4429C21.57 36.3469 21.348 36.2689 21.138 36.1849C20.712 36.0109 20.286 35.8849 19.884 35.7649C16.614 34.8469 14.454 34.9729 14.484 34.8349C14.9777 34.754 15.4791 34.7318 15.978 34.7689C17.341 34.808 18.6954 34.9992 20.016 35.3389C20.458 35.443 20.8929 35.5753 21.318 35.7349C21.546 35.8129 21.774 35.8909 22.002 35.9809L22.692 36.2929C23.6946 36.7523 24.6228 37.359 25.446 38.0929C26.4199 38.9162 27.1985 39.9456 27.7257 41.1068C28.2528 42.268 28.5153 43.5318 28.494 44.8069C28.4716 46.1477 28.0542 47.4521 27.294 48.5569C26.591 49.5526 25.7272 50.4245 24.738 51.1369C23.0559 52.297 21.1806 53.1483 19.2 53.6509C17.8781 53.9888 16.525 54.1899 15.162 54.2509C14.6585 54.284 14.1527 54.2558 13.656 54.1669Z" fill="#263238"/>
<path d="M44.808 20.147C44.724 20.147 44.208 18.599 43.182 16.127C42.5951 14.6917 41.9301 13.2896 41.19 11.927C40.7571 11.1268 40.2552 10.366 39.69 9.653C39.4029 9.27723 39.0681 8.9404 38.694 8.651C38.5088 8.51763 38.3071 8.40873 38.094 8.327C37.9977 8.29347 37.8995 8.26542 37.8 8.243H37.5C37.0429 8.30321 36.6034 8.45855 36.21 8.699C35.7989 8.93497 35.4077 9.20385 35.04 9.503C34.3302 10.0785 33.6606 10.7019 33.036 11.369C31.836 12.647 30.822 13.883 29.988 14.927C28.338 17.027 27.384 18.389 27.312 18.341C27.4386 17.9686 27.6229 17.6183 27.858 17.303C28.254 16.661 28.848 15.755 29.658 14.663C30.5852 13.3775 31.5869 12.1474 32.658 10.979C33.2893 10.278 33.9711 9.62426 34.698 9.023C35.0889 8.70037 35.5064 8.41134 35.946 8.159C36.4163 7.86896 36.9449 7.6866 37.494 7.625C37.644 7.625 37.794 7.625 37.944 7.625C38.0924 7.65582 38.2387 7.6959 38.382 7.745C38.6384 7.84972 38.8804 7.98684 39.102 8.153C39.5019 8.47162 39.8589 8.84069 40.164 9.251C40.7502 9.99982 41.2625 10.8036 41.694 11.651C42.4244 13.0549 43.0598 14.5061 43.596 15.995C44.052 17.261 44.376 18.305 44.574 19.031C44.7076 19.3891 44.7865 19.7654 44.808 20.147Z" fill="#263238"/>
<path d="M4.6621 9.64098C4.6261 9.61098 4.7701 9.41297 5.1301 9.26297C5.63389 9.08086 6.16647 8.99142 6.7021 8.99898C8.43007 9.03869 10.1435 9.3256 11.7901 9.85098C15.6541 10.967 18.5881 12.377 18.5281 12.527C18.4681 12.677 15.4321 11.567 11.6221 10.451C10.0188 9.94275 8.36854 9.59701 6.6961 9.41897C6.19753 9.37765 5.69576 9.3978 5.2021 9.47897C4.8541 9.56297 4.6921 9.66498 4.6621 9.64098Z" fill="#263238"/>
<path d="M28.8301 4.58259C28.8301 4.58259 29.2561 4.36659 30.2581 3.93459C30.7561 3.72459 31.3441 3.57459 32.0581 3.33459C32.4061 3.22059 32.7901 3.14859 33.1981 3.04659C33.6061 2.94459 34.0261 2.83659 34.4881 2.76459C39.3577 1.90682 44.3428 1.94138 49.2001 2.86659C49.2465 2.87547 49.2899 2.89613 49.3261 2.92659L52.4341 5.56659L52.7041 5.80059C52.7357 5.82661 52.7619 5.85873 52.7809 5.89504C52.7999 5.93135 52.8114 5.97112 52.8148 6.01197C52.8182 6.05282 52.8133 6.09394 52.8004 6.13286C52.7876 6.17179 52.7671 6.20775 52.7401 6.23859C52.6996 6.28566 52.6462 6.31982 52.5864 6.33688C52.5267 6.35394 52.4633 6.35314 52.4041 6.33459C50.2875 5.63821 48.0928 5.20692 45.8701 5.05059C43.8877 4.8957 41.897 4.87766 39.9121 4.99659C37.0295 5.17625 34.1651 5.57744 31.3441 6.19659C31.3111 6.20851 31.275 6.20851 31.2421 6.19659C30.4081 5.68059 29.7961 5.26059 29.4001 4.99659C29.0041 4.73259 28.8001 4.60059 28.8421 4.60659C28.8841 4.61259 29.1121 4.73859 29.5501 4.96659C29.9881 5.19459 30.6121 5.51259 31.3921 5.95059H31.2841C34.1024 5.21261 36.9825 4.73461 39.8881 4.52259C41.8995 4.37796 43.9187 4.37796 45.9301 4.52259C48.2036 4.66888 50.4494 5.10232 52.6141 5.81259L52.3141 6.34659L52.0441 6.11859L48.9361 3.46659L49.0741 3.53859C44.2862 2.61585 39.3765 2.51238 34.5541 3.23259C34.0981 3.28659 33.6781 3.38859 33.2761 3.46659C32.8741 3.54459 32.4841 3.61059 32.1421 3.71259C31.4521 3.90459 30.8221 4.04259 30.3421 4.19259C29.4481 4.40859 28.8601 4.57659 28.8301 4.58259Z" fill="#263238"/>
<path d="M24.126 44.4107C24.02 43.5289 23.8312 42.659 23.562 41.8127C23.2019 40.841 22.6783 39.938 22.014 39.1427C21.1257 38.0967 20.0517 37.224 18.846 36.5687C15.6654 34.8812 11.9582 34.4795 8.49 35.4467C7.50386 35.7232 6.55189 36.1096 5.652 36.5987C4.72591 37.1273 3.87441 37.777 3.12 38.5307C1.52629 40.1085 0.620535 42.2521 0.6 44.4947C0.622701 46.7333 1.49817 48.8791 3.048 50.4947C4.53879 51.96 6.40893 52.9803 8.448 53.4407C10.3089 53.8644 12.2288 53.9659 14.124 53.7407C15.7735 53.5422 17.37 53.0311 18.828 52.2347C20.0327 51.5753 21.1064 50.7009 21.996 49.6547C22.6619 48.8604 23.1856 47.9572 23.544 46.9847C23.8144 46.1386 24.0033 45.2687 24.108 44.3867C24.1381 44.6197 24.1381 44.8556 24.108 45.0887C24.1023 45.3727 24.0722 45.6558 24.018 45.9347C23.9613 46.3179 23.8709 46.6953 23.748 47.0627C23.4184 48.0832 22.9083 49.0363 22.242 49.8767C21.3473 50.9825 20.2547 51.9123 19.02 52.6187C17.5216 53.4699 15.8738 54.0259 14.166 54.2567C12.208 54.5145 10.2199 54.4272 8.292 53.9987C6.12947 53.5349 4.14268 52.4676 2.562 50.9207C0.918053 49.1873 0.00114421 46.8896 0 44.5007C0.0205678 42.0917 0.995903 39.7893 2.712 38.0987C3.50895 37.309 4.40912 36.6308 5.388 36.0827C6.33887 35.5694 7.34544 35.1667 8.388 34.8827C11.994 33.9055 15.8387 34.368 19.11 36.1727C20.3447 36.879 21.4373 37.8088 22.332 38.9147C22.9983 39.755 23.5084 40.7081 23.838 41.7287C23.9448 42.0954 24.0191 42.4709 24.06 42.8507C24.1148 43.1295 24.1449 43.4126 24.15 43.6967C24.1736 43.9347 24.1655 44.1748 24.126 44.4107Z" fill="#263238"/>
<path d="M7.93198 48.9889C7.93198 48.9289 8.26798 48.9529 8.60998 48.5929C8.70706 48.4825 8.77928 48.3525 8.82172 48.2117C8.86416 48.0709 8.87585 47.9226 8.85598 47.7769C8.85598 47.3809 8.85598 46.9429 8.80798 46.4629C8.80798 45.4729 8.76598 44.3149 8.74198 43.0429C8.74198 42.4009 8.74198 41.7229 8.74198 41.0269C8.75477 40.8947 8.73461 40.7614 8.68331 40.6389C8.632 40.5164 8.55116 40.4086 8.44798 40.3249C8.34585 40.2414 8.22394 40.1856 8.09398 40.1629C7.93015 40.1525 7.76582 40.1525 7.60198 40.1629C7.40367 40.165 7.2131 40.2402 7.06691 40.3742C6.92072 40.5082 6.82921 40.6915 6.80998 40.8889C6.80998 41.0149 6.80998 41.2309 6.80998 41.3929C6.80998 42.0949 6.80998 42.7669 6.80998 43.4149C6.80998 44.6869 6.76198 45.8149 6.74398 46.8349C6.74398 47.0749 6.74398 47.3029 6.74398 47.5249C6.72791 47.7246 6.72791 47.9252 6.74398 48.1249C6.76932 48.2662 6.82546 48.4002 6.90842 48.5174C6.99138 48.6346 7.09911 48.7321 7.22398 48.8029C7.3955 48.8972 7.58646 48.9505 7.78198 48.9589C7.91998 48.9589 7.99798 49.0009 7.99798 49.0249C7.99798 49.0489 7.91998 49.0669 7.78198 49.0849C7.55878 49.1284 7.32781 49.1076 7.11598 49.0249C6.9426 48.9508 6.78828 48.8383 6.66461 48.6959C6.54095 48.5535 6.45115 48.385 6.40198 48.2029C6.36374 47.9851 6.34567 47.7641 6.34798 47.5429C6.34798 47.3209 6.34798 47.0929 6.34798 46.8529C6.34798 45.8569 6.30598 44.7049 6.28198 43.4329C6.28198 42.7849 6.28198 42.1129 6.28198 41.4109C6.28198 41.2249 6.28198 41.0869 6.28198 40.8589C6.29616 40.6278 6.37063 40.4044 6.49798 40.2109C6.62698 40.0099 6.80454 39.8446 7.01426 39.7303C7.22399 39.616 7.45913 39.5564 7.69798 39.5569C7.89846 39.5508 8.09911 39.5608 8.29798 39.5869C8.52946 39.6265 8.74661 39.7258 8.92798 39.8749C9.10538 40.022 9.24523 40.2091 9.33598 40.4209C9.41874 40.6244 9.45561 40.8436 9.44398 41.0629C9.44398 41.7589 9.44398 42.4369 9.44398 43.0789C9.44398 44.3509 9.39598 45.5089 9.37798 46.4989C9.37798 46.9789 9.34798 47.4169 9.32998 47.8129C9.33746 47.9993 9.30308 48.185 9.22936 48.3563C9.15564 48.5276 9.04445 48.6802 8.90398 48.8029C8.28598 49.1509 7.91398 49.0069 7.93198 48.9889Z" fill="#263238"/>
<path d="M14.7841 48.9887C14.7841 48.9287 15.1201 48.9527 15.4621 48.5927C15.5592 48.4822 15.6314 48.3522 15.6738 48.2114C15.7163 48.0706 15.7279 47.9224 15.7081 47.7767C15.7081 47.3807 15.7081 46.9427 15.6601 46.4627C15.6601 45.4727 15.6181 44.3147 15.5941 43.0427C15.5941 42.4007 15.5941 41.7227 15.5941 41.0267C15.6058 40.8946 15.5852 40.7616 15.5339 40.6393C15.4827 40.517 15.4024 40.409 15.3001 40.3246C15.1995 40.2386 15.0769 40.1825 14.9461 40.1627C14.7802 40.1521 14.6139 40.1521 14.4481 40.1627C14.2508 40.1661 14.0617 40.242 13.9168 40.3759C13.7718 40.5098 13.6812 40.6923 13.6621 40.8887C13.6621 41.0147 13.6621 41.2307 13.6621 41.3927C13.6621 42.0947 13.6621 42.7667 13.6621 43.4147C13.6621 44.6867 13.6141 45.8147 13.5961 46.8347C13.5961 47.0747 13.5961 47.3026 13.5961 47.5247C13.58 47.7243 13.58 47.925 13.5961 48.1247C13.6214 48.266 13.6776 48.4 13.7605 48.5171C13.8435 48.6343 13.9512 48.7318 14.0761 48.8027C14.2458 48.896 14.4346 48.9494 14.6281 48.9586C14.7721 48.9586 14.8501 49.0007 14.8501 49.0247C14.8501 49.0486 14.7721 49.0667 14.6281 49.0847C14.4068 49.127 14.1781 49.1062 13.9681 49.0247C13.78 48.9547 13.6119 48.84 13.4781 48.6906C13.3443 48.5411 13.2488 48.3613 13.2001 48.1667C13.159 47.9492 13.1409 47.7279 13.1461 47.5067C13.1461 47.2847 13.1461 47.0567 13.1461 46.8167C13.1461 45.8207 13.1041 44.6687 13.0801 43.3967C13.0801 42.7487 13.0801 42.0766 13.0801 41.3746C13.0801 41.1886 13.0801 41.0507 13.0801 40.8227C13.0943 40.5915 13.1687 40.3681 13.2961 40.1746C13.4247 39.9732 13.6021 39.8077 13.812 39.6933C14.0218 39.579 14.2571 39.5196 14.4961 39.5207C14.6966 39.5148 14.8972 39.5249 15.0961 39.5507C15.317 39.5951 15.5232 39.6941 15.6961 39.8387C15.8735 39.9857 16.0133 40.1729 16.1041 40.3847C16.1832 40.5973 16.216 40.8243 16.2001 41.0507C16.2001 41.7467 16.2001 42.4247 16.2001 43.0667C16.2001 44.3387 16.1521 45.4967 16.1341 46.4867C16.1341 46.9667 16.1041 47.4047 16.0861 47.8007C16.0923 47.9868 16.0573 48.1721 15.9837 48.3433C15.9101 48.5144 15.7996 48.6671 15.6601 48.7907C15.1381 49.1507 14.7661 49.0067 14.7841 48.9887Z" fill="#263238"/>
<path d="M4.43411 22.1989C4.35011 22.1989 4.11611 20.6149 3.83411 17.9989C3.69611 16.7089 3.52811 15.1729 3.40811 13.4509C3.37811 13.0009 3.40811 12.5689 3.40811 12.1009C3.41457 11.6288 3.47905 11.1593 3.60011 10.7029C3.74212 10.1722 4.06192 9.70627 4.50611 9.38294C4.97397 9.08353 5.52326 8.93677 6.07811 8.96294C6.60857 8.99693 7.12776 9.13131 7.60811 9.35894C8.06411 9.54494 8.50211 9.75494 8.91611 9.95894C9.76211 10.3909 10.5421 10.8409 11.2861 11.2849C12.7681 12.1669 14.0641 13.0129 15.1441 13.7329C16.2241 14.4529 17.0821 15.0649 17.6701 15.5329C17.9935 15.7319 18.2865 15.9764 18.5401 16.2589C18.4861 16.3369 17.1241 15.4849 14.9401 14.1349C13.8301 13.4629 12.5401 12.6589 11.0281 11.8129C10.2841 11.3869 9.49811 10.9489 8.67011 10.5349C8.26211 10.3309 7.83611 10.1269 7.40411 9.93494C6.99877 9.74166 6.56166 9.62374 6.11411 9.58694C5.69233 9.56486 5.27381 9.67159 4.91411 9.89294C4.56919 10.1282 4.31679 10.4761 4.20011 10.8769C4.00068 11.7195 3.92589 12.5867 3.97811 13.4509C4.06811 15.1489 4.18811 16.6969 4.27211 17.9929C4.44011 20.5849 4.51811 22.1869 4.43411 22.1989Z" fill="#263238"/>
<path d="M58.9919 57.0525C58.8806 56.8965 58.8105 56.7149 58.7879 56.5245C58.7434 56.2954 58.7313 56.0611 58.7519 55.8285C58.8014 55.5171 58.8756 55.2102 58.9739 54.9105C59.2155 54.0893 59.5624 53.3027 60.0059 52.5705C60.6142 51.5881 61.4342 50.7538 62.4059 50.1285C63.5844 49.3832 64.9151 48.9116 66.2999 48.7485C66.6734 48.6889 67.0501 48.6508 67.4279 48.6345C67.8451 48.5863 68.2677 48.6335 68.6639 48.7725C69.086 48.9247 69.4636 49.1793 69.7631 49.5133C70.0626 49.8473 70.2745 50.2505 70.3799 50.6865C70.4348 50.9104 70.463 51.14 70.4639 51.3705C70.4639 51.5805 70.4639 51.7905 70.4639 52.0005C70.4639 52.4205 70.4639 52.8465 70.4639 53.2725C70.4639 54.1365 70.4639 55.0125 70.4159 55.9065C70.3739 57.7065 70.3379 59.5425 70.2959 61.4325C70.2359 64.0245 70.1759 66.5325 70.1219 68.9025C70.1189 68.9806 70.0861 69.0545 70.0303 69.1091C69.9746 69.1638 69.9 69.1951 69.8219 69.1965H68.6219C68.5769 69.1959 68.5327 69.1854 68.4922 69.1657C68.4518 69.146 68.4162 69.1176 68.3879 69.0825L67.5299 67.9845H67.9979L67.1999 69.0585C67.1739 69.0968 67.1391 69.1282 67.0983 69.1501C67.0576 69.1721 67.0122 69.1839 66.9659 69.1845H63.6059C63.5528 69.1846 63.5009 69.1685 63.457 69.1386C63.4131 69.1086 63.3793 69.0661 63.3599 69.0165C61.9919 65.4165 60.8699 62.4645 60.1019 60.3765C59.7179 59.3325 59.4239 58.5165 59.2319 57.9765C59.1141 57.6949 59.0276 57.4011 58.9739 57.1005C59.1428 57.3343 59.2856 57.5858 59.3999 57.8505C59.6399 58.3965 59.9999 59.2005 60.4019 60.2505C61.2539 62.3025 62.4479 65.2485 63.8699 68.8065L63.5999 68.6505H66.9599L66.7259 68.7765L67.4519 67.6785C67.4947 67.6149 67.5607 67.5704 67.6358 67.5547C67.7109 67.539 67.7892 67.5533 67.8539 67.5945L67.9199 67.6605L68.7899 68.7525L68.5559 68.6385H69.7559L69.4559 68.9325C69.5039 66.5325 69.5519 64.0545 69.6059 61.4625C69.6539 59.5665 69.6959 57.7185 69.7379 55.9305C69.7379 55.0425 69.7799 54.1605 69.8039 53.3025V52.0305V51.4305C69.8049 51.2468 69.7848 51.0636 69.7439 50.8845C69.6635 50.5384 69.4987 50.2176 69.2642 49.9507C69.0297 49.6837 68.7328 49.4789 68.3999 49.3545C68.0739 49.2358 67.7246 49.1947 67.3799 49.2345C67.0146 49.2459 66.6502 49.2759 66.2879 49.3245C64.9707 49.4641 63.6995 49.8879 62.5619 50.5665C61.635 51.1432 60.8431 51.9127 60.2399 52.8225C59.7859 53.5199 59.4173 54.2693 59.1419 55.0545C58.8745 55.6861 58.8218 56.3881 58.9919 57.0525Z" fill="#263238"/>
<path d="M38.43 63.1549C38.279 62.8988 38.1466 62.6321 38.034 62.3569C37.6747 61.6287 37.168 60.983 36.546 60.4609C36.0721 60.0892 35.5284 59.8164 34.9471 59.6588C34.3658 59.5011 33.7588 59.4617 33.162 59.5429C32.4189 59.6657 31.7116 59.9495 31.0898 60.3745C30.4679 60.7994 29.9465 61.3552 29.562 62.0029V61.7509C30.072 63.0649 30.618 64.4869 31.188 65.9509C31.56 66.9229 31.926 67.8709 32.274 68.7889L31.986 68.5909H35.808L35.568 68.7229L36.36 67.4809C36.3983 67.4205 36.4589 67.3777 36.5287 67.362C36.5984 67.3462 36.6715 67.3588 36.732 67.3969C36.7676 67.4214 36.7965 67.4544 36.816 67.4929L37.554 68.7529L37.338 68.6269H38.286L38.052 68.8549C38.124 67.0969 38.202 65.6689 38.268 64.6549C38.2678 64.1324 38.3241 63.6113 38.436 63.1009C38.5274 63.6075 38.5596 64.1229 38.532 64.6369C38.532 65.6329 38.532 67.0729 38.532 68.8369C38.5305 68.8969 38.506 68.954 38.4636 68.9964C38.4211 69.0389 38.364 69.0634 38.304 69.0649H37.356C37.3144 69.0642 37.2736 69.0535 37.237 69.0337C37.2005 69.0138 37.1692 68.9854 37.146 68.9509C36.906 68.5549 36.648 68.1409 36.378 67.7089H36.84L36.072 68.9689C36.0463 69.0084 36.0118 69.0414 35.9712 69.0653C35.9306 69.0892 35.885 69.1035 35.838 69.1069H32.016C31.9551 69.1073 31.8955 69.0892 31.8451 69.0549C31.7947 69.0206 31.756 68.9718 31.734 68.9149C31.374 67.9989 31.008 67.0529 30.636 66.0769C30.078 64.6069 29.532 63.1909 29.028 61.8769C29.0104 61.8394 29.0012 61.7984 29.0012 61.7569C29.0012 61.7154 29.0104 61.6744 29.028 61.6369C29.4732 60.931 30.0696 60.3329 30.7742 59.8857C31.4787 59.4384 32.2738 59.1533 33.102 59.0509C33.7625 58.975 34.4315 59.0372 35.0667 59.2334C35.7019 59.4297 36.2894 59.7557 36.792 60.1909C37.427 60.7685 37.9163 61.4881 38.22 62.2909C38.3577 62.5581 38.4297 62.8543 38.43 63.1549Z" fill="#263238"/>
<path d="M12.8581 31.4266C13.829 31.4266 14.6161 30.6396 14.6161 29.6686C14.6161 28.6977 13.829 27.9106 12.8581 27.9106C11.8872 27.9106 11.1001 28.6977 11.1001 29.6686C11.1001 30.6396 11.8872 31.4266 12.8581 31.4266Z" fill="#263238"/>
<path d="M32.016 29.6506C32.016 29.9983 31.9129 30.3382 31.7197 30.6273C31.5266 30.9164 31.252 31.1417 30.9308 31.2748C30.6095 31.4078 30.2561 31.4426 29.915 31.3748C29.574 31.307 29.2608 31.1395 29.0149 30.8937C28.769 30.6478 28.6016 30.3346 28.5338 29.9935C28.4659 29.6525 28.5008 29.2991 28.6338 28.9778C28.7669 28.6566 28.9922 28.382 29.2813 28.1889C29.5704 27.9957 29.9103 27.8926 30.258 27.8926C30.4889 27.8926 30.7175 27.938 30.9308 28.0264C31.144 28.1147 31.3379 28.2442 31.5011 28.4075C31.6643 28.5707 31.7938 28.7645 31.8822 28.9778C31.9705 29.1911 32.016 29.4197 32.016 29.6506Z" fill="#263238"/>
<path opacity="0.3" d="M3.20996 47.891C3.58196 47.891 21.924 50.015 36.81 50.021C57.012 50.021 71.766 47.021 71.766 47.021L3.20996 47.891Z" fill="black"/>
<path d="M87.888 24.959C87.7482 25.3002 87.5205 25.5983 87.228 25.823C86.4811 26.5086 85.5479 26.9574 84.546 27.113C83.7947 27.2161 83.03 27.1547 82.3048 26.933C81.5796 26.7113 80.9112 26.3346 80.346 25.829C79.6518 25.2327 79.1471 24.4465 78.894 23.567C78.7563 23.0744 78.7563 22.5535 78.894 22.061C79.0675 21.5559 79.4167 21.13 79.878 20.861C80.3184 20.6098 80.8034 20.4468 81.306 20.381C81.7951 20.2981 82.2963 20.3206 82.776 20.447C83.0302 20.5089 83.2685 20.6237 83.4752 20.784C83.682 20.9442 83.8527 21.1463 83.976 21.377C84.1862 21.8134 84.2453 22.3073 84.144 22.781C83.9753 23.6028 83.5359 24.3444 82.896 24.887C82.3723 25.3496 81.7599 25.7007 81.096 25.919C80.1262 26.2481 79.0783 26.2691 78.096 25.979C77.7359 25.899 77.4017 25.7298 77.124 25.487C77.124 25.439 77.496 25.613 78.156 25.745C79.0826 25.9192 80.0393 25.8362 80.922 25.505C81.5221 25.2797 82.0725 24.9393 82.542 24.503C83.0699 24.029 83.4317 23.398 83.574 22.703C83.6412 22.3537 83.5949 21.9921 83.442 21.671C83.3537 21.5198 83.2351 21.3884 83.0936 21.2852C82.9522 21.182 82.791 21.109 82.62 21.071C81.8029 20.8941 80.9493 21.0222 80.22 21.431C79.8775 21.6281 79.6191 21.9441 79.494 22.319C79.389 22.6999 79.389 23.1021 79.494 23.483C79.7037 24.2527 80.1357 24.9435 80.736 25.469C81.2387 25.935 81.8343 26.2893 82.4838 26.5086C83.1332 26.7278 83.8218 26.807 84.504 26.741C85.443 26.6311 86.3357 26.2728 87.09 25.703C87.6 25.235 87.846 24.929 87.888 24.959Z" fill="#263238"/>
</svg>
