<svg width="125" height="189" viewBox="0 0 125 189" fill="none" xmlns="http://www.w3.org/2000/svg">
<path d="M35.05 82.9789C35.05 82.9789 23.6 106.629 13.54 94.6289C3.48001 82.6289 20.48 78.1289 20.48 78.1289C20.48 78.1289 0 80.5489 0 69.4489C0 58.3489 14.58 65.2889 14.58 65.2889C14.58 65.2889 -4.35998 50.5189 4.86002 44.2889C11.28 39.9489 26.72 55.6189 26.72 55.6189C26.72 55.6189 20.82 40.2989 27.72 39.9489C34.62 39.5989 39.18 61.8189 39.18 61.8189C39.18 61.8189 42.99 45.4489 49.93 50.1589C56.87 54.8689 44.48 73.0489 44.48 73.0489C44.48 73.0489 53.4 64.2389 55.83 70.4889C58.26 76.7389 44.48 80.8989 44.48 80.8989C44.48 80.8989 44.38 103.809 36.75 101.029C29.12 98.2489 35.05 82.9789 35.05 82.9789Z" fill="#727C72"/>
<path d="M59.4601 134.339C59.4601 134.339 59.4601 81.5989 28.0801 65.6289" stroke="#263238" stroke-linecap="round" stroke-linejoin="round"/>
<path d="M39.2999 74.0488C39.2999 74.0488 30.5399 75.6088 20.6499 86.3688" stroke="#263238" stroke-linecap="round" stroke-linejoin="round"/>
<path d="M33.1699 68.7285C33.1699 68.7285 23.5099 71.6785 14.1699 70.6085" stroke="#263238" stroke-linecap="round" stroke-linejoin="round"/>
<path d="M35.8901 70.8389C40.4023 67.8168 43.9638 63.5757 46.1601 58.6089" stroke="#263238" stroke-linecap="round" stroke-linejoin="round"/>
<path d="M94.5799 98.5287C94.5799 98.5287 104.24 118.479 112.73 108.359C121.22 98.2386 106.87 94.4287 106.87 94.4287C106.87 94.4287 124.15 96.4786 124.15 87.1086C124.15 77.7386 111.85 83.5887 111.85 83.5887C111.85 83.5887 127.85 71.1287 120.05 65.8687C114.63 62.2187 101.6 75.4287 101.6 75.4287C101.6 75.4287 106.6 62.5087 100.73 62.2187C94.8599 61.9287 91.0599 80.6686 91.0599 80.6686C91.0599 80.6686 87.8399 66.8486 81.9899 70.8286C76.1399 74.8086 86.5899 90.1487 86.5899 90.1487C86.5899 90.1487 79.0599 82.7087 77.0099 87.9887C74.9599 93.2687 86.5899 96.7687 86.5899 96.7687C86.5899 96.7687 86.6699 116.089 93.1099 113.769C99.5499 111.449 94.5799 98.5287 94.5799 98.5287Z" fill="#727C72"/>
<mask id="mask0_343_826" style="mask-type:luminance" maskUnits="userSpaceOnUse" x="76" y="62" width="49" height="52">
<path d="M94.5799 98.5287C94.5799 98.5287 104.24 118.479 112.73 108.359C121.22 98.2386 106.87 94.4287 106.87 94.4287C106.87 94.4287 124.15 96.4786 124.15 87.1086C124.15 77.7386 111.85 83.5887 111.85 83.5887C111.85 83.5887 127.85 71.1287 120.05 65.8687C114.63 62.2187 101.6 75.4287 101.6 75.4287C101.6 75.4287 106.6 62.5087 100.73 62.2187C94.8599 61.9287 91.0599 80.6686 91.0599 80.6686C91.0599 80.6686 87.8399 66.8486 81.9899 70.8286C76.1399 74.8086 86.5899 90.1487 86.5899 90.1487C86.5899 90.1487 79.0599 82.7087 77.0099 87.9887C74.9599 93.2687 86.5899 96.7687 86.5899 96.7687C86.5899 96.7687 86.6699 116.089 93.1099 113.769C99.5499 111.449 94.5799 98.5287 94.5799 98.5287Z" fill="white"/>
</mask>
<g mask="url(#mask0_343_826)">
<path opacity="0.1" d="M94.5799 98.5287C94.5799 98.5287 104.24 118.479 112.73 108.359C121.22 98.2386 106.87 94.4287 106.87 94.4287C106.87 94.4287 124.15 96.4786 124.15 87.1086C124.15 77.7386 111.85 83.5887 111.85 83.5887C111.85 83.5887 127.85 71.1287 120.05 65.8687C114.63 62.2187 101.6 75.4287 101.6 75.4287C101.6 75.4287 106.6 62.5087 100.73 62.2187C94.8599 61.9287 91.0599 80.6686 91.0599 80.6686C91.0599 80.6686 87.8399 66.8486 81.9899 70.8286C76.1399 74.8086 86.5899 90.1487 86.5899 90.1487C86.5899 90.1487 79.0599 82.7087 77.0099 87.9887C74.9599 93.2687 86.5899 96.7687 86.5899 96.7687C86.5899 96.7687 86.6699 116.089 93.1099 113.769C99.5499 111.449 94.5799 98.5287 94.5799 98.5287Z" fill="black"/>
</g>
<path d="M93.41 87.5386C79.76 97.3886 77.8101 131.539 77.8101 131.539" stroke="#263238" stroke-linecap="round" stroke-linejoin="round"/>
<path d="M89.3799 91.4985C94.8883 93.6205 99.8478 96.9565 103.89 101.259" stroke="#263238" stroke-linecap="round" stroke-linejoin="round"/>
<path d="M97.8199 70.8389C97.8199 78.2989 93.3999 87.5389 93.3999 87.5389L96.6399 88.5389" stroke="#263238" stroke-linecap="round" stroke-linejoin="round"/>
<path d="M99.3101 89.3389C99.3101 89.3389 107.54 91.1789 113.78 89.3389" stroke="#263238" stroke-linecap="round" stroke-linejoin="round"/>
<path d="M65.2201 47.1187C65.2201 47.1187 42.1101 48.1187 43.5601 35.7387C44.7701 25.3987 61.1301 32.3088 61.1301 32.3088C61.1301 32.3088 47.7101 16.6587 56.9301 10.4787C66.1501 4.29875 71.6701 22.2987 71.6701 22.2987C71.6701 22.2987 77.5501 -3.70125 87.8601 0.44875C95.0401 3.36875 83.3501 24.9187 83.3501 24.9187C83.3501 24.9187 96.9401 15.6488 101.1 21.2188C105.26 26.7888 85.1601 38.7488 85.1601 38.7488C85.1601 38.7488 100.88 32.7988 100.83 41.1888C100.78 49.5788 78.7801 49.4088 78.7801 49.4088C78.7801 49.4088 91.0701 51.9188 87.2301 57.4088C83.3901 62.8988 72.2301 53.7788 72.2301 53.7788C72.2301 53.7788 57.1801 64.6688 55.2301 56.7788C53.2801 48.8888 65.2201 47.1187 65.2201 47.1187Z" fill="#727C72"/>
<mask id="mask1_343_826" style="mask-type:luminance" maskUnits="userSpaceOnUse" x="43" y="0" width="59" height="60">
<path d="M65.2201 47.1187C65.2201 47.1187 42.1101 48.1187 43.5601 35.7387C44.7701 25.3987 61.1301 32.3088 61.1301 32.3088C61.1301 32.3088 47.7101 16.6587 56.9301 10.4787C66.1501 4.29875 71.6701 22.2987 71.6701 22.2987C71.6701 22.2987 77.5501 -3.70125 87.8601 0.44875C95.0401 3.36875 83.3501 24.9187 83.3501 24.9187C83.3501 24.9187 96.9401 15.6488 101.1 21.2188C105.26 26.7888 85.1601 38.7488 85.1601 38.7488C85.1601 38.7488 100.88 32.7988 100.83 41.1888C100.78 49.5788 78.7801 49.4088 78.7801 49.4088C78.7801 49.4088 91.0701 51.9188 87.2301 57.4088C83.3901 62.8988 72.2301 53.7788 72.2301 53.7788C72.2301 53.7788 57.1801 64.6688 55.2301 56.7788C53.2801 48.8888 65.2201 47.1187 65.2201 47.1187Z" fill="white"/>
</mask>
<g mask="url(#mask1_343_826)">
<path opacity="0.2" d="M65.2201 47.1187C65.2201 47.1187 42.1101 48.1187 43.5601 35.7387C44.7701 25.3987 61.1301 32.3088 61.1301 32.3088C61.1301 32.3088 47.7101 16.6587 56.9301 10.4787C66.1501 4.29875 71.6701 22.2987 71.6701 22.2987C71.6701 22.2987 77.5501 -3.70125 87.8601 0.44875C95.0401 3.36875 83.3501 24.9187 83.3501 24.9187C83.3501 24.9187 96.9401 15.6488 101.1 21.2188C105.26 26.7888 85.1601 38.7488 85.1601 38.7488C85.1601 38.7488 100.88 32.7988 100.83 41.1888C100.78 49.5788 78.7801 49.4088 78.7801 49.4088C78.7801 49.4088 91.0701 51.9188 87.2301 57.4088C83.3901 62.8988 72.2301 53.7788 72.2301 53.7788C72.2301 53.7788 57.1801 64.6688 55.2301 56.7788C53.2801 48.8888 65.2201 47.1187 65.2201 47.1187Z" fill="white"/>
</g>
<path d="M68.41 134.339C68.41 134.339 64.72 69.0589 77.8 25.3389" stroke="#263238" stroke-linecap="round" stroke-linejoin="round"/>
<path d="M52.3601 37.2589C52.3601 37.2589 62.1001 36.4389 73.6101 42.7589" stroke="#263238" stroke-linecap="round" stroke-linejoin="round"/>
<path d="M60.46 16.6987C60.46 16.6987 70.2 26.2387 74.17 39.9487" stroke="#263238" stroke-linecap="round" stroke-linejoin="round"/>
<path d="M75.04 35.9089C75.04 35.9089 81.37 28.9089 89.38 27.1089" stroke="#263238" stroke-linecap="round" stroke-linejoin="round"/>
<path d="M93.1999 127.879H43.4299L47.4299 173.009C47.4724 173.484 47.6908 173.926 48.0424 174.247C48.394 174.569 48.8532 174.748 49.3299 174.749L50.3299 185.899C50.3747 186.375 50.5953 186.816 50.9485 187.138C51.3017 187.46 51.7621 187.639 52.2399 187.639H84.3899C84.8666 187.638 85.3259 187.459 85.6775 187.137C86.029 186.816 86.2475 186.374 86.2899 185.899L87.2899 174.749C87.7677 174.749 88.2282 174.57 88.5814 174.248C88.9346 173.926 89.1551 173.485 89.1999 173.009L93.1999 127.879Z" fill="white" stroke="#263238" stroke-linecap="round" stroke-linejoin="round"/>
<path d="M93.5201 131.569H43.11C42.1667 131.566 41.2627 131.19 40.5957 130.523C39.9286 129.856 39.5527 128.952 39.55 128.009C39.5527 127.065 39.9286 126.161 40.5957 125.494C41.2627 124.827 42.1667 124.451 43.11 124.449H93.5201C94.4625 124.451 95.3654 124.828 96.0309 125.495C96.6964 126.162 97.07 127.066 97.07 128.009C97.07 128.951 96.6964 129.855 96.0309 130.523C95.3654 131.19 94.4625 131.566 93.5201 131.569Z" fill="#263238" stroke="#263238" stroke-linecap="round" stroke-linejoin="round"/>
<path d="M78.1101 174.879H81.4101" stroke="#263238" stroke-linecap="round" stroke-linejoin="round"/>
<path d="M55.21 174.879H74.8" stroke="#263238" stroke-linecap="round" stroke-linejoin="round"/>
</svg>
